<?xml version="1.0" encoding="iso-8859-1"?>
<!-- Generator: Adobe Illustrator 19.0.0, SVG Export Plug-In . SVG Version: 6.00 Build 0)  -->
<svg version="1.1" id="Capa_1" xmlns="http://www.w3.org/2000/svg" xmlns:xlink="http://www.w3.org/1999/xlink" x="0px" y="0px"
	 viewBox="0 0 512.001 512.001" style="enable-background:new 0 0 512.001 512.001;" xml:space="preserve">
<g>
	<g>
		<path d="M408.096,360.427c-2.453-1.472-5.419-1.877-8.213-1.173c-2.795,0.747-5.163,2.581-6.592,5.099
			c-2.389,4.288-5.077,8.811-8.533,12.907c-10.709,12.8-30.656,28.075-64.768,28.075c-25.472,0-43.968-6.016-54.869-17.899
			c-2.027-2.176-4.885-3.435-7.851-3.435h-2.56c-2.987,0-5.824,1.259-7.851,3.435c-10.901,11.883-29.397,17.899-54.869,17.899
			c-34.112,0-54.059-15.275-64.789-28.096c-3.435-4.075-6.123-8.597-8.512-12.885c-1.408-2.517-3.797-4.352-6.592-5.099
			c-2.752-0.725-5.739-0.32-8.213,1.173l-16.533,9.92L177.483,512h157.013l90.133-141.653L408.096,360.427z"/>
	</g>
</g>
<g>
	<g>
		<path d="M60.768,368.342l-14.891,7.445c-14.805,7.403-25.195,20.971-28.437,37.248L0.203,499.243
			c-0.619,3.136,0.192,6.379,2.219,8.853C4.448,510.571,7.478,512,10.656,512h141.547L60.768,368.342z"/>
	</g>
</g>
<g>
	<g>
		<path d="M511.798,499.243l-17.259-86.208c-3.243-16.256-13.632-29.824-28.437-37.248l-14.891-7.445L359.776,512h141.547
			c3.179,0,6.229-1.429,8.256-3.904C511.606,505.622,512.416,502.379,511.798,499.243z"/>
	</g>
</g>
<g>
	<g>
		<path d="M149.323,249.75l-37.355,37.355c0.661,0.427,1.344,0.917,2.005,1.323l49.365-24.683L149.323,249.75z"/>
	</g>
</g>
<g>
	<g>
		<path d="M101.707,202.134c-7.509,8.064-16.384,21.995-16.384,43.2c0,11.285,4.373,20.416,10.453,27.797l38.464-38.464
			L101.707,202.134z"/>
	</g>
</g>
<g>
	<g>
		<path d="M397.046,128H114.934c-5.333,8.427-8.277,18.133-8.277,28.352V160c2.731,0,5.461,1.045,7.552,3.115
			c3.136,3.157,6.635,7.019,10.411,11.179c14.891,16.469,35.285,39.04,56.704,39.04c12.011,0,21.099-8.811,31.616-19.029
			c11.435-11.072,24.384-23.637,43.051-23.637s31.616,12.565,43.051,23.637c10.517,10.219,19.605,19.029,31.616,19.029
			c21.419,0,41.813-22.571,56.704-39.04c3.776-4.181,7.275-8.021,10.411-11.179c2.091-2.069,4.821-3.115,7.552-3.115v-3.648
			C405.323,146.134,402.379,136.427,397.046,128z M228.747,169.536L186.08,190.87c-1.493,0.747-3.136,1.131-4.757,1.131
			c-1.963,0-3.904-0.533-5.611-1.6c-3.136-1.941-5.056-5.376-5.056-9.067v-10.667H159.99c-5.888,0-10.667-4.779-10.667-10.667
			s4.779-10.667,10.667-10.667h64c4.928,0,9.259,3.413,10.368,8.213C235.51,162.368,233.163,167.318,228.747,169.536z
			 M351.99,170.667h-10.667v10.667c0,3.691-1.92,7.125-5.056,9.067c-1.707,1.067-3.648,1.6-5.611,1.6
			c-1.621,0-3.264-0.384-4.779-1.131l-42.667-21.333c-4.416-2.197-6.741-7.168-5.589-11.989c1.109-4.8,5.44-8.213,10.368-8.213h64
			c5.888,0,10.667,4.779,10.667,10.667S357.878,170.667,351.99,170.667z"/>
	</g>
</g>
<g>
	<g>
		<path d="M330.656,234.667c-20.672,0-34.368-13.312-46.485-25.045C274.422,200.171,266.016,192,255.99,192
			c-10.027,0-18.432,8.171-28.181,17.621c-12.117,11.733-25.813,25.045-46.485,25.045c-7.445,0-14.485-1.6-21.141-4.224l24.96,24.96
			c9.941-1.472,20.437-7.979,30.656-14.635C228.491,232.534,241.611,224,255.99,224c14.379,0,27.499,8.533,40.192,16.768
			c10.219,6.635,20.715,13.163,30.656,14.635l24.96-24.96C345.142,233.067,338.102,234.667,330.656,234.667z"/>
	</g>
</g>
<g>
	<g>
		<path d="M385.355,305.942l-58.133-29.056c-15.915-1.216-30.101-10.048-42.667-18.219c-10.539-6.848-20.523-13.333-28.565-13.333
			c-8.043,0-18.027,6.485-28.565,13.333c-12.565,8.149-26.731,17.003-42.667,18.219l-58.133,29.056
			c-0.128,16.725,2.581,40.512,16.917,57.6C154.934,377.11,171.211,384,191.99,384c22.912,0,36.779-5.056,42.347-15.467
			c1.024-1.941,1.685-3.904,2.048-5.867h39.211c0.363,1.963,1.024,3.925,2.048,5.867C283.211,378.944,297.078,384,319.99,384
			c20.779,0,37.056-6.891,48.448-20.459C382.774,346.454,385.483,322.667,385.355,305.942z M319.99,341.334
			c-1.323,0-2.624-0.299-3.883-0.789c-7.104-1.365-13.099-5.867-15.808-12.395l-44.309-36.928L211.68,328.15
			c-2.709,6.528-8.704,11.029-15.808,12.395c-1.259,0.491-2.56,0.789-3.883,0.789c-11.776,0-21.333-9.579-21.333-21.333
			s9.557-21.333,21.333-21.333c5.675,0,10.773,2.304,14.613,5.931l42.56-35.477c0.32-0.256,0.704-0.341,1.045-0.576
			c0.597-0.384,1.173-0.725,1.835-0.981c0.661-0.277,1.301-0.448,2.005-0.576c0.64-0.128,1.237-0.192,1.877-0.192
			c0.747,0,1.429,0.085,2.155,0.213c0.619,0.128,1.195,0.277,1.792,0.512c0.683,0.277,1.301,0.619,1.92,1.045
			c0.341,0.213,0.725,0.299,1.024,0.555l42.56,35.477c3.84-3.627,8.939-5.931,14.613-5.931c11.776,0,21.333,9.579,21.333,21.333
			S331.766,341.334,319.99,341.334z"/>
	</g>
</g>
<g>
	<g>
		<path d="M287.99,0h-64c-52.928,0-96,43.072-96,96v10.667h256V96C383.99,43.072,340.918,0,287.99,0z"/>
	</g>
</g>
<g>
	<g>
		<path d="M410.272,202.134l-32.533,32.533l38.464,38.464c6.08-7.381,10.453-16.512,10.453-27.797
			C426.656,224.128,417.782,210.198,410.272,202.134z"/>
	</g>
</g>
<g>
	<g>
		<path d="M362.656,249.75l-13.995,13.995l49.365,24.683c0.661-0.405,1.323-0.896,2.005-1.323L362.656,249.75z"/>
	</g>
</g>
<g>
</g>
<g>
</g>
<g>
</g>
<g>
</g>
<g>
</g>
<g>
</g>
<g>
</g>
<g>
</g>
<g>
</g>
<g>
</g>
<g>
</g>
<g>
</g>
<g>
</g>
<g>
</g>
<g>
</g>
</svg>
