<?xml version="1.0" encoding="iso-8859-1"?>
<!-- Generator: Adobe Illustrator 19.0.0, SVG Export Plug-In . SVG Version: 6.00 Build 0)  -->
<svg version="1.1" id="Capa_1" xmlns="http://www.w3.org/2000/svg" xmlns:xlink="http://www.w3.org/1999/xlink" x="0px" y="0px"
	 viewBox="0 0 512.224 512.224" style="enable-background:new 0 0 512.224 512.224;" xml:space="preserve">
<g>
	<g>
		<path d="M509.077,3.123c-2.859-2.859-7.083-3.861-10.901-2.56c-2.048,0.683-38.933,13.141-71.296,33.536v51.264h51.307
			c20.501-32.469,32.811-69.312,33.493-71.339C512.96,10.185,511.936,5.982,509.077,3.123z"/>
	</g>
</g>
<g>
	<g>
		<path d="M6.976,448.009C2.539,453.62,0,460.446,0,467.721c0,8.533,3.328,16.576,9.365,22.635l12.501,12.501
			c6.037,6.037,14.08,9.365,22.635,9.365c7.275,0,14.08-2.539,19.712-6.976v-57.237H6.976z"/>
	</g>
</g>
<g>
	<g>
		<path d="M14.037,0.563c-3.819-1.301-8.043-0.299-10.901,2.56c-2.859,2.837-3.861,7.061-2.581,10.901
			c0.661,2.027,12.971,38.869,33.472,71.317h51.307V34.099C52.971,13.705,16.085,1.246,14.037,0.563z"/>
	</g>
</g>
<g>
	<g>
		<path d="M505.237,448.009H448v57.237c5.611,4.437,12.437,6.976,19.712,6.976c8.533,0,16.576-3.328,22.635-9.365l12.501-12.501
			c6.037-6.037,9.365-14.08,9.365-22.635C512.213,460.446,509.675,453.62,505.237,448.009z"/>
	</g>
</g>
<g>
	<g>
		<path d="M114.219,56.478c-2.368-2.368-4.907-4.651-7.552-6.891v46.421c0,5.888-4.779,10.667-10.667,10.667H49.557
			c2.24,2.624,4.523,5.184,6.891,7.552l370.219,370.219v-47.083c0-5.888,4.779-10.667,10.667-10.667h47.083L114.219,56.478z
			 M309.333,284.019c0,11.605-14.272,25.344-26.325,25.344c-0.363,0-0.683,0.171-1.045,0.213l-39.744-39.744
			c-10.389-10.389-14.144-34.176-10.688-38.229c4.117-3.499,27.904,0.277,38.272,10.645l39.915,39.915
			C309.589,282.761,309.333,283.337,309.333,284.019z"/>
	</g>
</g>
<g>
	<g>
		<path d="M241.024,328.948l-57.749-57.749L27.797,426.676H74.88c5.888,0,10.667,4.779,10.667,10.667v47.083L241.024,328.948z"/>
	</g>
</g>
<g>
	<g>
		<path d="M416.192,106.675c-5.888,0-10.667-4.779-10.667-10.667V49.587c-2.645,2.24-5.184,4.523-7.552,6.891L271.168,183.283
			l57.749,57.749l126.827-126.805c2.368-2.368,4.651-4.907,6.891-7.552H416.192z"/>
	</g>
</g>
<g>
</g>
<g>
</g>
<g>
</g>
<g>
</g>
<g>
</g>
<g>
</g>
<g>
</g>
<g>
</g>
<g>
</g>
<g>
</g>
<g>
</g>
<g>
</g>
<g>
</g>
<g>
</g>
<g>
</g>
</svg>
