<?xml version="1.0" encoding="iso-8859-1"?>
<!-- Generator: Adobe Illustrator 19.0.0, SVG Export Plug-In . SVG Version: 6.00 Build 0)  -->
<svg version="1.1" id="Capa_1" xmlns="http://www.w3.org/2000/svg" xmlns:xlink="http://www.w3.org/1999/xlink" x="0px" y="0px"
	 viewBox="0 0 512.061 512.061" style="enable-background:new 0 0 512.061 512.061;" xml:space="preserve">
<g>
	<g>
		<path d="M256.031,341.395c-45.269,0-76.736-41.429-85.931-67.541c-1.941-5.547-8-8.469-13.611-6.528
			c-5.568,1.963-8.491,8.064-6.528,13.611c11.584,32.875,49.387,81.792,106.069,81.792c5.888,0,10.667-4.779,10.667-10.667
			C266.697,346.173,261.919,341.395,256.031,341.395z"/>
	</g>
</g>
<g>
	<g>
		<path d="M256.031,0.061c-68.651,0-121.6,62.251-127.893,105.131c-0.853,5.824,3.2,11.243,9.024,12.096
			c0.512,0.085,1.045,0.107,1.557,0.107c5.184,0,9.749-3.819,10.539-9.109c4.309-29.504,45.931-86.891,106.773-86.891
			c5.888,0,10.667-4.779,10.667-10.667S261.919,0.061,256.031,0.061z"/>
	</g>
</g>
<g>
	<g>
		<path d="M416.948,0.104c-5.781-0.576-10.496,3.413-11.435,8.875c-5.547,33.131-29.803,119.104-74.816,119.104
			c-15.893,0-29.312,5.568-39.851,16.512c-25.899,26.944-24.235,77.76-24.149,79.893c0.235,5.739,4.928,10.24,10.667,10.24h42.667
			c5.931,0,10.24,1.792,13.611,5.632c10.027,11.477,9.045,37.269,7.829,46.229c-0.619,4.523,1.707,8.939,5.781,10.987
			c1.515,0.768,3.136,1.131,4.779,1.131c2.752,0,5.44-1.045,7.488-3.072c1.067-1.045,26.453-26.261,44.907-67.221
			c21.12-46.827,22.229-210.667,22.272-217.643C426.719,5.224,422.495,0.573,416.948,0.104z M346.143,180.264l-16.107,8.043
			c0.427,1.173,0.661,2.453,0.661,3.755c0,5.888-4.779,10.667-10.667,10.667h-21.333c-4.928,0-9.259-3.413-10.368-8.213
			c-1.152-4.821,1.195-9.771,5.611-11.989l42.667-21.333c5.269-2.624,11.669-0.512,14.315,4.779
			C353.524,171.219,351.412,177.64,346.143,180.264z"/>
	</g>
</g>
<g>
	<g>
		<path d="M221.172,144.573c-10.539-10.944-23.957-16.512-39.851-16.512c-44.992,0-69.269-85.973-74.816-119.104
			c-0.939-5.461-5.653-9.6-11.435-8.875c-5.547,0.469-9.771,5.12-9.749,10.667c0.043,6.997,1.152,170.837,22.272,217.707
			c18.475,40.939,43.861,66.176,44.907,67.221c2.048,2.005,4.736,3.072,7.488,3.072c0.149-0.021,0.299,0,0.427,0
			c5.888,0,10.667-4.779,10.667-10.667c0-1.472-0.299-2.859-0.811-4.117c-1.003-10.645-1.024-33.088,8.128-43.584
			c3.349-3.84,7.68-5.632,13.611-5.632h42.667c5.739,0,10.432-4.523,10.667-10.24C245.407,222.333,247.071,171.517,221.172,144.573z
			 M223.732,194.515c-1.109,4.8-5.44,8.213-10.368,8.213h-21.333c-5.888,0-10.667-4.779-10.667-10.667v-4.075l-15.445-7.723
			c-5.269-2.624-7.381-9.045-4.757-14.315c2.667-5.269,9.045-7.36,14.315-4.757l21.12,10.56c0.128,0.064,0.277,0.128,0.384,0.192
			l21.141,10.581C222.559,184.723,224.884,189.693,223.732,194.515z"/>
	</g>
</g>
<g>
	<g>
		<path d="M355.572,267.325c-5.568-1.941-11.648,0.981-13.611,6.528c-9.173,26.112-40.661,67.541-85.931,67.541
			c-5.888,0-10.667,4.779-10.667,10.667c0,5.888,4.779,10.667,10.667,10.667c56.683,0,94.485-48.917,106.069-81.792
			C364.041,275.368,361.14,269.288,355.572,267.325z"/>
	</g>
</g>
<g>
	<g>
		<path d="M383.924,105.171C377.631,62.312,324.681,0.061,256.031,0.061c-5.888,0-10.667,4.779-10.667,10.667
			s4.779,10.667,10.667,10.667c60.843,0,102.464,57.387,106.773,86.891c0.789,5.291,5.333,9.109,10.539,9.109
			c0.512,0,1.045-0.021,1.557-0.128C380.745,116.413,384.777,110.995,383.924,105.171z"/>
	</g>
</g>
<g>
	<g>
		<path d="M277.364,277.395h-42.667c-5.888,0-10.667,4.779-10.667,10.667s4.779,10.667,10.667,10.667h42.667
			c5.888,0,10.667-4.779,10.667-10.667S283.252,277.395,277.364,277.395z"/>
	</g>
</g>
<g>
	<g>
		<path d="M53.641,495.485l-30.165-45.248c-2.347-3.541-6.677-5.312-10.731-4.587c-4.181,0.747-7.531,3.883-8.512,8
			c-2.837,11.691-4.203,22.187-4.203,32.085v15.659c0,5.888,4.779,10.667,10.667,10.667h34.069c3.947,0,7.552-2.176,9.387-5.632
			C56.031,502.952,55.817,498.749,53.641,495.485z"/>
	</g>
</g>
<g>
	<g>
		<path d="M212.809,498.067l-51.157-155.648c-1.664-5.099-6.613-8.171-12.181-7.125L8.628,362.92
			c-3.499,0.683-6.421,3.072-7.787,6.357c-1.344,3.285-1.003,7.061,0.981,10.027l85.333,128c1.984,2.965,5.312,4.757,8.875,4.757
			h106.667c3.413,0,6.635-1.643,8.64-4.416C213.343,504.872,213.897,501.309,212.809,498.067z"/>
	</g>
</g>
<g>
	<g>
		<path d="M507.849,453.651c-1.003-4.117-4.331-7.253-8.512-8c-4.011-0.768-8.384,1.045-10.731,4.587l-30.165,45.248
			c-2.197,3.264-2.389,7.488-0.512,10.944c1.856,3.477,5.461,5.632,9.387,5.632h34.048c5.888,0,10.667-4.779,10.667-10.667v-15.659
			C512.031,475.837,510.665,465.341,507.849,453.651z"/>
	</g>
</g>
<g>
	<g>
		<path d="M511.22,369.299c-1.365-3.285-4.288-5.675-7.787-6.357l-140.821-27.648c-5.547-1.109-10.517,2.048-12.181,7.125
			l-51.179,155.648c-1.088,3.243-0.512,6.805,1.472,9.579c2.027,2.773,5.227,4.416,8.64,4.416h106.667
			c3.563,0,6.891-1.771,8.875-4.757l85.333-128C512.223,376.339,512.564,372.584,511.22,369.299z"/>
	</g>
</g>
<g>
	<g>
		<path d="M309.812,378.259c-2.987-2.837-7.36-3.733-11.157-2.24c-28.075,10.709-57.131,10.688-85.163,0.021
			c-3.84-1.451-8.192-0.576-11.157,2.24c-2.965,2.837-4.032,7.147-2.752,11.051l33.557,102.08c0.917,2.773,1.344,5.952,1.344,9.984
			c0,5.888,4.779,10.667,10.667,10.667h21.845c5.888,0,10.667-4.779,10.667-10.667c0-4.032,0.427-7.211,1.344-10.005l33.579-102.101
			C313.844,385.405,312.756,381.096,309.812,378.259z"/>
	</g>
</g>
<g>
	<g>
		<path d="M283.999,215.784c-4.544-3.669-11.243-2.923-14.955,1.557c-0.064,0.064-5.611,6.699-13.035,6.699
			c-7.317,0-12.864-6.443-13.077-6.699c-3.691-4.565-10.325-5.248-14.933-1.643c-4.608,3.669-5.376,10.389-1.707,14.997
			c1.216,1.515,12.203,14.699,29.739,14.699s28.501-13.205,29.675-14.741C289.332,226.067,288.543,219.453,283.999,215.784z"/>
	</g>
</g>
<g>
</g>
<g>
</g>
<g>
</g>
<g>
</g>
<g>
</g>
<g>
</g>
<g>
</g>
<g>
</g>
<g>
</g>
<g>
</g>
<g>
</g>
<g>
</g>
<g>
</g>
<g>
</g>
<g>
</g>
</svg>
