<?xml version="1.0" encoding="iso-8859-1"?>
<!-- Generator: Adobe Illustrator 19.0.0, SVG Export Plug-In . SVG Version: 6.00 Build 0)  -->
<svg version="1.1" id="Capa_1" xmlns="http://www.w3.org/2000/svg" xmlns:xlink="http://www.w3.org/1999/xlink" x="0px" y="0px"
	 viewBox="0 0 512 512" style="enable-background:new 0 0 512 512;" xml:space="preserve">
<g>
	<g>
		<path d="M153.707,237.845c-3.115-4.992-10.027-6.293-15.04-3.179c-2.667,0-10.667-11.349-10.667-32
			c0-7.296,1.045-14.315,3.051-20.288c1.856-5.568-1.152-11.627-6.763-13.483c-5.568-1.899-11.627,1.152-13.483,6.741
			c-2.709,8.107-4.139,17.451-4.139,27.029c0,30.4,13.76,53.333,32,53.333c4.011,0,7.915-1.216,11.947-3.712
			C155.627,249.173,156.821,242.837,153.707,237.845z"/>
	</g>
</g>
<g>
	<g>
		<path d="M401.173,175.637c-1.856-5.589-7.872-8.64-13.483-6.741c-5.589,1.856-8.597,7.893-6.741,13.483
			c2.005,5.973,3.051,12.992,3.051,20.288c0,20.651-8,32-10.304,32.043c0-0.021-0.32-0.107-1.045-0.555
			c-5.013-3.093-11.584-1.579-14.699,3.435c-3.093,5.013-1.557,11.584,3.435,14.699c4.032,2.496,7.936,3.712,11.947,3.712
			c18.24,0,32-22.933,32-53.333C405.333,193.088,403.904,183.744,401.173,175.637z"/>
	</g>
</g>
<g>
	<g>
		<path d="M418.88,354.688l-54.869-19.093c-4.011-1.387-8.469-0.277-11.371,2.859C325.739,367.829,291.413,384,256,384
			s-69.739-16.171-96.64-45.525c-2.901-3.136-7.381-4.245-11.371-2.859L93.12,354.709C37.419,374.059,0,426.688,0,485.675v15.659
			C0,507.221,4.779,512,10.667,512h490.667c5.888,0,10.667-4.779,10.667-10.667v-15.659C512,426.688,474.581,374.059,418.88,354.688
			z"/>
	</g>
</g>
<g>
	<g>
		<path d="M256,0c-82.347,0-149.333,66.987-149.333,149.333c0,9.899,1.216,20.053,3.84,31.979c1.067,4.885,5.397,8.384,10.411,8.384
			c12.075,0,26.667,2.176,26.816,2.197c0.597,0.085,1.109,0.085,1.813,0.107c5.888,0.021,10.88-4.693,10.88-10.667
			c0-1.301-0.235-2.517-0.64-3.669c-1.301-21.291,0.043-42.816,3.008-49.664h1.621c36.885,0,55.275-11.712,63.765-26.496
			c22.997,22.699,69.248,44.587,113.963,47.488c2.539,17.92,10.389,35.755,10.795,36.651c1.707,3.904,5.547,6.357,9.728,6.357
			c0.277,0,0.576,0,0.875-0.021l28.416-2.325c4.672-0.384,8.533-3.776,9.557-8.341c2.603-11.925,3.819-22.08,3.819-31.979
			C405.333,66.987,338.347,0,256,0z"/>
	</g>
</g>
<g>
	<g>
		<path d="M224,192h-21.333c-5.888,0-10.667,4.779-10.667,10.667s4.779,10.667,10.667,10.667H224
			c5.888,0,10.667-4.779,10.667-10.667S229.888,192,224,192z"/>
	</g>
</g>
<g>
	<g>
		<path d="M309.333,192H288c-5.888,0-10.667,4.779-10.667,10.667s4.779,10.667,10.667,10.667h21.333
			c5.888,0,10.667-4.779,10.667-10.667S315.221,192,309.333,192z"/>
	</g>
</g>
<g>
	<g>
		<path d="M369.579,232.875c-3.307-0.789-6.741,0.043-9.28,2.069c-1.899,0.427-3.691,1.387-5.184,2.859
			C338.56,254.357,328.939,256,309.333,256c-7.381,0-12.629-3.691-19.285-8.384c-8.213-5.76-18.411-12.949-34.048-12.949
			s-25.835,7.189-34.048,12.949c-6.656,4.693-11.904,8.384-19.285,8.384c-19.605,0-29.227-1.643-45.781-18.219
			c-0.853-0.853-1.813-1.536-2.88-2.048l-4.352-2.112c-3.712-1.813-8.149-1.301-11.371,1.301c-3.2,2.603-4.629,6.848-3.627,10.859
			C151.957,315.691,200.725,362.667,256,362.667s104.043-46.976,121.365-116.885C378.795,240.064,375.296,234.283,369.579,232.875z
			 M266.667,298.667h-21.333c-5.888,0-10.667-4.779-10.667-10.667s4.779-10.667,10.667-10.667h21.333
			c5.888,0,10.667,4.779,10.667,10.667S272.555,298.667,266.667,298.667z"/>
	</g>
</g>
<g>
</g>
<g>
</g>
<g>
</g>
<g>
</g>
<g>
</g>
<g>
</g>
<g>
</g>
<g>
</g>
<g>
</g>
<g>
</g>
<g>
</g>
<g>
</g>
<g>
</g>
<g>
</g>
<g>
</g>
</svg>
