<?xml version="1.0" encoding="iso-8859-1"?>
<!-- Generator: Adobe Illustrator 19.0.0, SVG Export Plug-In . SVG Version: 6.00 Build 0)  -->
<svg version="1.1" id="Capa_1" xmlns="http://www.w3.org/2000/svg" xmlns:xlink="http://www.w3.org/1999/xlink" x="0px" y="0px"
	 viewBox="0 0 512 512" style="enable-background:new 0 0 512 512;" xml:space="preserve">
<g>
	<g>
		<path d="M320,192h53.333v-64H320c-5.888,0-10.667-4.779-10.667-10.667s4.779-10.667,10.667-10.667h52.8
			C367.381,46.955,317.099,0,256,0c-64.704,0-117.333,52.629-117.333,117.333v277.333C138.667,459.349,191.296,512,256,512
			c64.683,0,117.333-52.651,117.333-117.333v-96H320c-5.888,0-10.667-4.779-10.667-10.667s4.779-10.667,10.667-10.667h53.333v-64
			H320c-5.888,0-10.667-4.779-10.667-10.667S314.112,192,320,192z M224,74.667c0-17.643,14.357-32,32-32c17.643,0,32,14.357,32,32
			v202.667h-64V74.667z M330.667,394.667c0,22.208-9.792,43.115-26.859,57.344c-13.525,11.264-30.464,17.301-47.957,17.301
			c-4.587,0-9.195-0.427-13.803-1.259c-29.717-5.419-53.547-28.949-59.285-58.581c-6.229-32.107,7.957-63.253,36.16-79.381
			c3.136-1.749,5.077-5.184,5.077-8.896v-22.528h64v22.507c0,3.776,2.027,7.189,5.419,9.152
			C316.395,343.616,330.667,368.299,330.667,394.667z"/>
	</g>
</g>
<g>
</g>
<g>
</g>
<g>
</g>
<g>
</g>
<g>
</g>
<g>
</g>
<g>
</g>
<g>
</g>
<g>
</g>
<g>
</g>
<g>
</g>
<g>
</g>
<g>
</g>
<g>
</g>
<g>
</g>
</svg>
