<?xml version="1.0" encoding="iso-8859-1"?>
<!-- Generator: Adobe Illustrator 19.0.0, SVG Export Plug-In . SVG Version: 6.00 Build 0)  -->
<svg version="1.1" id="Capa_1" xmlns="http://www.w3.org/2000/svg" xmlns:xlink="http://www.w3.org/1999/xlink" x="0px" y="0px"
	 viewBox="0 0 512.416 512.416" style="enable-background:new 0 0 512.416 512.416;" xml:space="preserve">
<g>
	<g>
		<path d="M401.184,175.888c-1.835-5.568-7.915-8.619-13.483-6.763c-5.589,1.856-8.619,7.893-6.763,13.483
			c2.005,5.973,3.051,12.992,3.051,20.288c0,20.715-7.701,32.064-11.328,31.509c-2.88-1.813-6.464-2.133-9.643-0.853
			c-3.179,1.28-5.547,3.989-6.357,7.317C341.75,301.094,301.28,341.542,255.99,341.542c-45.291,0-85.739-40.469-100.672-100.672
			c-0.811-3.328-3.52-5.781-6.677-7.083c-3.136-1.259-7.061-0.725-9.984,1.088c-2.645,0-10.667-11.349-10.667-32
			c0-7.296,1.045-14.315,3.029-20.309c1.856-5.589-1.152-11.627-6.763-13.483c-5.632-1.856-11.648,1.195-13.483,6.763
			c-2.688,8.128-4.117,17.472-4.117,27.029c0,29.696,13.12,52.288,30.741,53.312c19.392,64.235,66.048,106.688,118.592,106.688
			s99.221-42.453,118.592-106.688c17.621-1.024,30.741-23.595,30.741-53.312C405.323,193.318,403.894,183.974,401.184,175.888z"/>
	</g>
</g>
<g>
	<g>
		<path d="M223.99,192.208h-21.333c-5.888,0-10.667,4.779-10.667,10.667s4.779,10.667,10.667,10.667h21.333
			c5.909,0,10.667-4.779,10.667-10.667S229.878,192.208,223.99,192.208z"/>
	</g>
</g>
<g>
	<g>
		<path d="M309.323,192.208H287.99c-5.888,0-10.667,4.779-10.667,10.667s4.779,10.667,10.667,10.667h21.333
			c5.909,0,10.667-4.779,10.667-10.667S315.211,192.208,309.323,192.208z"/>
	</g>
</g>
<g>
	<g>
		<path d="M255.99,10.875c-88.363,0-160,54.677-160,170.667h21.333l21.333-32c0,0,21.333,10.667,117.333,10.667s96-10.667,96-10.667
			l42.667,32h21.333C415.99,65.531,344.352,10.875,255.99,10.875z"/>
	</g>
</g>
<g>
	<g>
		<path d="M255.99,0.208c-82.496,0-170.667,47.637-170.667,181.333c0,5.888,4.779,10.667,10.667,10.667h21.333
			c3.563,0,6.891-1.792,8.875-4.757l16.896-25.323c13.824,3.52,45.653,8.747,112.896,8.747c56.043,0,82.837-3.413,95.531-8.363
			l36.736,27.563c1.835,1.387,4.096,2.133,6.4,2.133h21.333c5.909,0,10.667-4.779,10.667-10.667
			C426.656,47.846,338.486,0.208,255.99,0.208z M398.219,170.875l-39.851-29.867c-3.221-2.411-7.552-2.773-11.157-1.003
			c-1.323,0.661-2.496,1.6-3.413,2.709c-3.755,1.621-20.992,6.827-87.808,6.827c-89.771,0-111.915-9.28-112.533-9.536
			c-4.8-2.411-10.645-0.853-13.653,3.627l-18.176,27.243h-4.757c3.861-93.76,58.987-149.333,149.12-149.333
			s145.259,55.573,149.12,149.333H398.219z"/>
	</g>
</g>
<g>
	<g>
		<path d="M175.648,300.091c-5.141-2.688-11.648-0.768-14.421,4.459l-19.157,36.352c-2.752,5.227-0.747,11.669,4.459,14.421
			c1.579,0.832,3.285,1.237,4.971,1.237c3.797,0,7.509-2.069,9.451-5.696l19.157-36.352
			C182.859,309.286,180.854,302.843,175.648,300.091z"/>
	</g>
</g>
<g>
	<g>
		<path d="M369.952,340.902l-19.157-36.352c-2.773-5.227-9.28-7.147-14.421-4.459c-5.205,2.752-7.211,9.195-4.459,14.421
			l19.157,36.352c1.899,3.627,5.611,5.696,9.429,5.696c1.685,0,3.392-0.405,4.992-1.237
			C370.699,352.571,372.704,346.128,369.952,340.902z"/>
	</g>
</g>
<g>
	<g>
		<rect x="362.656" y="469.542" width="42.667" height="42.667"/>
	</g>
</g>
<g>
	<g>
		<path d="M159.371,338.704c-3.029-3.285-7.744-4.331-11.925-2.667l-87.744,35.968c-23.189,9.515-39.979,29.845-44.885,54.443
			L0.203,499.451c-0.619,3.136,0.192,6.379,2.219,8.853c2.027,2.475,5.056,3.904,8.235,3.904h224V382.075
			C206.966,376.955,180.79,362.107,159.371,338.704z M144.587,382.416l-64,42.667c-1.813,1.216-3.883,1.792-5.931,1.792
			c-3.435,0-6.805-1.664-8.875-4.757c-3.264-4.907-1.941-11.52,2.965-14.784l64-42.667c4.864-3.264,11.499-1.963,14.784,2.965
			C150.816,372.539,149.472,379.152,144.587,382.416z"/>
	</g>
</g>
<g>
	<g>
		<path d="M511.222,496.614l-14.037-70.208c-4.907-24.576-21.717-44.928-44.885-54.443l-87.744-35.968
			c-4.139-1.685-8.917-0.619-11.925,2.667c-26.88,29.376-61.205,45.547-96.64,45.547v128h85.333v-53.333
			c0-5.888,4.779-10.667,10.667-10.667h64c5.888,0,10.667,4.779,10.667,10.667v53.333h74.667c0.149,0,0.32,0,0.427,0
			c5.888,0,10.667-4.779,10.667-10.667C512.416,499.771,511.99,498.086,511.222,496.614z M446.198,422.118
			c-2.048,3.093-5.44,4.757-8.875,4.757c-2.048,0-4.096-0.576-5.909-1.792l-64-42.667c-4.885-3.264-6.229-9.877-2.965-14.784
			c3.285-4.928,9.941-6.229,14.784-2.965l64,42.667C448.139,410.598,449.483,417.211,446.198,422.118z"/>
	</g>
</g>
<g>
</g>
<g>
</g>
<g>
</g>
<g>
</g>
<g>
</g>
<g>
</g>
<g>
</g>
<g>
</g>
<g>
</g>
<g>
</g>
<g>
</g>
<g>
</g>
<g>
</g>
<g>
</g>
<g>
</g>
</svg>
