<?xml version="1.0" encoding="iso-8859-1"?>
<!-- Generator: Adobe Illustrator 19.0.0, SVG Export Plug-In . SVG Version: 6.00 Build 0)  -->
<svg version="1.1" id="Capa_1" xmlns="http://www.w3.org/2000/svg" xmlns:xlink="http://www.w3.org/1999/xlink" x="0px" y="0px"
	 viewBox="0 0 511.993 511.993" style="enable-background:new 0 0 511.993 511.993;" xml:space="preserve">
<g>
	<g>
		<path d="M394.663,0h-192c-17.643,0-32,14.357-32,32v42.667c0,17.643,14.357,32,32,32h192c17.643,0,32-14.357,32-32V32
			C426.663,14.357,412.306,0,394.663,0z"/>
	</g>
</g>
<g>
	<g>
		<path d="M298.663,298.667c-11.051,0-21.44,4.395-29.312,11.883c7.659,5.824,17.941,9.451,29.312,9.451s21.653-3.627,29.312-9.451
			C320.124,303.061,309.735,298.667,298.663,298.667z"/>
	</g>
</g>
<g>
	<g>
		<path d="M339.047,275.413c-0.363-0.875-0.597-1.771-0.704-2.688l-15.552-44.629c-0.299-0.448-0.555-0.939-0.789-1.451
			c-3.456-7.979-12.843-13.312-23.339-13.312c-10.496,0-19.883,5.333-23.339,13.312c-0.235,0.555-0.512,1.088-0.853,1.579
			l-15.36,44.224c-0.107,0.896-0.363,1.792-0.725,2.645c-1.6,3.84-2.389,7.381-2.389,10.773c0,2.432,0.341,4.779,0.939,7.061
			c11.499-9.899,26.219-15.595,41.728-15.595s30.229,5.696,41.728,15.595c0.597-2.283,0.939-4.629,0.939-7.061
			C341.33,282.645,340.583,279.211,339.047,275.413z M319.143,249.387c-0.448,1.28-1.301,2.56-2.347,3.413
			c-1.92,2.133-4.693,3.2-7.467,3.2c-1.301,0-2.773-0.213-4.053-0.853c-1.28-0.427-2.56-1.28-3.413-2.347
			c-2.133-1.92-3.2-4.693-3.2-7.467c0,1.28-0.213,2.773-0.853,4.053c-0.427,1.28-1.28,2.56-2.347,3.413
			c-0.853,1.067-2.133,1.92-3.413,2.347c-1.28,0.64-2.773,0.853-4.053,0.853c-1.493,0-2.773-0.213-4.053-0.853
			c-1.28-0.427-2.56-1.28-3.413-2.347c-2.133-1.92-3.2-4.693-3.2-7.467c0-1.493,0.213-2.773,0.853-4.053
			c0.427-1.28,1.28-2.56,2.347-3.413c0.853-1.067,2.133-1.92,3.413-2.347c2.56-1.067,5.547-1.067,8.107,0
			c1.28,0.427,2.56,1.28,3.413,2.347c1.067,0.853,1.92,2.133,2.347,3.413c0.64,1.28,0.853,2.773,0.853,4.053
			c0-1.493,0.213-2.773,0.853-4.053c0.427-1.28,1.28-2.56,2.325-3.413c0.853-1.067,2.155-1.92,3.413-2.347
			c3.861-1.707,8.533-0.64,11.52,2.347c2.155,1.92,3.221,4.693,3.221,7.467C319.996,246.613,319.783,248.107,319.143,249.387z"/>
	</g>
</g>
<g>
	<g>
		<path d="M106.919,348.757c-9.899,12.843-17.088,27.648-19.947,43.648c-12.437,69.973,47.616,130.176,117.632,118.016
			c16.128-2.795,31.04-10.027,43.947-20.032C229.692,421.717,175.591,367.637,106.919,348.757z"/>
	</g>
</g>
<g>
	<g>
		<path d="M191.996,128v129.835c0,2.837-1.131,5.547-3.115,7.531l-65.877,65.856c67.52,22.165,120.917,75.563,143.104,143.083
			c30.315-30.315,86.421-86.421,117.44-117.419c13.973-13.995,21.781-32.917,21.781-52.715V128H191.996z M340.498,215.872
			c0.683,0.853,1.216,1.835,1.621,2.901l2.325-2.325c4.16-4.16,10.923-4.16,15.083,0c4.16,4.16,4.16,10.923,0,15.083l-9.6,9.6
			l9.301,26.752c0.213,0.619,0.363,1.237,0.448,1.856c2.005,5.547,2.987,10.837,2.987,16.128c0,11.499-4.075,22.187-11.008,31.061
			c-0.107,0.149-0.277,0.256-0.384,0.405c-11.563,14.464-30.805,24-52.608,24c-21.867,0-41.195-9.579-52.736-24.128
			c-0.064-0.107-0.192-0.171-0.256-0.277c-6.933-8.875-11.008-19.563-11.008-31.061c0-5.589,1.045-11.136,3.221-16.875
			c0.085-0.512,0.235-1.045,0.405-1.557l9.131-26.283l-9.643-9.6c-4.16-4.16-4.16-10.923,0-15.083c4.16-4.16,10.923-4.16,15.083,0
			l2.325,2.325c0.427-1.173,1.003-2.24,1.771-3.157c0.896-1.707,2.261-3.072,3.371-4.608c-5.653-4.245-10.581-9.301-14.507-15.061
			c-0.064-0.064-0.149-0.107-0.192-0.171c-0.043-0.064-0.043-0.128-0.085-0.192c-6.933-10.325-10.88-22.635-10.88-35.605
			c0-5.888,4.779-10.667,10.667-10.667s10.667,4.779,10.667,10.667c0,2.197,0.619,4.245,0.939,6.357
			c1.664-3.733,5.376-6.357,9.728-6.357c5.888,0,10.667,4.779,10.667,10.667c0,7.147-2.923,13.888-8,19.84
			c2.539,2.453,5.44,4.459,8.597,6.229c6.315-2.837,13.248-4.736,20.736-4.736c7.488,0,14.421,1.899,20.757,4.757
			c3.136-1.771,6.037-3.797,8.597-6.251c-5.099-5.952-8.021-12.693-8.021-19.84c0-5.888,4.779-10.667,10.667-10.667
			c4.352,0,8.064,2.624,9.728,6.357c0.32-2.112,0.939-4.16,0.939-6.357c0-5.888,4.779-10.667,10.667-10.667
			s10.667,4.779,10.667,10.667c0,12.971-3.968,25.28-10.901,35.605c-0.043,0.064-0.043,0.128-0.085,0.171
			c-0.043,0.085-0.149,0.107-0.192,0.171c-3.925,5.76-8.853,10.795-14.507,15.04C338.151,212.629,339.58,214.08,340.498,215.872z"/>
	</g>
</g>
<g>
</g>
<g>
</g>
<g>
</g>
<g>
</g>
<g>
</g>
<g>
</g>
<g>
</g>
<g>
</g>
<g>
</g>
<g>
</g>
<g>
</g>
<g>
</g>
<g>
</g>
<g>
</g>
<g>
</g>
</svg>
