<?xml version="1.0" encoding="iso-8859-1"?>
<!-- Generator: Adobe Illustrator 19.0.0, SVG Export Plug-In . SVG Version: 6.00 Build 0)  -->
<svg version="1.1" id="Capa_1" xmlns="http://www.w3.org/2000/svg" xmlns:xlink="http://www.w3.org/1999/xlink" x="0px" y="0px"
	 viewBox="0 0 512 512" style="enable-background:new 0 0 512 512;" xml:space="preserve">
<g>
	<g>
		<path d="M418.88,344.021l-54.869-19.093c-4.011-1.365-8.491-0.277-11.371,2.859c-26.88,29.376-61.205,45.547-96.64,45.547
			s-69.76-16.171-96.619-45.525c-2.901-3.136-7.36-4.245-11.371-2.859l-54.869,19.093C37.419,363.392,0,416.021,0,475.008v15.659
			c0,5.888,4.779,10.667,10.667,10.667h490.667c5.888,0,10.667-4.779,10.667-10.667v-15.659
			C512,416.021,474.581,363.392,418.88,344.021z"/>
	</g>
</g>
<g>
	<g>
		<path d="M224,181.333h-21.333c-5.888,0-10.667,4.779-10.667,10.667s4.779,10.667,10.667,10.667H224
			c5.888,0,10.667-4.779,10.667-10.667S229.888,181.333,224,181.333z"/>
	</g>
</g>
<g>
	<g>
		<path d="M309.333,181.333H288c-5.888,0-10.667,4.779-10.667,10.667s4.779,10.667,10.667,10.667h21.333
			c5.888,0,10.667-4.779,10.667-10.667S315.221,181.333,309.333,181.333z"/>
	</g>
</g>
<g>
	<g>
		<path d="M383.893,142.059c0.064-1.131,0.107-2.261,0.107-3.392c0-70.592-57.408-128-128-128s-128,57.408-128,128
			c0,0.917,0.021,1.856,0.085,2.773c-12.736,6.955-21.419,26.389-21.419,50.56c0,29.675,13.099,52.224,30.677,53.291
			C156.736,309.547,203.435,352,256,352s99.264-42.453,118.656-106.709c17.579-1.067,30.677-23.616,30.677-53.291
			C405.333,168.405,397.035,149.312,383.893,142.059z M372.715,223.531c-2.901-1.792-6.507-2.112-9.643-0.832
			c-3.157,1.301-5.504,4.011-6.336,7.317C341.781,290.219,301.312,330.667,256,330.667s-85.781-40.448-100.715-100.651
			c-0.853-3.328-3.52-5.803-6.656-7.083c-1.195-0.491-2.453-0.704-3.755-0.704c-2.197,0-4.395,0.64-6.208,1.771
			C136.021,224,128,212.651,128,192c0-19.563,7.189-30.763,10.197-31.915c0.107,0.021,0.213,0.043,0.32,0.043
			c3.115,0.299,6.357-0.811,8.619-3.072c2.261-2.283,3.392-5.461,3.051-8.64l-0.299-2.667c-0.256-2.325-0.555-4.672-0.555-7.083
			C149.333,79.851,197.184,32,256,32s106.667,47.851,106.667,106.667c0,2.411-0.299,4.757-0.576,7.061l-0.299,2.667
			c-0.32,3.2,0.811,6.379,3.051,8.64c2.261,2.283,5.44,3.392,8.619,3.093c0.107-0.021,0.213-0.021,0.32-0.043
			C376.811,161.237,384,172.437,384,192C384,212.608,376.149,224.043,372.715,223.531z"/>
	</g>
</g>
<g>
</g>
<g>
</g>
<g>
</g>
<g>
</g>
<g>
</g>
<g>
</g>
<g>
</g>
<g>
</g>
<g>
</g>
<g>
</g>
<g>
</g>
<g>
</g>
<g>
</g>
<g>
</g>
<g>
</g>
</svg>
