<?xml version="1.0" encoding="iso-8859-1"?>
<!-- Generator: Adobe Illustrator 19.0.0, SVG Export Plug-In . SVG Version: 6.00 Build 0)  -->
<svg version="1.1" id="Capa_1" xmlns="http://www.w3.org/2000/svg" xmlns:xlink="http://www.w3.org/1999/xlink" x="0px" y="0px"
	 viewBox="0 0 512.003 512.003" style="enable-background:new 0 0 512.003 512.003;" xml:space="preserve">
<g>
	<g>
		<path d="M506.112,353.132c-5.248-2.603-11.669-0.491-14.315,4.779l-4.779,9.557c-1.813,3.627-5.461,5.867-9.536,5.867h-14.4
			l-47.915-47.915c21.397-4.309,42.368-11.157,62.251-21.141l29.419-17.835c2.624-1.6,4.437-4.245,4.971-7.253
			s-0.256-6.144-2.176-8.533l-46.891-58.624c-7.872-9.856-17.024-18.261-26.944-25.493
			c-39.083-70.208-102.741-69.184-105.429-69.205c-3.221,0.085-6.251,1.643-8.213,4.224c-1.963,2.581-2.624,5.888-1.856,9.024
			l7.552,30.229c-0.96,0.277-2.005,0.277-2.837,0.811l-11.307,7.061l-16.853-25.28c-1.963-2.965-5.291-4.736-8.853-4.736h-21.333
			c-5.888,0-10.667,4.779-10.667,10.667s4.779,10.667,10.667,10.667h15.616l13.333,19.989l-49.984,31.232
			C251.968,217.09,256,225.388,256,234.668c0,17.643-14.357,32-32,32H32c-5.547,0-10.688-1.536-15.232-4.032L1.131,293.911
			c-1.6,3.2-1.493,6.997,0.299,10.112c1.792,3.115,5.013,5.099,8.597,5.312l45.141,2.752l-32.491,12.992
			C8.896,330.562,0,343.703,0,358.615c0,19.861,16.171,36.053,36.053,36.053H193.92c22.464,0,40.747-18.261,40.747-40.875
			c0-10.88-4.245-21.12-11.947-28.821l-2.88-2.88l134.229,8.171c4.267,0.235,8.512,0.341,12.779,0.341
			c7.381,0,14.72-0.619,22.059-1.28l44.011,44.011h-38.251c-5.888,0-10.667,4.779-10.667,10.667c0,5.888,4.779,10.667,10.667,10.667
			h82.816c12.203,0,23.189-6.784,28.629-17.685l4.779-9.536C513.493,362.178,511.381,355.778,506.112,353.132z M169.408,346.37
			c-1.856,3.456-5.461,5.632-9.408,5.632H96c-5.888,0-10.667-4.779-10.667-10.667S90.112,330.668,96,330.668h44.075l-10.283-15.424
			c-3.264-4.885-1.941-11.52,2.965-14.784c4.885-3.285,11.541-1.941,14.784,2.965l21.333,32
			C171.051,338.69,171.264,342.892,169.408,346.37z M354.475,160.002h-4.821l-4.907-19.691c12.032,2.539,30.272,9.131,47.787,25.173
			C380.309,162.007,367.573,160.002,354.475,160.002z"/>
	</g>
</g>
<g>
	<g>
		<path d="M213.333,202.668H42.667c-11.776,0-21.333,9.557-21.333,21.333s9.557,21.333,21.333,21.333h170.667
			c11.776,0,21.333-9.557,21.333-21.333S225.109,202.668,213.333,202.668z"/>
	</g>
</g>
<g>
</g>
<g>
</g>
<g>
</g>
<g>
</g>
<g>
</g>
<g>
</g>
<g>
</g>
<g>
</g>
<g>
</g>
<g>
</g>
<g>
</g>
<g>
</g>
<g>
</g>
<g>
</g>
<g>
</g>
</svg>
