<?xml version="1.0" encoding="iso-8859-1"?>
<!-- Generator: Adobe Illustrator 19.0.0, SVG Export Plug-In . SVG Version: 6.00 Build 0)  -->
<svg version="1.1" id="Capa_1" xmlns="http://www.w3.org/2000/svg" xmlns:xlink="http://www.w3.org/1999/xlink" x="0px" y="0px"
	 viewBox="0 0 512.01 512.01" style="enable-background:new 0 0 512.01 512.01;" xml:space="preserve">
<g>
	<g>
		<path d="M458.014,338.164c-12.544-37.888-31.509-95.125-31.509-167.488c0-93.931-76.288-170.389-170.176-170.667
			c-0.107,0-0.213,0-0.32,0c-0.107,0-0.213-0.021-0.32,0C161.822,0.287,85.513,76.746,85.513,170.676
			c0,71.403-18.88,128.704-31.381,166.635c-10.325,31.339-16,48.576-7.723,60.032c2.645,3.584,7.808,7.829,17.429,7.957v64.043
			c-5.888,0-10.667,4.779-10.667,10.667c0,5.888,4.779,10.667,10.667,10.667v10.667c0,5.888,4.779,10.667,10.667,10.667
			s10.667-4.779,10.667-10.667v-10.667c5.888,0,10.667-4.779,10.667-10.667c0-5.888-4.779-10.667-10.667-10.667v-69.013
			c40.683-19.989,57.771-95.253,62.741-122.987h216.192c4.992,27.648,21.973,102.592,62.379,122.859v69.141
			c-5.888,0-10.667,4.779-10.667,10.667c0,5.888,4.8,10.667,10.688,10.667v10.667c0,5.888,4.779,10.667,10.667,10.667
			c5.888,0,10.667-4.779,10.667-10.667v-10.667c5.888,0,10.667-4.779,10.667-10.667c0-5.888-4.779-10.667-10.667-10.667v-64
			c9.941,0,15.168-4.352,17.792-8C473.843,385.993,468.211,368.991,458.014,338.164z M383.838,245.343
			c0,5.888-4.8,10.667-10.667,10.667H138.505c-5.888,0-10.667-4.779-10.667-10.667v-42.667c0-5.888,4.779-10.667,10.667-10.667
			h234.667c5.867,0,10.667,4.779,10.667,10.667V245.343z"/>
	</g>
</g>
<g>
</g>
<g>
</g>
<g>
</g>
<g>
</g>
<g>
</g>
<g>
</g>
<g>
</g>
<g>
</g>
<g>
</g>
<g>
</g>
<g>
</g>
<g>
</g>
<g>
</g>
<g>
</g>
<g>
</g>
</svg>
