<?xml version="1.0" encoding="iso-8859-1"?>
<!-- Generator: Adobe Illustrator 19.0.0, SVG Export Plug-In . SVG Version: 6.00 Build 0)  -->
<svg version="1.1" id="Capa_1" xmlns="http://www.w3.org/2000/svg" xmlns:xlink="http://www.w3.org/1999/xlink" x="0px" y="0px"
	 viewBox="0 0 511.312 511.312" style="enable-background:new 0 0 511.312 511.312;" xml:space="preserve">
<g>
	<g>
		<path d="M484.989,363.387c-0.853-0.619-84.992-63.808-179.072-157.867C232.979,132.56,148.563,27.109,146.92,25.168
			c-33.536-33.557-88.171-33.557-121.749,0C-8.387,58.747-8.387,113.36,26.301,147.899c0.832,0.64,84.736,64.32,178.837,158.4
			c72.96,72.96,157.653,177.941,159.253,179.84c16.789,16.789,38.827,25.173,60.885,25.173c22.059,0,44.075-8.384,60.885-25.173
			C519.699,452.56,519.699,397.947,484.989,363.387z M211.475,165.136c-2.859,9.088-9.515,19.328-18.261,28.075
			c-8.747,8.747-18.987,15.424-28.075,18.261c-6.592,2.048-12.032,1.984-14.229-0.235c-2.176-2.176-2.261-7.744-0.213-14.208
			c2.859-9.088,9.515-19.328,18.261-28.075s18.987-15.424,28.075-18.261c3.115-0.981,6.016-1.472,8.427-1.472
			c2.603,0,4.651,0.576,5.781,1.707C213.459,153.147,213.523,158.587,211.475,165.136z M360.893,314.576
			c-2.859,9.088-9.515,19.328-18.261,28.075c-8.747,8.747-19.008,15.424-28.075,18.261c-6.464,2.048-12.053,1.92-14.208-0.235
			c-2.176-2.176-2.283-7.744-0.235-14.208c2.859-9.088,9.515-19.328,18.261-28.075c8.747-8.747,19.008-15.424,28.075-18.261
			c3.115-0.981,5.995-1.451,8.427-1.451c2.603,0,4.672,0.555,5.781,1.685C362.835,302.544,362.92,308.112,360.893,314.576z"/>
	</g>
</g>
<g>
</g>
<g>
</g>
<g>
</g>
<g>
</g>
<g>
</g>
<g>
</g>
<g>
</g>
<g>
</g>
<g>
</g>
<g>
</g>
<g>
</g>
<g>
</g>
<g>
</g>
<g>
</g>
<g>
</g>
</svg>
