<?xml version="1.0" encoding="iso-8859-1"?>
<!-- Generator: Adobe Illustrator 19.0.0, SVG Export Plug-In . SVG Version: 6.00 Build 0)  -->
<svg version="1.1" id="Capa_1" xmlns="http://www.w3.org/2000/svg" xmlns:xlink="http://www.w3.org/1999/xlink" x="0px" y="0px"
	 viewBox="0 0 512.007 512.007" style="enable-background:new 0 0 512.007 512.007;" xml:space="preserve">
<g>
	<g>
		<path d="M506.82,406.855l-101.867-61.12L383.982,10.012c-0.256-4.181-2.944-7.829-6.869-9.323
			c-3.925-1.472-8.363-0.533-11.307,2.432l-36.715,36.715c-12.309-6.869-38.336-18.496-73.088-18.496s-60.779,11.627-73.088,18.496
			L146.222,3.122c-2.987-2.987-7.403-3.904-11.307-2.432c-3.925,1.493-6.613,5.12-6.869,9.323l-20.992,335.723L5.188,406.855
			c-3.221,1.941-5.184,5.397-5.184,9.152v85.333c0,5.888,4.779,10.667,10.667,10.667h490.667c5.888,0,10.667-4.779,10.667-10.667
			v-85.333C512.004,412.253,510.041,408.797,506.82,406.855z M171.801,155.228c2.645-5.269,9.045-7.381,14.315-4.757l21.12,10.56
			c0.128,0.064,0.277,0.128,0.384,0.192l21.141,10.581c4.437,2.219,6.741,7.168,5.611,11.989s-5.419,8.213-10.368,8.213H202.67
			c-5.888,0-10.667-4.779-10.667-10.667v-4.075l-15.445-7.723C171.289,166.919,169.156,160.498,171.801,155.228z M284.782,341.34
			h-57.536l-55.083-36.715l16.853-67.349l64.064,18.304c1.92,0.533,3.947,0.533,5.845,0l64.064-18.304l16.853,67.349L284.782,341.34
			z M335.449,169.543l-16.107,8.043c0.427,1.173,0.661,2.432,0.661,3.755c0,5.888-4.779,10.667-10.667,10.667h-21.333
			c-4.949,0-9.259-3.413-10.389-8.213c-1.131-4.8,1.195-9.771,5.611-11.989l42.667-21.333c5.291-2.624,11.669-0.491,14.315,4.779
			C342.852,160.498,340.718,166.919,335.449,169.543z"/>
	</g>
</g>
<g>
	<g>
		<path d="M277.337,277.34H234.67c-5.888,0-10.667,4.779-10.667,10.667s4.779,10.667,10.667,10.667h42.667
			c5.888,0,10.667-4.779,10.667-10.667S283.225,277.34,277.337,277.34z"/>
	</g>
</g>
<g>
</g>
<g>
</g>
<g>
</g>
<g>
</g>
<g>
</g>
<g>
</g>
<g>
</g>
<g>
</g>
<g>
</g>
<g>
</g>
<g>
</g>
<g>
</g>
<g>
</g>
<g>
</g>
<g>
</g>
</svg>
