<?xml version="1.0" encoding="iso-8859-1"?>
<!-- Generator: Adobe Illustrator 19.0.0, SVG Export Plug-In . SVG Version: 6.00 Build 0)  -->
<svg version="1.1" id="Capa_1" xmlns="http://www.w3.org/2000/svg" xmlns:xlink="http://www.w3.org/1999/xlink" x="0px" y="0px"
	 viewBox="0 0 512.1 512.1" style="enable-background:new 0 0 512.1 512.1;" xml:space="preserve">
<g>
	<g>
		<path d="M418.9,354.7L364,335.6c-4-1.4-8.5-0.3-11.4,2.9C325.8,367.8,291.4,384,256,384c-35.4,0-69.8-16.2-96.6-45.5
			c-2.9-3.1-7.4-4.3-11.4-2.9l-54.9,19.1C37.4,374,0,426.7,0,485.7v15.7c0,5.9,4.8,10.7,10.7,10.7h490.7c5.9,0,10.7-4.8,10.7-10.7
			v-15.7C512,426.7,474.6,374.1,418.9,354.7z"/>
	</g>
</g>
<g>
	<g>
		<path d="M224,170.6h-21.3c-5.9,0-10.7,4.8-10.7,10.7s4.8,10.7,10.7,10.7H224c5.9,0,10.7-4.8,10.7-10.7S229.9,170.6,224,170.6z"/>
	</g>
</g>
<g>
	<g>
		<path d="M309.3,170.6H288c-5.9,0-10.7,4.8-10.7,10.7S282.1,192,288,192h21.3c5.9,0,10.7-4.8,10.7-10.7S315.2,170.6,309.3,170.6z"
			/>
	</g>
</g>
<g>
	<g>
		<path d="M383.5,108.5C378.4,61.3,333.5,0,256,0S133.6,61.3,128.5,108.5c-10.8,3.6-21.8,12.9-21.8,30.2c0,22.7,18.9,31.6,31.7,32
			c1.7,0,3.1-0.2,4.5-0.9c0.5-0.2,48.8-20.5,113.2-20.5s112.7,20.3,113.2,20.5c1.3,0.6,2.8,0.9,4.2,0.9c0.1,0,0.2,0,0.3,0
			c12.7-0.4,31.7-9.3,31.7-32C405.3,121.3,394.3,112.1,383.5,108.5z M256,106.7c-42.7,0-82.2,10.2-82.6,10.3
			c-0.9,0.2-1.8,0.3-2.7,0.3c-4.7,0-9.1-3.2-10.3-8c-1.5-5.7,1.9-11.5,7.6-13c1.7-0.4,42.5-11,88-11c5.9,0,10.7,4.8,10.7,10.7
			C266.7,101.9,261.9,106.7,256,106.7z"/>
	</g>
</g>
<g>
	<g>
		<path d="M373.8,149.3h-0.1c-5.3-0.6-9.7,2.5-11.2,7.3c5.7,7,9.4,15.6,10.4,25c0.2-0.8,0.5-1.5,0.7-2.3
			c-5.5,26.7-31.2,55.3-74.7,55.3c-18.5,0-19.4-3.5-21.8-13.2c-1.2-4.8-5.4-8.1-10.3-8.1h-21.3c-4.9,0-9.3,3.9-10.5,8.7
			c-2.3,9.2-3.1,12.7-21.5,12.7c-56.1-0.2-74.4-53.8-74.2-53.1c1-9.5,4.7-18,10.4-25c-1.5-4.8-6-7.9-11.2-7.3h-0.1
			c-18,0.4-31.5,23.2-31.5,53.3c0,29.7,13.1,52.2,30.7,53.3c19.4,64.3,66.1,106.7,118.7,106.7s99.3-42.5,118.7-106.7
			c17.6-1.1,30.7-23.6,30.7-53.3C405.3,172.5,391.8,149.7,373.8,149.3z"/>
	</g>
</g>
<g>
</g>
<g>
</g>
<g>
</g>
<g>
</g>
<g>
</g>
<g>
</g>
<g>
</g>
<g>
</g>
<g>
</g>
<g>
</g>
<g>
</g>
<g>
</g>
<g>
</g>
<g>
</g>
<g>
</g>
</svg>
