<?xml version="1.0" encoding="iso-8859-1"?>
<!-- Generator: Adobe Illustrator 19.0.0, SVG Export Plug-In . SVG Version: 6.00 Build 0)  -->
<svg version="1.1" id="Capa_1" xmlns="http://www.w3.org/2000/svg" xmlns:xlink="http://www.w3.org/1999/xlink" x="0px" y="0px"
	 viewBox="0 0 512 512" style="enable-background:new 0 0 512 512;" xml:space="preserve">
<g>
	<g>
		<path d="M418.88,354.688l-54.869-19.093c-4.011-1.387-8.469-0.277-11.371,2.859C325.739,367.829,291.413,384,256,384
			s-69.739-16.171-96.64-45.525c-2.901-3.136-7.36-4.245-11.371-2.859L93.12,354.709C37.419,374.059,0,426.688,0,485.675v15.659
			C0,507.221,4.779,512,10.667,512h490.667c5.888,0,10.667-4.779,10.667-10.667v-15.659C512,426.688,474.581,374.059,418.88,354.688
			z"/>
	</g>
</g>
<g>
	<g>
		<path d="M224,192h-21.333c-5.888,0-10.667,4.779-10.667,10.667s4.779,10.667,10.667,10.667H224
			c5.888,0,10.667-4.779,10.667-10.667S229.888,192,224,192z"/>
	</g>
</g>
<g>
	<g>
		<path d="M309.333,192H288c-5.888,0-10.667,4.779-10.667,10.667s4.779,10.667,10.667,10.667h21.333
			c5.888,0,10.667-4.779,10.667-10.667S315.221,192,309.333,192z"/>
	</g>
</g>
<g>
	<g>
		<path d="M383.893,152.725c0.064-1.131,0.107-2.261,0.107-3.392c0-59.563-40.491-110.72-98.453-124.437
			c-5.739-1.387-11.499,2.176-12.843,7.915c-1.365,5.739,2.176,11.499,7.915,12.843c48.299,11.435,82.048,54.059,82.048,103.68
			c0,2.411-0.299,4.736-0.555,7.061l-0.299,2.667c-0.32,3.2,0.789,6.379,3.051,8.64c2.283,2.283,5.461,3.349,8.619,3.093
			c0.085-0.021,0.213-0.021,0.32-0.043c3.008,1.152,10.197,12.352,10.197,31.915c0,20.651-7.829,32-11.328,31.531
			c-2.923-1.792-6.464-2.112-9.643-0.811c-3.136,1.28-5.483,3.989-6.315,7.296C341.781,300.885,301.312,341.333,256,341.333
			s-85.781-40.448-100.715-100.651c-0.832-3.307-3.499-5.76-6.656-7.061c-3.136-1.301-7.04-0.768-9.963,1.045
			c-2.667,0-10.667-11.349-10.667-32c0-19.563,7.189-30.763,10.197-31.915c0.107,0.021,0.235,0.043,0.32,0.043
			c3.136,0.235,6.357-0.832,8.619-3.072c2.261-2.283,3.392-5.461,3.051-8.64l-0.299-2.667c-0.256-2.347-0.555-4.672-0.555-7.083
			c0-49.621,33.749-92.245,82.048-103.68c5.717-1.365,9.28-7.104,7.915-12.843c-1.365-5.717-7.168-9.28-12.843-7.915
			C168.491,38.613,128,89.771,128,149.333c0,0.917,0.021,1.856,0.064,2.773c-12.715,6.955-21.397,26.389-21.397,50.56
			c0,29.675,13.099,52.224,30.677,53.291C156.736,320.213,203.435,362.667,256,362.667s99.264-42.453,118.656-106.709
			c17.579-1.067,30.677-23.616,30.677-53.291C405.333,179.072,397.056,159.979,383.893,152.725z"/>
	</g>
</g>
<g>
	<g>
		<path d="M296.256,3.904C294.229,1.429,291.2,0,288,0h-64c-3.2,0-6.229,1.429-8.256,3.904c-2.005,2.475-2.837,5.717-2.197,8.853
			l21.333,106.667c1.003,4.992,5.376,8.576,10.453,8.576h21.333c5.077,0,9.451-3.584,10.453-8.576l21.333-106.667
			C299.093,9.621,298.261,6.379,296.256,3.904z"/>
	</g>
</g>
<g>
</g>
<g>
</g>
<g>
</g>
<g>
</g>
<g>
</g>
<g>
</g>
<g>
</g>
<g>
</g>
<g>
</g>
<g>
</g>
<g>
</g>
<g>
</g>
<g>
</g>
<g>
</g>
<g>
</g>
</svg>
