<?xml version="1.0" encoding="iso-8859-1"?>
<!-- Generator: Adobe Illustrator 19.0.0, SVG Export Plug-In . SVG Version: 6.00 Build 0)  -->
<svg version="1.1" id="Capa_1" xmlns="http://www.w3.org/2000/svg" xmlns:xlink="http://www.w3.org/1999/xlink" x="0px" y="0px"
	 viewBox="0 0 512.001 512.001" style="enable-background:new 0 0 512.001 512.001;" xml:space="preserve">
<g>
	<g>
		<path d="M401.184,175.659c-1.856-5.568-7.893-8.619-13.483-6.763c-5.589,1.856-8.619,7.893-6.763,13.483
			c2.005,5.973,3.051,12.992,3.051,20.288c0,20.715-7.531,32.064-11.328,31.531c-2.88-1.813-6.464-2.133-9.643-0.853
			s-5.547,3.989-6.357,7.317C341.75,300.886,301.28,341.334,255.99,341.334s-85.76-40.448-100.672-100.672
			c-0.811-3.328-3.52-5.781-6.677-7.083c-3.136-1.259-7.061-0.725-9.984,1.088c-2.645,0-10.667-11.349-10.667-32
			c0-7.296,1.045-14.315,3.029-20.309c1.856-5.589-1.152-11.627-6.763-13.483c-5.611-1.856-11.648,1.195-13.483,6.763
			c-2.688,8.128-4.117,17.472-4.117,27.029c0,29.717,13.12,52.288,30.741,53.312c19.392,64.235,66.048,106.688,118.592,106.688
			s99.2-42.453,118.592-106.688c17.621-1.024,30.741-23.595,30.741-53.312C405.323,193.11,403.894,183.766,401.184,175.659z"/>
	</g>
</g>
<g>
	<g>
		<path d="M511.798,499.243l-14.613-73.024c-4.907-24.576-21.717-44.928-44.885-54.443l-87.744-35.968
			c-4.16-1.685-8.896-0.619-11.925,2.667C325.75,367.83,291.424,384,255.99,384s-69.76-16.171-96.619-45.525
			c-3.008-3.285-7.744-4.331-11.925-2.667l-87.744,35.968c-23.189,9.515-39.979,29.845-44.885,54.443L0.203,499.243
			c-0.619,3.136,0.192,6.379,2.219,8.853C4.448,510.571,7.478,512,10.656,512h490.667c3.179,0,6.229-1.429,8.256-3.904
			C511.606,505.622,512.416,502.379,511.798,499.243z"/>
	</g>
</g>
<g>
	<g>
		<path d="M255.99,0C173.494,0,85.323,47.638,85.323,181.334c0,5.888,4.779,10.667,10.667,10.667h21.333
			c3.563,0,6.891-1.771,8.875-4.757l16.896-25.323c13.803,3.52,45.653,8.747,112.896,8.747c56.043,0,82.837-3.413,95.552-8.363
			l36.715,27.563c1.835,1.387,4.096,2.133,6.4,2.133h21.333c5.888,0,10.667-4.779,10.667-10.667C426.656,47.638,338.486,0,255.99,0z
			"/>
	</g>
</g>
<g>
	<g>
		<path d="M175.648,299.883c-5.163-2.688-11.669-0.768-14.421,4.459l-19.157,36.352c-2.752,5.227-0.747,11.669,4.459,14.421
			c1.579,0.832,3.285,1.237,4.971,1.237c3.797,0,7.509-2.069,9.451-5.696l19.157-36.352
			C182.859,309.078,180.854,302.635,175.648,299.883z"/>
	</g>
</g>
<g>
	<g>
		<path d="M369.931,340.694l-19.157-36.352c-2.773-5.227-9.259-7.147-14.421-4.459c-5.205,2.752-7.211,9.195-4.459,14.421
			l19.157,36.352c1.899,3.627,5.611,5.696,9.429,5.696c1.707,0,3.413-0.384,4.992-1.237
			C370.678,352.363,372.683,345.92,369.931,340.694z"/>
	</g>
</g>
<g>
	<g>
		<path d="M319.99,149.334h-128c-26.709,0-42.667,19.947-42.667,53.333c0,29.397,23.915,53.333,53.333,53.333
			c20.565,0,41.259-5.504,53.333-17.344C268.064,250.496,288.758,256,309.323,256c29.419,0,53.333-23.936,53.333-53.333
			C362.656,169.28,346.699,149.334,319.99,149.334z"/>
	</g>
</g>
<g>
	<g>
		<path d="M266.656,277.334c-18.539,0-32,8.96-32,21.333c0,12.373,13.461,21.333,32,21.333c18.539,0,32-8.96,32-21.333
			C298.656,286.294,285.195,277.334,266.656,277.334z"/>
	</g>
</g>
<g>
	<g>
		<path d="M398.411,171.35c-5.547-2.048-11.968,0.597-14.016,6.123c-2.091,5.525,0.405,11.541,5.931,13.611
			c0.149,0.064,14.997,8.469,14.997,54.251c0,7.808-2.709,14.272-8.256,19.797C373.792,288.32,311.819,287.979,291.083,288h-3.115
			c-5.888,0-10.667,4.779-10.667,10.667s4.779,10.667,10.667,10.667h3.029c0.939,0,1.877,0,2.816,0
			c39.104,0,92.437-3.307,118.315-29.077c9.643-9.6,14.528-21.355,14.528-34.923C426.656,185.003,403.104,173.12,398.411,171.35z"/>
	</g>
</g>
<g>
</g>
<g>
</g>
<g>
</g>
<g>
</g>
<g>
</g>
<g>
</g>
<g>
</g>
<g>
</g>
<g>
</g>
<g>
</g>
<g>
</g>
<g>
</g>
<g>
</g>
<g>
</g>
<g>
</g>
</svg>
