<?xml version="1.0" encoding="iso-8859-1"?>
<!-- Generator: Adobe Illustrator 19.0.0, SVG Export Plug-In . SVG Version: 6.00 Build 0)  -->
<svg version="1.1" id="Capa_1" xmlns="http://www.w3.org/2000/svg" xmlns:xlink="http://www.w3.org/1999/xlink" x="0px" y="0px"
	 viewBox="0 0 512.495 512.495" style="enable-background:new 0 0 512.495 512.495;" xml:space="preserve">
<g>
	<g>
		<path d="M501.867,243.752L277.888,30.418c-12.395-11.819-31.765-11.819-44.139,0L13.888,239.592
			C1.813,251.112,0,272.616,0,284.434c0,30.464,17.237,35.008,27.52,35.008c5.141,0,9.92-2.709,14.955-7.083v167.915
			c0,5.888,4.779,10.667,10.667,10.667h235.349h106.667h63.317c5.888,0,10.667-4.779,10.667-10.667V304.424
			c8.832,10.987,14.336,15.979,20.992,15.979c18.219,0,20.352-22.4,21.632-35.776C512.853,273.149,514.496,255.784,501.867,243.752z
			 M447.787,469.629h-41.963v-0.021v-160c0-5.888-4.779-10.667-10.667-10.667H288.491c-5.888,0-10.667,4.779-10.667,10.667v160
			H63.787V288.274c0-0.277-0.128-0.491-0.149-0.768c0.555-0.747,1.003-1.301,1.579-2.069c9.365-12.608,19.989-26.901,27.627-31.552
			c1.365-0.555,6.208,0.299,9.088,0.789c9.152,1.536,30.571,5.184,36.501-19.776c0.469-2.027,0.981-4.459,1.536-7.147
			c1.515-7.317,5.035-24.448,8.875-28.096c5.333-5.12,14.165-8.875,23.531-12.864c10.688-4.544,21.739-9.259,29.888-17.024
			c5.696-5.419,10.453-14.848,15.979-25.771c4.331-8.576,12.416-24.555,17.771-26.837c1.579,1.024,4.075,7.083,5.419,10.325
			c3.776,9.131,9.472,22.933,24.171,22.933c13.995,0,23.019-5.397,28.971-8.96c1.664-1.003,3.989-2.389,4.352-2.411
			c9.323,5.952,13.227,14.891,17.792,25.259c4.395,10.027,9.365,21.376,19.883,30.955c13.952,12.736,23.872,13.888,32.811,13.973
			c3.435,0.021,3.499,0.085,4.181,0.747c4.928,4.693,11.84,17.195,17.92,28.245c7.467,13.568,14.528,26.368,21.803,33.344
			c9.515,9.045,19.669,10.709,27.84,12.053c2.453,0.405,4.587,0.811,6.635,1.323V469.629z"/>
	</g>
</g>
<g>
	<g>
		<path d="M224.469,298.941H117.803c-5.888,0-10.667,4.779-10.667,10.667v85.333c0,5.888,4.779,10.667,10.667,10.667h106.667
			c5.888,0,10.667-4.779,10.667-10.667v-85.333C235.136,303.72,230.379,298.941,224.469,298.941z"/>
	</g>
</g>
<g>
</g>
<g>
</g>
<g>
</g>
<g>
</g>
<g>
</g>
<g>
</g>
<g>
</g>
<g>
</g>
<g>
</g>
<g>
</g>
<g>
</g>
<g>
</g>
<g>
</g>
<g>
</g>
<g>
</g>
</svg>
