<?xml version="1.0" encoding="iso-8859-1"?>
<!-- Generator: Adobe Illustrator 19.0.0, SVG Export Plug-In . SVG Version: 6.00 Build 0)  -->
<svg version="1.1" id="Capa_1" xmlns="http://www.w3.org/2000/svg" xmlns:xlink="http://www.w3.org/1999/xlink" x="0px" y="0px"
	 viewBox="0 0 490.667 490.667" style="enable-background:new 0 0 490.667 490.667;" xml:space="preserve">
<g>
	<g>
		<circle cx="245.333" cy="53.333" r="53.333"/>
	</g>
</g>
<g>
	<g>
		<path d="M458.667,341.333H32c-17.643,0-32,14.357-32,32v64c0,29.419,23.936,53.333,53.333,53.333h384
			c29.419,0,53.333-23.915,53.333-53.333v-64C490.667,355.691,476.309,341.333,458.667,341.333z M64,437.333
			C64,443.221,59.221,448,53.333,448s-10.667-4.779-10.667-10.667v-42.667c0-5.888,4.779-10.667,10.667-10.667
			S64,388.779,64,394.667V437.333z M128,437.333c0,5.888-4.779,10.667-10.667,10.667s-10.667-4.779-10.667-10.667v-42.667
			c0-5.888,4.779-10.667,10.667-10.667S128,388.779,128,394.667V437.333z M192,437.333c0,5.888-4.779,10.667-10.667,10.667
			s-10.667-4.779-10.667-10.667v-42.667c0-5.888,4.779-10.667,10.667-10.667S192,388.779,192,394.667V437.333z M256,437.333
			c0,5.888-4.779,10.667-10.667,10.667s-10.667-4.779-10.667-10.667v-42.667c0-5.888,4.779-10.667,10.667-10.667
			S256,388.779,256,394.667V437.333z M320,437.333c0,5.888-4.779,10.667-10.667,10.667s-10.667-4.779-10.667-10.667v-42.667
			c0-5.888,4.779-10.667,10.667-10.667S320,388.779,320,394.667V437.333z M384,437.333c0,5.888-4.779,10.667-10.667,10.667
			c-5.888,0-10.667-4.779-10.667-10.667v-42.667c0-5.888,4.779-10.667,10.667-10.667c5.888,0,10.667,4.779,10.667,10.667V437.333z
			 M448,437.333c0,5.888-4.779,10.667-10.667,10.667c-5.888,0-10.667-4.779-10.667-10.667v-42.667
			c0-5.888,4.779-10.667,10.667-10.667c5.888,0,10.667,4.779,10.667,10.667V437.333z"/>
	</g>
</g>
<g>
	<g>
		<path d="M316.139,75.861C306.517,105.984,278.592,128,245.333,128s-61.184-22.016-70.805-52.139
			C83.797,106.112,21.333,191.595,21.333,288v32h448v-32C469.333,191.595,406.869,106.112,316.139,75.861z"/>
	</g>
</g>
<g>
</g>
<g>
</g>
<g>
</g>
<g>
</g>
<g>
</g>
<g>
</g>
<g>
</g>
<g>
</g>
<g>
</g>
<g>
</g>
<g>
</g>
<g>
</g>
<g>
</g>
<g>
</g>
<g>
</g>
</svg>
