<?xml version="1.0" encoding="iso-8859-1"?>
<!-- Generator: Adobe Illustrator 19.0.0, SVG Export Plug-In . SVG Version: 6.00 Build 0)  -->
<svg version="1.1" id="Capa_1" xmlns="http://www.w3.org/2000/svg" xmlns:xlink="http://www.w3.org/1999/xlink" x="0px" y="0px"
	 viewBox="0 0 512.005 512.005" style="enable-background:new 0 0 512.005 512.005;" xml:space="preserve">
<g>
	<g>
		<path d="M224.003,213.339h-21.333c-5.888,0-10.667,4.779-10.667,10.667s4.779,10.667,10.667,10.667h21.333
			c5.888,0,10.667-4.779,10.667-10.667S229.891,213.339,224.003,213.339z"/>
	</g>
</g>
<g>
	<g>
		<path d="M309.336,213.339h-21.333c-5.888,0-10.667,4.779-10.667,10.667s4.779,10.667,10.667,10.667h21.333
			c5.888,0,10.667-4.779,10.667-10.667S315.224,213.339,309.336,213.339z"/>
	</g>
</g>
<g>
	<g>
		<path d="M383.896,174.064c0.064-1.131,0.107-2.261,0.107-3.392c0-68.16-22.933-82.219-27.52-84.331
			c-5.376-2.539-12.011-0.341-14.464,5.035c-2.496,5.333-0.469,11.52,4.885,13.995c0.171,0.085,15.765,10.731,15.765,65.301
			c0,2.411-0.299,4.736-0.555,7.061l-0.299,2.667c-0.32,3.2,0.789,6.379,3.051,8.64c2.261,2.283,5.419,3.371,8.619,3.093
			c0.085-0.021,0.213-0.021,0.32-0.043c3.008,1.152,10.197,12.352,10.197,31.915c0,20.651-7.829,31.659-11.307,31.531
			c-2.901-1.813-6.485-2.091-9.643-0.811c-3.157,1.28-5.504,3.989-6.336,7.296c-14.933,60.203-55.403,100.651-100.715,100.651
			s-85.781-40.448-100.715-100.651c-0.832-3.307-3.499-5.76-6.656-7.061c-3.136-1.28-7.061-0.747-9.963,1.045
			c-2.667,0-10.667-11.349-10.667-32c0-19.541,7.189-30.763,10.197-31.915c0.107,0.021,0.235,0.043,0.32,0.043
			c3.179,0.256,6.357-0.811,8.619-3.072c2.261-2.283,3.392-5.461,3.051-8.64l-0.299-2.667c-0.256-2.347-0.555-4.672-0.555-7.083
			c0-54.016,15.296-64.981,15.147-64.981c5.333-2.475,7.68-8.811,5.205-14.165c-2.475-5.333-8.811-7.701-14.165-5.205
			c-4.587,2.133-27.52,16.192-27.52,84.352c0,0.939,0.021,1.856,0.064,2.773c-12.715,6.955-21.397,26.389-21.397,50.56
			c0,29.675,13.099,52.224,30.677,53.291c19.392,64.256,66.091,106.709,118.656,106.709s99.264-42.453,118.656-106.709
			c17.579-1.067,30.677-23.616,30.677-53.291C405.336,200.411,397.059,181.317,383.896,174.064z"/>
	</g>
</g>
<g>
	<g>
		<path d="M170.477,301.979c-6.592-12.395-11.691-25.813-15.189-39.957c-0.832-3.307-3.499-5.781-6.656-7.083
			c-3.136-1.259-7.061-0.725-9.963,1.067c-2.667,0-10.667-11.349-10.667-32c0-19.563,7.189-30.763,10.197-31.915
			c0.107,0.021,0.213,0.021,0.32,0.043c3.179,0.256,6.357-0.811,8.619-3.093c2.261-2.261,3.392-5.419,3.051-8.619l-0.299-2.667
			c-0.256-2.325-0.555-4.672-0.555-7.083c0-54.016,15.296-64.981,15.147-64.981c3.776-1.749,6.187-5.525,6.187-9.685
			c0-15.851-37.248-31.979-64-31.979c-35.435,0-85.333,23.147-85.333,74.645c0,11.499,11.648,11.499,21.931,11.499
			c1.643,0,3.371,0,5.163-0.021c-12.821,16.021-27.093,41.195-27.093,73.856c0,5.888,4.821,10.688,10.709,10.688
			c2.24,0,3.435,0,19.648-8.192c-5.611,20.587-4.885,46.165,14.997,68.565c10.411,11.755,18.091,16.768,25.707,16.768
			c4.715,0,8.96-2.048,11.947-5.76c1.707-2.133,2.88-4.8,3.669-7.808c12.288,11.221,29.739,21.739,51.989,21.739h2.325
			c0.149,0,0.277-0.021,0.427,0c5.888,0,10.667-4.779,10.667-10.667C173.421,306.48,172.312,303.899,170.477,301.979z"/>
	</g>
</g>
<g>
	<g>
		<path d="M468.739,150.171c10.283,0,21.931,0,21.931-11.499c0-51.477-49.899-74.645-85.333-74.645c-26.752,0-64,16.107-64,31.979
			c0,4.16,1.792,7.616,5.568,9.365c0.171,0.085,15.765,10.752,15.765,65.301c0,2.411-0.299,4.757-0.555,7.083l-0.299,2.667
			c-0.341,3.179,0.789,6.357,3.051,8.64c2.261,2.261,5.419,3.349,8.619,3.093c0.085,0,0.213-0.021,0.32-0.043
			c3.008,1.131,10.197,12.331,10.197,31.893c0,20.651-7.829,31.659-11.328,31.509c-2.901-1.792-6.464-2.091-9.643-0.811
			c-3.157,1.28-5.504,4.011-6.315,7.317c-3.712,14.976-9.237,29.163-16.405,42.176c-1.813,3.307-1.771,7.317,0.149,10.581
			c1.941,3.243,5.44,5.227,9.216,5.227h2.325c22.251,0,39.723-10.517,52.011-21.717c0.768,3.008,1.941,5.675,3.648,7.808
			c2.987,3.712,7.232,5.76,11.947,5.76c7.595,0,15.275-5.013,25.707-16.768c19.861-22.4,20.587-48,14.997-68.565
			c16.213,8.192,17.387,8.192,19.627,8.192c2.837,0,5.589-1.131,7.573-3.115c1.984-1.984,3.157-4.757,3.157-7.595
			c0-32.661-14.272-57.835-27.093-73.856C465.347,150.171,467.096,150.171,468.739,150.171z"/>
	</g>
</g>
<g>
	<g>
		<path d="M356.547,86.341c-1.941-0.896-48.107-22.336-100.544-22.336S157.4,85.445,155.459,86.341
			c-5.333,2.517-7.616,8.875-5.12,14.208c1.835,3.861,5.653,6.123,9.664,6.123c1.536,0,3.072-0.32,4.544-1.003
			c0.427-0.213,43.733-20.331,91.456-20.331c47.552,0,91.029,20.117,91.477,20.309c5.291,2.496,11.669,0.213,14.187-5.12
			C364.163,95.195,361.88,88.859,356.547,86.341z"/>
	</g>
</g>
<g>
	<g>
		<path d="M309.336,277.339c-5.888,0-10.667,4.779-10.667,10.667c0,17.941-18.731,32-42.667,32c-24.725,0-42.667-13.461-42.667-32
			c0-5.888-4.779-10.667-10.667-10.667s-10.667,4.779-10.667,10.667c0,30.4,27.52,53.333,64,53.333c35.883,0,64-23.424,64-53.333
			C320.003,282.117,315.224,277.339,309.336,277.339z"/>
	</g>
</g>
<g>
	<g>
		<path d="M202.669,170.672c-13.803,0-26.347,11.371-28.715,13.632c-4.245,4.096-4.395,10.837-0.32,15.083
			c2.091,2.197,4.907,3.285,7.701,3.285c2.667,0,5.333-0.981,7.381-2.965c2.709-2.603,9.813-7.701,13.952-7.701
			c5.888,0,10.667-4.779,10.667-10.667S208.557,170.672,202.669,170.672z"/>
	</g>
</g>
<g>
	<g>
		<path d="M338.051,184.304c-2.368-2.261-14.912-13.632-28.715-13.632c-5.888,0-10.667,4.779-10.667,10.667
			s4.779,10.667,10.667,10.667c3.797,0,10.56,4.48,13.973,7.723c2.069,1.963,4.715,2.923,7.36,2.923
			c2.795,0,5.611-1.109,7.701-3.307C342.424,195.099,342.296,188.379,338.051,184.304z"/>
	</g>
</g>
<g>
	<g>
		<circle cx="256.003" cy="256.005" r="21.333"/>
	</g>
</g>
<g>
	<g>
		<path d="M260.675,1.072c-2.965-1.429-6.379-1.429-9.344,0c-17.024,8.299-101.995,51.776-101.995,94.933
			c0,3.84,2.069,7.381,5.397,9.28c3.349,1.899,7.467,1.877,10.731-0.128c26.645-15.893,74.795-41.152,90.539-41.152
			s63.893,25.259,90.539,41.152c1.664,1.024,3.563,1.515,5.461,1.515c1.813,0,3.627-0.448,5.269-1.387
			c3.328-1.899,5.397-5.44,5.397-9.28C362.669,52.848,277.699,9.371,260.675,1.072z"/>
	</g>
</g>
<g>
	<g>
		<path d="M362.819,356.891c-3.669-0.811-7.573,0.085-10.176,2.923c-26.901,29.355-61.227,45.525-96.64,45.525
			s-69.739-16.171-96.64-45.525c-2.603-2.837-6.507-3.733-10.176-2.923c-0.085,10.069,1.536,38.997,21.931,61.312
			c18.091,19.776,46.656,29.803,84.885,29.803s66.795-10.027,84.885-29.803C361.304,395.867,362.925,366.96,362.819,356.891z"/>
	</g>
</g>
<g>
	<g>
		<path d="M423.661,377.755c-1.6-0.576-3.2-1.173-4.757-1.728l-34.944-12.16c-0.853,16.235-5.568,44.779-27.136,68.523
			c-22.293,24.512-56.213,36.949-100.821,36.949s-78.528-12.437-100.821-36.949c-21.568-23.744-26.283-52.288-27.136-68.501
			l-31.275,10.88c4.885,18.283,21.291,89.643-2.432,137.237h322.987C391.853,463.92,413.763,401.051,423.661,377.755z"/>
	</g>
</g>
<g>
	<g>
		<path d="M76.675,382.32C39.981,397.723,0.003,425.605,0.003,485.68v15.659c0,5.888,4.779,10.667,10.667,10.667h58.688
			C97.176,475.355,81.944,403.248,76.675,382.32z"/>
	</g>
</g>
<g>
	<g>
		<path d="M443.395,385.904c-9.259,22.037-31.765,86.336-0.768,126.101h58.709c5.888,0,10.667-4.779,10.667-10.667V485.68
			C512.003,430,477.656,401.989,443.395,385.904z"/>
	</g>
</g>
<g>
</g>
<g>
</g>
<g>
</g>
<g>
</g>
<g>
</g>
<g>
</g>
<g>
</g>
<g>
</g>
<g>
</g>
<g>
</g>
<g>
</g>
<g>
</g>
<g>
</g>
<g>
</g>
<g>
</g>
</svg>
