<?xml version="1.0" encoding="iso-8859-1"?>
<!-- Generator: Adobe Illustrator 19.0.0, SVG Export Plug-In . SVG Version: 6.00 Build 0)  -->
<svg version="1.1" id="Capa_1" xmlns="http://www.w3.org/2000/svg" xmlns:xlink="http://www.w3.org/1999/xlink" x="0px" y="0px"
	 viewBox="0 0 512 512" style="enable-background:new 0 0 512 512;" xml:space="preserve">
<g>
	<g>
		<path d="M512,308.587c0-78.357-67.584-184.171-111.68-211.712c-24.917-15.573-60.651-26.155-101.653-30.763v63.701
			c34.923,4.117,67.285,13.269,90.347,27.669c15.595,9.749,35.648,32.768,53.547,60.459c-47.851-17.643-110.4-26.688-186.56-26.688
			c-76.267,0-138.795,9.003-186.517,26.56c17.856-27.627,37.845-50.56,53.504-60.331c23.104-14.379,55.445-23.531,90.347-27.648
			V66.048c-40.597,4.544-76.544,15.189-101.653,30.827C67.584,124.352,0,230.144,0,308.587c0,0.171,0.085,0.299,0.085,0.469
			c0,0.448-0.085,0.853-0.085,1.301v40.896c0,52.928,43.072,96,96,96h57.792c20.416,0,40.192-8.491,54.229-23.339l34.837-36.843
			c2.027-2.432,5.013-3.84,8.192-3.84h9.899c3.179,0,6.165,1.387,8.64,4.331l34.389,36.331c14.037,14.869,33.792,23.36,54.229,23.36
			H416c52.928,0,96-43.072,96-96v-40.789c0-0.469-0.085-0.917-0.107-1.365C511.915,308.907,512,308.757,512,308.587z
			 M469.333,351.253c0,29.419-23.915,53.333-53.333,53.333h-57.792c-8.768,0-17.237-3.648-23.253-10.005l-33.707-35.605
			c-10.368-11.776-24.981-18.389-40.299-18.389h-9.899c-15.339,0-29.931,6.613-40.043,18.112l-33.963,35.904
			c-5.995,6.336-14.464,9.984-23.253,9.984H96c-29.397,0-53.333-23.915-53.333-53.333v-40.917c0-21.696,12.779-41.003,32.555-49.173
			C105.237,248.747,160.96,233.92,256,233.92s150.763,14.827,180.8,27.243c19.755,8.213,32.533,27.499,32.533,49.195V351.253z"/>
	</g>
</g>
<g>
	<g>
		<path d="M234.667,64.768v63.147c14.165-0.811,28.501-0.811,42.667-0.021V64.747L234.667,64.768z"/>
	</g>
</g>
<g>
</g>
<g>
</g>
<g>
</g>
<g>
</g>
<g>
</g>
<g>
</g>
<g>
</g>
<g>
</g>
<g>
</g>
<g>
</g>
<g>
</g>
<g>
</g>
<g>
</g>
<g>
</g>
<g>
</g>
</svg>
