<?xml version="1.0" encoding="iso-8859-1"?>
<!-- Generator: Adobe Illustrator 19.0.0, SVG Export Plug-In . SVG Version: 6.00 Build 0)  -->
<svg version="1.1" id="Capa_1" xmlns="http://www.w3.org/2000/svg" xmlns:xlink="http://www.w3.org/1999/xlink" x="0px" y="0px"
	 viewBox="0 0 512 512" style="enable-background:new 0 0 512 512;" xml:space="preserve">
<g>
	<g>
		<path d="M401.173,175.637c-1.856-5.589-7.893-8.619-13.483-6.741c-5.589,1.856-8.597,7.893-6.741,13.483
			c2.005,5.973,3.051,12.992,3.051,20.288c0,20.629-7.68,31.979-11.349,31.509c-2.88-1.792-6.485-2.112-9.643-0.832
			s-5.504,4.011-6.336,7.317C341.739,300.885,301.291,341.333,256,341.333s-85.739-40.448-100.672-100.672
			c-0.832-3.307-3.52-5.781-6.677-7.061c-3.179-1.301-7.083-0.725-9.984,1.067c-2.667,0-10.667-11.349-10.667-32
			c0-7.296,1.045-14.315,3.051-20.288c1.856-5.568-1.152-11.627-6.763-13.483c-5.589-1.877-11.627,1.152-13.483,6.741
			c-2.709,8.107-4.139,17.451-4.139,27.029c0,29.717,13.141,52.288,30.741,53.312C156.779,320.213,203.456,362.667,256,362.667
			s99.221-42.453,118.592-106.688c17.6-1.024,30.741-23.595,30.741-53.312C405.333,193.088,403.904,183.744,401.173,175.637z"/>
	</g>
</g>
<g>
	<g>
		<path d="M418.88,354.688l-54.869-19.093c-4.011-1.387-8.469-0.256-11.371,2.859C325.739,367.829,291.413,384,256,384
			s-69.739-16.171-96.64-45.525c-2.88-3.115-7.339-4.245-11.371-2.859L93.12,354.709C37.419,374.059,0,426.688,0,485.675v15.659
			C0,507.221,4.779,512,10.667,512h490.667c5.888,0,10.667-4.779,10.667-10.667v-15.659C512,426.688,474.581,374.059,418.88,354.688
			z"/>
	</g>
</g>
<g>
	<g>
		<path d="M256,0c-82.347,0-149.333,66.987-149.333,149.333c0,9.899,1.216,20.053,3.84,31.979c1.067,4.885,5.397,8.384,10.411,8.384
			c12.075,0,26.667,2.176,26.816,2.197c0.619,0.085,1.152,0.128,1.813,0.107c5.824,0.085,10.88-4.693,10.88-10.667
			c0-1.301-0.235-2.517-0.64-3.669c-1.301-21.291,0.043-42.816,3.008-49.664h1.621c36.885,0,55.275-11.712,63.765-26.496
			c22.997,22.699,69.248,44.587,113.963,47.488c2.539,17.92,10.389,35.755,10.795,36.651c1.707,3.904,5.547,6.357,9.728,6.357
			c0.277,0,0.576,0,0.875-0.021l28.416-2.325c4.672-0.384,8.533-3.776,9.557-8.341c2.603-11.925,3.819-22.08,3.819-31.979
			C405.333,66.987,338.347,0,256,0z"/>
	</g>
</g>
<g>
	<g>
		<path d="M224,192h-21.333c-5.888,0-10.667,4.779-10.667,10.667s4.779,10.667,10.667,10.667H224
			c5.888,0,10.667-4.779,10.667-10.667S229.888,192,224,192z"/>
	</g>
</g>
<g>
	<g>
		<path d="M309.333,192H288c-5.888,0-10.667,4.779-10.667,10.667s4.779,10.667,10.667,10.667h21.333
			c5.888,0,10.667-4.779,10.667-10.667S315.221,192,309.333,192z"/>
	</g>
</g>
<g>
</g>
<g>
</g>
<g>
</g>
<g>
</g>
<g>
</g>
<g>
</g>
<g>
</g>
<g>
</g>
<g>
</g>
<g>
</g>
<g>
</g>
<g>
</g>
<g>
</g>
<g>
</g>
<g>
</g>
</svg>
