<?xml version="1.0" encoding="iso-8859-1"?>
<!-- Generator: Adobe Illustrator 19.0.0, SVG Export Plug-In . SVG Version: 6.00 Build 0)  -->
<svg version="1.1" id="Capa_1" xmlns="http://www.w3.org/2000/svg" xmlns:xlink="http://www.w3.org/1999/xlink" x="0px" y="0px"
	 viewBox="0 0 512 512" style="enable-background:new 0 0 512 512;" xml:space="preserve">
<g>
	<g>
		<g>
			<path d="M418.88,354.688l-54.869-19.093c-4.011-1.387-8.469-0.256-11.371,2.859c-25.856,28.245-61.269,66.88-96.64,66.88
				s-70.784-38.635-96.64-66.859c-2.901-3.115-7.381-4.245-11.371-2.859L93.12,354.709C37.419,374.059,0,426.688,0,485.675v15.659
				C0,507.221,4.779,512,10.667,512h490.667c5.888,0,10.667-4.779,10.667-10.667v-15.659
				C512,426.688,474.581,374.059,418.88,354.688z"/>
			<path d="M137.387,255.957c2.517,8.619,5.483,17.173,8.896,25.579c0,0.021,0,0.043,0,0.064C166.336,331.115,205.675,384,256,384
				c51.691,0,91.371-54.891,111.232-106.261c0.021-0.043,0.043-0.043,0.064-0.085c2.752-7.125,5.205-14.4,7.339-21.696
				c17.579-1.045,30.699-23.595,30.699-53.291c0-8.448-1.109-16.747-3.243-24.149c2.219-10.731,3.243-20.053,3.243-29.184
				C405.333,66.987,338.347,0,256,0c-81.643,0-148.096,65.877-149.163,148.501c-0.021,0.299-0.171,0.533-0.171,0.832
				c0,0.384,0.064,0.811,0.064,1.195c0,0.021,0,0.043,0,0.085l0.021,0.128c0.107,8.683,1.045,17.579,3.157,27.776
				c-2.133,7.403-3.243,15.701-3.243,24.149C106.667,232.341,119.765,254.912,137.387,255.957z M266.667,320h-21.333
				c-5.888,0-10.667-4.779-10.667-10.667c0-5.888,4.779-10.667,10.667-10.667h21.333c5.888,0,10.667,4.779,10.667,10.667
				C277.333,315.221,272.555,320,266.667,320z M159.957,182.229l7.104-85.227C168.597,78.485,184.363,64,202.923,64
				c6.677,0,13.227,3.605,19.392,10.731c9.195,10.603,22.763,10.603,33.685,10.603c10.219,0,20.075-3.904,28.523-11.307
				C291.925,67.563,302.699,64,314.901,64c15.189,0,27.563,11.392,28.8,26.475c3.157,38.592,8.363,91.883,8.363,91.883
				c0.128,1.429,0.576,2.752,1.195,3.968l-6.656,6.656c-7.253-13.227-21.141-22.315-37.269-22.315
				c-17.109,0-31.765,10.176-38.571,24.725C266.475,193.493,261.696,192,256,192s-10.475,1.493-14.763,3.392
				c-6.805-14.549-21.461-24.725-38.571-24.725c-16.128,0-30.016,9.088-37.269,22.336l-6.656-6.656
				C159.424,185.088,159.851,183.68,159.957,182.229z M330.667,213.333v0.021c0,11.755-9.579,21.312-21.333,21.312
				c-11.755,0-21.333-9.579-21.333-21.333c0-11.755,9.579-21.333,21.333-21.333C321.088,192,330.667,201.579,330.667,213.333z
				 M224,213.333c0,11.755-9.579,21.333-21.333,21.333c-11.755,0-21.333-9.579-21.333-21.333c0-11.755,9.579-21.333,21.333-21.333
				C214.421,192,224,201.579,224,213.333z M129.259,189.973c1.067,0.064,2.112,0.149,3.157,0.213l28.075,28.075
				C162.987,239.445,180.821,256,202.667,256c21.973,0,39.915-16.768,42.219-38.144c1.792-1.749,5.44-4.523,11.115-4.523
				c5.653,0,9.323,2.795,11.115,4.544C269.419,239.253,287.36,256,309.333,256c21.845,0,39.701-16.555,42.176-37.76l27.541-27.541
				l3.797-0.32c0.683,3.947,1.152,8.021,1.152,12.288c0,20.629-7.851,31.765-11.371,31.488c-2.901-1.792-6.464-2.112-9.643-0.832
				c-3.157,1.28-5.504,4.011-6.336,7.317c-2.197,8.896-5.141,17.771-8.384,26.496l-3.797,2.645l-1.643,1.643
				C326.272,288,326.272,288,309.333,288c-5.867,0-10.539-4.608-17.685-12.139C283.285,267.008,272.853,256,256,256
				s-27.285,11.008-35.648,19.861C213.205,283.392,208.533,288,202.667,288c-16.939,0-16.939,0-33.493-16.576l-1.643-1.643
				c-1.067-1.067-2.368-1.877-3.755-2.389c-3.307-8.832-6.251-17.771-8.448-26.731c-0.832-3.307-3.52-5.781-6.677-7.061
				c-3.157-1.301-7.083-0.725-9.984,1.067c-2.667,0-10.667-11.349-10.667-32C128,198.229,128.512,194.005,129.259,189.973z"/>
		</g>
	</g>
</g>
<g>
</g>
<g>
</g>
<g>
</g>
<g>
</g>
<g>
</g>
<g>
</g>
<g>
</g>
<g>
</g>
<g>
</g>
<g>
</g>
<g>
</g>
<g>
</g>
<g>
</g>
<g>
</g>
<g>
</g>
</svg>
