<?xml version="1.0" encoding="iso-8859-1"?>
<!-- Generator: Adobe Illustrator 19.0.0, SVG Export Plug-In . SVG Version: 6.00 Build 0)  -->
<svg version="1.1" id="Capa_1" xmlns="http://www.w3.org/2000/svg" xmlns:xlink="http://www.w3.org/1999/xlink" x="0px" y="0px"
	 viewBox="0 0 512 512" style="enable-background:new 0 0 512 512;" xml:space="preserve">
<g>
	<g>
		<path d="M418.88,376.021l-54.869-19.093c-4.011-1.387-8.469-0.277-11.371,2.859c-26.901,29.376-61.227,45.547-96.64,45.547
			s-69.739-16.171-96.64-45.525c-2.88-3.136-7.36-4.245-11.371-2.859L93.12,376.043C35.669,396.011,0,444.011,0,501.333
			C0,507.221,4.779,512,10.667,512h490.667c5.888,0,10.667-4.779,10.667-10.667C512,444.011,476.331,396.011,418.88,376.021z"/>
	</g>
</g>
<g>
	<g>
		<path d="M224,213.333h-21.333c-5.888,0-10.667,4.779-10.667,10.667s4.779,10.667,10.667,10.667H224
			c5.888,0,10.667-4.779,10.667-10.667S229.888,213.333,224,213.333z"/>
	</g>
</g>
<g>
	<g>
		<path d="M309.333,213.333H288c-5.888,0-10.667,4.779-10.667,10.667s4.779,10.667,10.667,10.667h21.333
			c5.888,0,10.667-4.779,10.667-10.667S315.221,213.333,309.333,213.333z"/>
	</g>
</g>
<g>
	<g>
		<path d="M383.893,174.059c0.064-1.131,0.107-2.261,0.107-3.392c0-70.592-57.408-128-128-128s-128,57.408-128,128
			c0,0.917,0.021,1.856,0.064,2.773c-12.715,6.955-21.397,26.389-21.397,50.56c0,37.035,21.547,63.509,43.883,49.664
			c4.992-3.093,6.229-9.429,3.136-14.443c-3.115-5.013-10.027-6.336-15.019-3.221C136,256,128,244.651,128,224
			c0-19.563,7.189-30.763,10.197-31.915c0.107,0.021,0.235,0.043,0.32,0.043c3.179,0.32,6.357-0.811,8.619-3.072
			c2.261-2.283,3.392-5.461,3.051-8.64l-0.299-2.667c-0.256-2.347-0.555-4.672-0.555-7.083C149.333,111.851,197.184,64,256,64
			s106.667,47.851,106.667,106.667c0,2.411-0.299,4.736-0.555,7.061l-0.299,2.667c-0.32,3.2,0.789,6.379,3.051,8.64
			c2.261,2.283,5.419,3.413,8.619,3.093c0.085-0.021,0.213-0.021,0.32-0.043C376.811,193.237,384,204.437,384,224
			c0,20.651-8,32-10.304,32.043c0-0.021-0.32-0.085-1.024-0.533c-5.013-3.093-11.584-1.536-14.677,3.477
			c-3.093,5.013-1.536,11.584,3.477,14.677c3.989,2.475,7.872,3.669,11.861,3.669c18.24,0,32-22.933,32-53.333
			C405.333,200.405,397.056,181.312,383.893,174.059z"/>
	</g>
</g>
<g>
	<g>
		<path d="M202.667,170.667c-13.803,0-26.347,11.371-28.715,13.632c-4.245,4.096-4.395,10.837-0.32,15.083
			c2.091,2.197,4.907,3.285,7.701,3.285c2.667,0,5.333-0.981,7.381-2.965c2.709-2.603,9.813-7.701,13.952-7.701
			c5.888,0,10.667-4.779,10.667-10.667S208.555,170.667,202.667,170.667z"/>
	</g>
</g>
<g>
	<g>
		<path d="M338.048,184.299c-2.368-2.261-14.912-13.632-28.715-13.632c-5.888,0-10.667,4.779-10.667,10.667S303.445,192,309.333,192
			c3.797,0,10.56,4.48,13.973,7.723c2.069,1.963,4.715,2.923,7.36,2.923c2.795,0,5.611-1.109,7.701-3.307
			C342.421,195.093,342.293,188.373,338.048,184.299z"/>
	</g>
</g>
<g>
	<g>
		<path d="M369.579,254.208c-3.307-0.789-6.741,0.043-9.28,2.069c-1.899,0.427-3.691,1.387-5.184,2.859
			c-16.555,16.555-26.197,18.219-45.781,18.219c-7.381,0-12.629-3.691-19.285-8.384c-8.213-5.781-18.411-12.949-34.048-12.949
			s-25.835,7.189-34.048,12.949c-6.656,4.672-11.904,8.384-19.285,8.384c-19.605,0-29.227-1.643-45.781-18.219
			c-0.853-0.853-1.813-1.536-2.88-2.048l-4.352-2.112c-3.712-1.813-8.149-1.301-11.371,1.301c-3.2,2.603-4.629,6.848-3.627,10.859
			C152,337.045,200.768,384.021,256.021,384.021c55.253,0,104.043-46.976,121.365-116.885
			C378.795,261.419,375.296,255.637,369.579,254.208z M266.667,320.021h-21.333c-5.888,0-10.667-4.779-10.667-10.667
			s4.779-10.667,10.667-10.667h21.333c5.888,0,10.667,4.779,10.667,10.667S272.555,320.021,266.667,320.021z"/>
	</g>
</g>
<g>
	<g>
		<path d="M423.851,129.643c1.877-1.408,3.157-2.965,3.989-4.16c6.528-9.685,2.005-23.765-1.941-33.493
			C406.613,44.544,332.459,0,298.667,0C277.163,0,263.488,4.864,256,8.747C248.512,4.864,234.837,0,213.333,0
			C179.541,0,105.387,44.544,86.123,91.989c-3.947,9.728-8.469,23.808-1.941,33.493c0.832,1.216,2.112,2.752,3.989,4.16
			C76.181,142.976,64,161.408,64,181.333c0,38.357,45.184,71.275,47.104,72.661c1.813,1.301,4.011,2.005,6.229,2.005h2.965
			c0.064,0,0.149,0,0.213,0c5.952-0.128,10.88-4.693,10.88-10.667c0-2.005-0.555-3.904-1.536-5.504
			C128.619,234.795,128,229.483,128,224c0-19.563,7.189-30.763,10.197-31.915c0.107,0.021,0.213,0.021,0.32,0.043
			c0.427,0.043,0.896,0.085,1.28,0.043c6.229-0.149,10.901-4.693,10.88-10.667c0-1.451-0.299-2.837-0.832-4.117
			c-0.256-2.197-0.512-4.437-0.512-6.72C149.333,111.851,197.184,64,256,64s106.667,47.851,106.667,106.667
			c0,2.411-0.299,4.757-0.555,7.083l-0.299,2.667c-0.341,3.179,0.789,6.357,3.051,8.64c2.261,2.261,5.419,3.413,8.619,3.093
			c0.085,0,0.213-0.021,0.32-0.043C376.811,193.237,384,204.437,384,224c0,6.4-0.853,12.587-2.539,18.347
			c-0.939,3.221-0.32,6.699,1.707,9.387c2.005,2.667,5.184,4.267,8.533,4.267h2.965c2.219,0,4.416-0.704,6.229-2.005
			c1.92-1.387,47.104-34.304,47.104-72.661C448,161.408,435.819,142.976,423.851,129.643z"/>
	</g>
</g>
<g>
</g>
<g>
</g>
<g>
</g>
<g>
</g>
<g>
</g>
<g>
</g>
<g>
</g>
<g>
</g>
<g>
</g>
<g>
</g>
<g>
</g>
<g>
</g>
<g>
</g>
<g>
</g>
<g>
</g>
</svg>
