<?xml version="1.0" encoding="UTF-8"?>
<!-- Generator: Adobe Illustrator 19.0.0, SVG Export Plug-In . SVG Version: 6.00 Build 0)  -->
<svg version="1.1" id="Capa_1" xmlns="http://www.w3.org/2000/svg" xmlns:xlink="http://www.w3.org/1999/xlink" x="0px" y="0px"
	 viewBox="0 0 512.001 512.001" style="enable-background:new 0 0 512.001 512.001;" xml:space="preserve">
<g>
	<g>
		<path d="M397.238,154.71c-3.499-3.52-8.085-5.376-13.248-5.376c-5.867,0-10.56,4.736-10.603,10.603
			c-0.043,5.333,3.904,9.792,9.045,10.603c1.643,4.416,1.6,17.024,1.557,26.453v5.675c0,20.651-7.829,32-11.328,31.531
			c-2.901-1.792-6.485-2.091-9.643-0.811c-3.136,1.28-5.483,3.989-6.315,7.296c-14.933,60.203-55.403,100.651-100.715,100.651
			s-85.781-40.448-100.715-100.651c-0.832-3.307-3.499-5.76-6.656-7.061c-3.157-1.259-7.061-0.768-9.963,1.045
			c-2.667,0-10.667-11.349-10.667-32v-5.675c-0.043-9.429-0.107-22.037,1.557-26.453c5.12-0.832,9.067-5.269,9.045-10.603
			c-0.043-5.867-4.736-10.603-10.603-10.603c-5.163,0-9.749,1.856-13.248,5.376c-8.235,8.256-8.171,22.571-8.085,42.368v5.589
			c0,29.675,13.099,52.224,30.677,53.291c19.392,64.256,66.091,106.709,118.656,106.709s99.264-42.453,118.656-106.709
			c17.579-1.067,30.677-23.616,30.677-53.291v-5.589C405.408,177.28,405.472,162.966,397.238,154.71z"/>
	</g>
</g>
<g>
	<g>
		<path d="M303.35,106.667C291.616,119.659,274.827,128,255.99,128s-35.627-8.341-47.36-21.333
			c-10.219,11.349-16.64,26.219-16.64,42.667c0,35.285,28.715,64,64,64s64-28.715,64-64
			C319.99,132.886,313.568,118.016,303.35,106.667z"/>
	</g>
</g>
<g>
	<g>
		<path d="M399.435,139.798l-15.552-7.765C382.134,77.462,358.454,40,319.99,26.859V64c0,8.533-1.749,16.661-4.8,24.107
			c16.064,15.531,26.133,37.184,26.133,61.227c0,21.696-8.384,41.301-21.781,56.384c7.381-2.752,14.613-5.995,21.376-10.219
			l59.392-37.12c3.264-2.048,5.184-5.696,4.992-9.557C405.131,144.96,402.87,141.526,399.435,139.798z"/>
	</g>
</g>
<g>
	<g>
		<path d="M196.79,88.107c-3.051-7.445-4.8-15.573-4.8-24.107V26.859C153.526,40,129.846,77.462,128.096,132.032l-15.552,7.765
			c-3.435,1.728-5.696,5.163-5.888,9.024c-0.171,3.861,1.728,7.509,5.013,9.557l59.392,37.12
			c6.763,4.224,13.973,7.467,21.376,10.219c-13.397-15.083-21.781-34.688-21.781-56.384
			C170.656,125.291,180.726,103.638,196.79,88.107z"/>
	</g>
</g>
<g>
	<g>
		<path d="M255.99,85.334c-11.179,0-21.525,3.136-30.677,8.192c7.765,8.064,18.624,13.141,30.677,13.141
			c12.053,0,22.912-5.077,30.677-13.141C277.515,88.47,267.168,85.334,255.99,85.334z"/>
	</g>
</g>
<g>
	<g>
		<path d="M294.646,12.992C293.984,12.459,278.155,0,255.99,0s-37.995,12.459-38.677,12.992c-2.517,2.048-3.989,5.099-3.989,8.341
			V64c0,3.819,0.661,7.467,1.621,10.987C227.168,68.203,241.035,64,255.99,64c14.955,0,28.821,4.203,41.045,10.987
			c0.96-3.52,1.621-7.168,1.621-10.987V21.334C298.656,18.091,297.184,15.04,294.646,12.992z"/>
	</g>
</g>
<g>
	<g>
		<circle cx="255.99" cy="149.334" r="64"/>
	</g>
</g>
<g>
	<g>
		<path d="M352.63,338.475C325.728,367.83,291.403,384,255.99,384s-69.739-16.171-96.64-45.525c-2.581-2.795-6.4-3.563-10.027-2.816
			V512h213.333V335.659C359.03,334.912,355.19,335.68,352.63,338.475z"/>
	</g>
</g>
<g>
	<g>
		<polygon points="383.99,343.787 383.99,512 405.323,512 405.323,352.534 		"/>
	</g>
</g>
<g>
	<g>
		<path d="M511.798,499.243l-14.613-73.024c-4.907-24.576-21.696-44.928-44.885-54.443l-25.643-10.496V512h74.667
			c3.2,0,6.229-1.429,8.256-3.904C511.606,505.622,512.416,502.379,511.798,499.243z"/>
	</g>
</g>
<g>
	<g>
		<path d="M59.68,371.798c-23.189,9.515-39.979,29.867-44.885,54.443L0.203,499.243c-0.619,3.136,0.192,6.379,2.219,8.853
			C4.427,510.571,7.456,512,10.656,512h74.667V361.28L59.68,371.798z"/>
	</g>
</g>
<g>
	<g>
		<polygon points="106.656,352.534 106.656,512 127.99,512 127.99,343.787 		"/>
	</g>
</g>
<g>
</g>
<g>
</g>
<g>
</g>
<g>
</g>
<g>
</g>
<g>
</g>
<g>
</g>
<g>
</g>
<g>
</g>
<g>
</g>
<g>
</g>
<g>
</g>
<g>
</g>
<g>
</g>
<g>
</g>
</svg>
