<?xml version="1.0" encoding="iso-8859-1"?>
<!-- Generator: Adobe Illustrator 19.0.0, SVG Export Plug-In . SVG Version: 6.00 Build 0)  -->
<svg version="1.1" id="Capa_1" xmlns="http://www.w3.org/2000/svg" xmlns:xlink="http://www.w3.org/1999/xlink" x="0px" y="0px"
	 viewBox="0 0 512.022 512.022" style="enable-background:new 0 0 512.022 512.022;" xml:space="preserve">
<g>
	<g>
		<path d="M223.99,192.011h-21.333c-5.888,0-10.667,4.779-10.667,10.667s4.779,10.667,10.667,10.667h21.333
			c5.888,0,10.667-4.779,10.667-10.667S229.878,192.011,223.99,192.011z"/>
	</g>
</g>
<g>
	<g>
		<path d="M309.323,192.011H287.99c-5.888,0-10.667,4.779-10.667,10.667s4.779,10.667,10.667,10.667h21.333
			c5.888,0,10.667-4.779,10.667-10.667S315.211,192.011,309.323,192.011z"/>
	</g>
</g>
<g>
	<g>
		<path d="M255.99,384.011c-7.189,0-14.293-0.832-21.333-2.133v130.133h42.667V381.878
			C270.283,383.179,263.179,384.011,255.99,384.011z"/>
	</g>
</g>
<g>
	<g>
		<path d="M159.371,338.507c-3.008-3.285-7.744-4.331-11.925-2.667l-87.744,35.968c-23.189,9.515-39.979,29.845-44.885,54.443
			L0.203,499.254c-0.619,3.136,0.192,6.379,2.219,8.853c2.027,2.475,5.056,3.904,8.235,3.904h202.667V375.883
			C193.632,368.352,175.179,355.787,159.371,338.507z"/>
	</g>
</g>
<g>
	<g>
		<path d="M511.819,499.254l-14.635-73.024c-4.907-24.576-21.717-44.928-44.885-54.443l-87.744-35.968
			c-4.139-1.685-8.896-0.619-11.925,2.667c-15.829,17.28-34.261,29.845-53.952,37.376v136.149h202.667
			c3.179,0,6.229-1.429,8.256-3.904S512.438,502.39,511.819,499.254z M405.323,437.344c0,2.837-1.131,5.547-3.115,7.552
			l-21.333,21.333c-2.091,2.069-4.821,3.115-7.552,3.115c-2.731,0-5.461-1.045-7.552-3.115l-21.333-21.333
			c-1.984-2.005-3.115-4.715-3.115-7.552v-21.333c0-5.888,4.779-10.667,10.667-10.667h42.667c5.888,0,10.667,4.779,10.667,10.667
			V437.344z"/>
	</g>
</g>
<g>
	<g>
		<polygon points="362.656,426.678 362.656,432.928 373.323,443.595 383.99,432.928 383.99,426.678 		"/>
	</g>
</g>
<g>
	<g>
		<polygon points="255.99,64.011 255.99,74.678 256.011,64.011 		"/>
	</g>
</g>
<g>
	<g>
		<path d="M394.656,64.011c-11.563,0-29.504-12.075-48.491-24.896c-27.2-18.325-58.027-39.104-90.176-39.104
			s-62.976,20.779-90.176,39.104c-18.987,12.821-36.928,24.896-48.491,24.896c-5.888,0-10.667,4.779-10.667,10.667v21.333
			c0,3.755,0.661,7.339,1.835,10.667h294.997c1.173-3.328,1.835-6.912,1.835-10.667V74.678
			C405.323,68.79,400.544,64.011,394.656,64.011z M277.323,64.011c0,11.755-9.557,21.333-21.333,21.333
			c-11.776,0-21.333-9.579-21.333-21.333V53.344c0-5.888,4.779-10.667,10.667-10.667h21.333c5.888,0,10.667,4.779,10.667,10.667
			V64.011z"/>
	</g>
</g>
<g>
	<g>
		<path d="M131.446,128.011c0.213,0.747,0.384,1.515,0.811,2.197c11.541,18.667,50.88,40.469,123.733,40.469
			s112.192-21.803,123.733-40.469c0.427-0.683,0.597-1.451,0.811-2.197H131.446z"/>
	</g>
</g>
<g>
	<g>
		<path d="M383.883,152.736c0.064-1.131,0.107-2.261,0.107-3.392c0-7.04-0.789-14.187-1.984-21.333h-21.589
			c1.451,7.147,2.24,14.336,2.24,21.333c0,2.411-0.299,4.736-0.555,7.083l-0.299,2.667c-0.341,3.179,0.789,6.357,3.051,8.64
			c2.261,2.261,5.483,3.371,8.619,3.093c0.107,0,0.213-0.021,0.32-0.043c3.008,1.131,10.197,12.331,10.197,31.893
			c0,20.608-7.125,32.043-11.285,31.531c-2.901-1.792-6.507-2.112-9.643-0.832c-3.136,1.301-5.504,4.011-6.336,7.317
			c-14.955,60.203-55.424,100.651-100.736,100.651s-85.781-40.448-100.736-100.651c-0.832-3.307-3.499-5.781-6.656-7.083
			c-3.2-1.28-7.061-0.725-9.941,1.067c-2.645,0-10.667-11.349-10.667-32c0-19.563,7.189-30.763,10.219-31.915
			c0.107,0.021,0.213,0.021,0.32,0.043c3.136,0.299,6.336-0.811,8.597-3.072c2.261-2.283,3.392-5.461,3.051-8.64l-0.299-2.667
			c-0.256-2.347-0.555-4.672-0.555-7.083c0-6.997,0.789-14.187,2.24-21.333h-21.589c-1.195,7.147-1.984,14.293-1.984,21.333
			c0,0.917,0.021,1.856,0.085,2.773c-12.736,6.955-21.419,26.389-21.419,50.56c0,29.675,13.099,52.224,30.677,53.291
			c19.392,64.256,66.091,106.709,118.656,106.709s99.264-42.453,118.656-106.709c17.579-1.067,30.677-23.616,30.677-53.291
			C405.323,179.083,397.024,159.99,383.883,152.736z"/>
	</g>
</g>
<g>
</g>
<g>
</g>
<g>
</g>
<g>
</g>
<g>
</g>
<g>
</g>
<g>
</g>
<g>
</g>
<g>
</g>
<g>
</g>
<g>
</g>
<g>
</g>
<g>
</g>
<g>
</g>
<g>
</g>
</svg>
