<?xml version="1.0" encoding="iso-8859-1"?>
<!-- Generator: Adobe Illustrator 19.0.0, SVG Export Plug-In . SVG Version: 6.00 Build 0)  -->
<svg version="1.1" id="Capa_1" xmlns="http://www.w3.org/2000/svg" xmlns:xlink="http://www.w3.org/1999/xlink" x="0px" y="0px"
	 viewBox="0 0 512 512" style="enable-background:new 0 0 512 512;" xml:space="preserve">
<g>
	<g>
		<path d="M287.998,0h-64c-5.888,0-10.667,4.779-10.667,10.667v32c0,23.531,19.136,42.667,42.667,42.667
			s42.667-19.136,42.667-42.667v-32C298.664,4.779,293.886,0,287.998,0z"/>
	</g>
</g>
<g>
	<g>
		<path d="M149.331,426.667V512h192v-85.333H149.331z M223.998,469.333h-42.667c-5.888,0-10.667-4.779-10.667-10.667
			S175.443,448,181.331,448h42.667c5.888,0,10.667,4.779,10.667,10.667S229.886,469.333,223.998,469.333z M309.331,469.333h-42.667
			c-5.888,0-10.667-4.779-10.667-10.667S260.776,448,266.664,448h42.667c5.888,0,10.667,4.779,10.667,10.667
			S315.219,469.333,309.331,469.333z"/>
	</g>
</g>
<g>
	<g>
		<path d="M511.443,497.963l-42.667-128c-0.96-2.923-3.157-5.291-6.016-6.464l-128-53.333c-5.397-2.261-11.669,0.32-13.952,5.739
			c-0.555,1.344-0.811,2.731-0.811,4.096h-128c0-1.365-0.256-2.752-0.811-4.096c-2.261-5.419-8.512-8-13.952-5.739l-128,53.333
			c-2.837,1.195-5.035,3.541-6.016,6.464l-42.667,128c-1.088,3.243-0.533,6.827,1.451,9.621C4.008,510.357,7.23,512,10.664,512
			h117.333v-96c0-5.888,4.779-10.667,10.667-10.667h213.333c5.888,0,10.667,4.779,10.667,10.667v96h138.667
			c3.435,0,6.656-1.643,8.661-4.437C511.998,504.789,512.531,501.205,511.443,497.963z"/>
	</g>
</g>
<g>
	<g>
		<polygon points="193.406,231.637 198.419,261.675 228.456,221.632 		"/>
	</g>
</g>
<g>
	<g>
		<polygon points="283.539,221.632 313.576,261.675 318.59,231.637 		"/>
	</g>
</g>
<g>
	<g>
		<polygon points="255.998,220.437 213.331,277.333 298.664,277.333 		"/>
	</g>
</g>
<g>
	<g>
		<path d="M191.998,42.667V13.035c-34.475,14.315-64,41.067-64,82.965v40.939L85.886,263.296c-1.003,3.029-0.619,6.315,1.067,9.024
			c0.363,0.597,4.096,6.357,12.117,14.315C113.107,239.509,160.211,96,213.331,96c3.093,0,5.931,0.235,8.576,0.619
			C203.987,85.269,191.998,65.408,191.998,42.667z"/>
	</g>
</g>
<g>
	<g>
		<path d="M298.664,117.333c-7.808,0-12.885,2.197-18.773,4.757c-6.4,2.773-13.653,5.909-23.893,5.909s-17.493-3.136-23.893-5.909
			c-5.888-2.56-10.965-4.757-18.773-4.757c-30.293,0-74.56,107.584-96.363,184.085c14.336,10.283,34.155,21.12,61.461,28.843
			c0.939,0.277,1.92,0.405,2.901,0.405h149.333c0.981,0,1.963-0.128,2.901-0.405c27.307-7.723,47.125-18.56,61.461-28.843
			C373.224,224.917,328.936,117.333,298.664,117.333z M268.798,153.6c1.152-1.536,11.712-14.933,29.867-14.933
			c15.488,0,26.219,9.621,30.123,15.296c2.24,3.264,2.496,7.509,0.64,11.008c-1.835,3.499-5.461,5.696-9.429,5.696h-42.667
			c-4.032,0-7.723-2.283-9.536-5.888C265.982,161.152,266.366,156.843,268.798,153.6z M183.208,153.963
			c3.904-5.675,14.635-15.296,30.123-15.296c14.293,0,23.893,8.32,27.883,12.587c2.752,1.92,4.544,5.12,4.544,8.747
			c0,5.888-4.779,10.667-10.667,10.667c-0.149-0.021-0.277,0-0.427,0h-42.667c-3.968,0-7.595-2.197-9.429-5.696
			C180.712,161.451,180.968,157.227,183.208,153.963z M330.515,289.749c-0.149,0.875-0.533,1.643-0.875,2.411
			c-0.085,0.192-0.021,0.405-0.107,0.597c-0.043,0.085-0.128,0.107-0.171,0.192c-0.811,1.536-2.005,2.773-3.413,3.733
			c-0.32,0.213-0.619,0.363-0.96,0.555c-1.515,0.832-3.179,1.429-4.992,1.429h-128c-0.277,0-0.491-0.192-0.768-0.213
			c-1.536-0.107-2.965-0.491-4.267-1.216c-0.235-0.128-0.491-0.192-0.725-0.341c-1.472-0.96-2.645-2.261-3.499-3.819
			c-0.064-0.128-0.213-0.171-0.277-0.299c-0.128-0.277-0.043-0.576-0.171-0.875c-0.277-0.704-0.683-1.365-0.811-2.155l-10.667-64
			c-0.896-5.333,2.368-10.517,7.595-12.011l74.667-21.333c0.704-0.192,1.429,0.064,2.155,0c0.533-0.043,1.024-0.043,1.557,0
			c0.725,0.064,1.451-0.192,2.155,0l74.667,21.333c5.227,1.493,8.491,6.677,7.595,12.011L330.515,289.749z"/>
	</g>
</g>
<g>
	<g>
		<path d="M426.11,263.296l-42.112-126.357V96c0-41.899-29.525-68.651-64-82.965v29.632c0,22.741-11.989,42.603-29.909,53.952
			c2.645-0.384,5.483-0.619,8.576-0.619c53.12,0,100.224,143.509,114.261,190.635c8.021-7.936,11.755-13.717,12.139-14.315
			C426.728,269.611,427.112,266.304,426.11,263.296z"/>
	</g>
</g>
<g>
</g>
<g>
</g>
<g>
</g>
<g>
</g>
<g>
</g>
<g>
</g>
<g>
</g>
<g>
</g>
<g>
</g>
<g>
</g>
<g>
</g>
<g>
</g>
<g>
</g>
<g>
</g>
<g>
</g>
</svg>
