<?xml version="1.0" encoding="iso-8859-1"?>
<!-- Generator: Adobe Illustrator 19.0.0, SVG Export Plug-In . SVG Version: 6.00 Build 0)  -->
<svg version="1.1" id="Capa_1" xmlns="http://www.w3.org/2000/svg" xmlns:xlink="http://www.w3.org/1999/xlink" x="0px" y="0px"
	 viewBox="0 0 512 512" style="enable-background:new 0 0 512 512;" xml:space="preserve">
<g>
	<g>
		<path d="M224,213.333h-21.333c-5.888,0-10.667,4.779-10.667,10.667s4.779,10.667,10.667,10.667H224
			c5.888,0,10.667-4.779,10.667-10.667S229.888,213.333,224,213.333z"/>
	</g>
</g>
<g>
	<g>
		<path d="M383.552,173.867C383.787,168.448,384,162.283,384,160c0-5.888-4.779-10.667-10.667-10.667
			c-5.888,0-10.667,4.779-10.667,10.667c0,3.52-0.491,17.003-0.875,20.395c-0.32,3.2,0.811,6.379,3.051,8.64
			c2.261,2.283,5.483,3.371,8.619,3.093c0.107-0.021,0.213-0.021,0.32-0.043C376.811,193.237,384,204.437,384,224
			c0,20.608-7.531,32.533-11.285,31.531c-2.901-1.813-6.507-2.133-9.643-0.832c-3.157,1.301-5.504,4.011-6.336,7.317
			C341.781,322.219,301.312,362.667,256,362.667s-85.781-40.448-100.715-100.651c-0.853-3.328-3.52-5.803-6.656-7.083
			c-3.2-1.301-7.083-0.704-9.963,1.067C136.021,256,128,244.651,128,224c0-19.563,7.189-30.763,10.197-31.915
			c0.107,0.021,0.213,0.043,0.32,0.043c3.179,0.277,6.336-0.811,8.619-3.072c2.261-2.283,3.392-5.461,3.051-8.64
			c-0.363-3.413-0.853-16.896-0.853-20.416c0-5.888-4.779-10.667-10.667-10.667S128,154.112,128,160
			c0,2.219,0.192,7.979,0.427,13.248c-12.907,6.805-21.76,26.368-21.76,50.752c0,29.675,13.099,52.224,30.677,53.291
			C156.736,341.547,203.435,384,256,384s99.264-42.453,118.656-106.709c17.579-1.067,30.677-23.616,30.677-53.291
			C405.333,200.213,396.907,180.992,383.552,173.867z"/>
	</g>
</g>
<g>
	<g>
		<path d="M175.659,321.216c-5.141-2.731-11.648-0.768-14.421,4.459l-19.157,36.352c-2.752,5.227-0.747,11.669,4.459,14.421
			c1.579,0.832,3.285,1.237,4.971,1.237c3.797,0,7.509-2.069,9.451-5.696l19.157-36.352
			C182.869,330.411,180.864,323.968,175.659,321.216z"/>
	</g>
</g>
<g>
	<g>
		<path d="M369.941,362.027l-19.157-36.352c-2.773-5.227-9.28-7.189-14.421-4.459c-5.205,2.752-7.211,9.195-4.459,14.421
			l19.157,36.352c1.899,3.627,5.611,5.696,9.429,5.696c1.707,0,3.413-0.384,4.992-1.237
			C370.688,373.696,372.693,367.253,369.941,362.027z"/>
	</g>
</g>
<g>
	<g>
		<path d="M500.309,448H11.691c-3.093,6.827-5.525,13.952-7.381,21.333h503.381C505.835,461.952,503.403,454.827,500.309,448z"/>
	</g>
</g>
<g>
	<g>
		<path d="M159.381,359.808c-2.88-3.115-7.339-4.267-11.371-2.859l-54.869,19.093c-6.507,2.24-12.587,5.013-18.496,7.957h113.152
			C177.707,377.344,168.128,369.365,159.381,359.808z"/>
	</g>
</g>
<g>
	<g>
		<g>
			<path d="M364.011,356.928c-4.032-1.408-8.491-0.256-11.371,2.859c-8.747,9.536-18.325,17.536-28.416,24.192h113.087
				c-5.896-2.936-11.961-5.702-18.431-7.957L364.011,356.928z"/>
			<path d="M437.355,383.979h-0.044c0.015,0.007,0.029,0.014,0.044,0.021V383.979z"/>
		</g>
	</g>
</g>
<g>
	<g>
		<path d="M468.544,405.333H43.456c-7.317,6.549-14.101,13.525-19.691,21.333h464.448
			C482.645,418.859,475.84,411.883,468.544,405.333z"/>
	</g>
</g>
<g>
	<g>
		<path d="M309.333,213.333H288c-5.888,0-10.667,4.779-10.667,10.667s4.779,10.667,10.667,10.667h21.333
			c5.888,0,10.667-4.779,10.667-10.667S315.221,213.333,309.333,213.333z"/>
	</g>
</g>
<g>
	<g>
		<path d="M382.379,47.68C381.163,45.739,351.488,0,256,0S130.837,45.739,129.621,47.68c-1.067,1.685-1.621,3.648-1.621,5.653V160
			c0,3.947,2.176,7.552,5.653,9.408C135.381,170.325,176.917,192,256,192s120.619-21.675,122.347-22.592
			c3.477-1.856,5.653-5.461,5.653-9.408V53.333C384,51.328,383.445,49.365,382.379,47.68z M149.931,60.693
			c2.005-5.589,8.747-8.683,14.933-6.827C165.205,53.952,200.107,64,256,64s90.795-10.048,91.136-10.133
			c6.208-1.856,12.949,1.237,14.933,6.827c2.027,5.589-1.344,11.605-7.552,13.44c-1.557,0.469-38.549,11.2-98.517,11.2
			s-96.981-10.731-98.517-11.2C151.275,72.299,147.883,66.283,149.931,60.693z M149.931,103.36
			c2.005-5.589,8.747-8.661,14.933-6.827c0.341,0.085,35.243,10.133,91.136,10.133s90.795-10.048,91.136-10.133
			c6.208-1.835,12.949,1.237,14.933,6.827c2.027,5.589-1.344,11.605-7.552,13.44C352.96,117.269,315.968,128,256,128
			s-96.981-10.731-98.517-11.2C151.275,114.965,147.883,108.949,149.931,103.36z M354.517,159.467
			c-1.536,0.469-38.528,11.2-98.517,11.2s-96.96-10.731-98.517-11.2c-6.208-1.835-9.579-7.851-7.552-13.44
			c2.005-5.589,8.747-8.661,14.933-6.827c0.363,0.085,35.264,10.133,91.136,10.133s90.795-10.048,91.136-10.133
			c6.208-1.835,12.949,1.237,14.933,6.827C364.117,151.616,360.725,157.632,354.517,159.467z"/>
	</g>
</g>
<g>
	<g>
		<path d="M418.859,376.043l-54.869-19.093c-4.032-1.408-8.491-0.256-11.371,2.859c-26.859,29.355-61.184,45.525-96.619,45.525
			s-69.76-16.171-96.64-45.547c-2.88-3.115-7.339-4.267-11.371-2.859L93.12,376.021C35.691,395.989,0,444.011,0,501.333
			C0,507.221,4.779,512,10.667,512h490.667c5.888,0,10.667-4.779,10.667-10.667C512,444.011,476.309,396.011,418.859,376.043z
			 M21.824,490.667c4.16-43.2,33.344-78.848,78.293-94.485l48.405-16.832c30.229,30.571,68.139,47.317,107.477,47.317
			s77.248-16.747,107.456-47.317l48.405,16.832c44.949,15.637,74.155,51.285,78.293,94.485H21.824z"/>
	</g>
</g>
<g>
</g>
<g>
</g>
<g>
</g>
<g>
</g>
<g>
</g>
<g>
</g>
<g>
</g>
<g>
</g>
<g>
</g>
<g>
</g>
<g>
</g>
<g>
</g>
<g>
</g>
<g>
</g>
<g>
</g>
</svg>
