<?xml version="1.0" encoding="iso-8859-1"?>
<!-- Generator: Adobe Illustrator 19.0.0, SVG Export Plug-In . SVG Version: 6.00 Build 0)  -->
<svg version="1.1" id="Capa_1" xmlns="http://www.w3.org/2000/svg" xmlns:xlink="http://www.w3.org/1999/xlink" x="0px" y="0px"
	 viewBox="0 0 512.1 512.1" style="enable-background:new 0 0 512.1 512.1;" xml:space="preserve">
<g>
	<g>
		<path d="M318.4,271.9C315.1,266,304.7,256,288,256c-5.8,0-7.3-0.5-7.4-0.6c-0.3-0.3-1.2-1.3-2-2.1c-1.2-1.4-2.6-3-4.5-4.9
			c-4.2-4.2-10.9-4.1-15.1,0c-4.2,4.2-4.2,10.9,0,15.1c1.4,1.4,2.5,2.6,3.4,3.7c6.4,7.4,11.2,10.1,25.5,10.1c8.3,0,11.9,5,12.1,5.4
			c2,3.4,5.5,5.3,9.2,5.3c1.8,0,3.7-0.5,5.4-1.5C319.7,283.5,321.4,277,318.4,271.9z"/>
	</g>
</g>
<g>
	<g>
		<path d="M252.9,248.5c-4.2-4.2-10.9-4.2-15.1,0c-1.9,1.9-3.2,3.5-4.5,4.9c-0.7,0.8-1.6,1.9-1.9,2.1c-0.2,0.1-1.7,0.6-7.5,0.6
			c-16.7,0-27.1,10-30.5,16c-3,5.1-1.2,11.6,3.8,14.6c1.7,1,3.5,1.5,5.4,1.5c3.7,0,7.2-1.9,9.2-5.3c0,0,3.5-5.4,12.1-5.4
			c14.4-0.2,19.2-2.8,25.6-10.2c0.9-1,2-2.3,3.4-3.7C257.1,259.4,257.1,252.7,252.9,248.5z"/>
	</g>
</g>
<g>
	<g>
		<path d="M275.9,293.1c-2.1-3.2-5.5-5.1-9.2-5.1h-21.3c-3.7,0-7.1,1.9-9.1,5.1c-1.9,3.1-2.1,7.1-0.4,10.4l10.7,21.3
			c1.8,3.6,5.5,5.9,9.5,5.9s7.7-2.3,9.5-5.9l10.7-21.3C278,300.2,277.8,296.3,275.9,293.1z"/>
	</g>
</g>
<g>
	<g>
		<path d="M224,192h-21.3c-5.9,0-10.7,4.8-10.7,10.7s4.8,10.6,10.7,10.6H224c5.9,0,10.7-4.8,10.7-10.7S229.9,192,224,192z"/>
	</g>
</g>
<g>
	<g>
		<path d="M309.3,191.9H288c-5.9,0-10.7,4.8-10.7,10.7s4.8,10.7,10.7,10.7h21.3c5.9,0,10.7-4.8,10.7-10.7S315.2,191.9,309.3,191.9z"
			/>
	</g>
</g>
<g>
	<g>
		<path d="M426.7,358.1v68.5c0,5.9-4.8,10.7-10.7,10.7c-5.9,0-10.7-4.8-10.7-10.7V350v-39c7.6-3.9,12.8-11.8,12.8-20.9
			c0-9.1-5.2-17-12.8-20.9v-17.9c7.6-3.9,12.8-11.8,12.8-20.9c0-9.1-5.2-17-12.8-20.9V143l50.2-50.2c2-2,3.2-4.8,3.1-7.7
			c0-2.9-1.2-5.6-3.3-7.6c-2.4-2.3-59.6-56.3-103.4-56.3c-35.2,0-79.5,28.6-96,40.2c-16.5-11.5-60.8-40.2-96-40.2
			c-43.8,0-100.9,54-103.4,56.3c-2.1,2-3.3,4.7-3.3,7.6c0,2.9,1.1,5.6,3.1,7.7l50.2,50.2v207v76.7c0,5.9-4.8,10.7-10.7,10.7
			c-5.9,0-10.7-4.8-10.7-10.7v-68.5C34.1,379.6,0,429.6,0,485.7v15.7c0,5.9,4.8,10.7,10.7,10.7h490.7c5.9,0,10.7-4.8,10.7-10.7
			v-15.7C512,429.6,477.9,379.6,426.7,358.1z M149.3,160v127.5c0,0.3,0,0.7,0,1v47v59.1c0,6-4.7,10.7-10.6,10.7
			c-5.9,0-10.7-4.8-10.7-10.7v-52.1v-200c3.3-3.5,10.6-10.2,21.3-13.1V160z M170.7,128h42.7c2.8,0,5.5-1.1,7.5-3.1L256,89.8
			l35.1,35.1c2,2,4.7,3.1,7.5,3.1h0.4h42.2v21.3H170.7V128z M341.4,349.9c-5.8,5.2-12,9.9-18.5,14c-2.8,1.4-4.5,4.3-4.9,7.5l-5.1,46
			c-0.7,14.8-2.6,27.8-4.1,36.2c-3,16.8-18.4,28.6-36.1,26.1c-4-0.6-7.9-1.9-11.4-3.9c-3.3-1.9-7.4-1.9-10.7,0
			c-3.5,2-7.4,3.4-11.5,4c-17.5,2.6-33-9.2-36-26.1c-1.5-8.3-3.4-21.4-4.1-36.8l-5.1-45.3c-0.4-3.2-2.1-6.1-4.8-7.8
			c-6.5-4.2-12.7-8.9-18.5-14V320c10.5,11.5,24.9,24.3,42.7,32.8c0,0.2,0,0.4,0,0.6l7.2,64.7c0.9,16,3.1,29,3.6,32
			c1,5.7,6.4,9.5,12,8.7c5.7-0.8,9.7-6,9.1-11.7l-3.4-30.3c-1-21,0.6-42.3,7.6-50.7c1.4-1.7,3.2-2.8,5-3.1c0.5,0,1,0,1.6,0
			c0.5,0,1,0,1.6,0c1.8,0.4,3.6,1.4,5,3.1c7.2,8.6,8.6,29.8,7.6,50.2l-3.4,30.9c-0.6,5.7,3.4,10.9,9.1,11.7c0.5,0.1,1,0.1,1.5,0.1
			c5.1,0,9.6-3.6,10.5-8.8c0.5-3.1,2.7-16,3.6-32l7.2-64.7c0-0.2,0-0.4,0-0.6c17.8-8.6,32.2-21.4,42.7-32.8V349.9z M341.4,285
			c-7.1,10.8-39.3,56.3-85.4,56.3c-46.1,0-78.3-45.6-85.3-56.4V170.7h170.7V285z M383.9,209.6c-7.6,3.9-12.8,11.8-12.8,20.9
			c0,9.1,5.2,17,12.8,20.9v17.9c-7.6,3.9-12.8,11.8-12.8,20.9c0,9.1,5.2,17,12.8,20.9v31.6v52.1c0.1,5.8-4.7,10.5-10.6,10.5
			c-5.9,0-10.7-4.8-10.7-10.7v-59.1v-47.2c0-0.1,0-0.1,0-0.2V160v-30.6c10.8,2.9,18,9.5,21.3,13.1V209.6z"/>
	</g>
</g>
<g>
	<g>
		<path d="M256,0c-19,0-36.8,4.6-51,9.7c19.7,7.4,37.8,17.6,51,26.2c13.3-8.5,31.4-18.9,51-26.3C292.9,4.6,275,0,256,0z"/>
	</g>
</g>
<g>
	<g>
		<polygon points="256,119.9 247.9,128 264.1,128 		"/>
	</g>
</g>
<g>
</g>
<g>
</g>
<g>
</g>
<g>
</g>
<g>
</g>
<g>
</g>
<g>
</g>
<g>
</g>
<g>
</g>
<g>
</g>
<g>
</g>
<g>
</g>
<g>
</g>
<g>
</g>
<g>
</g>
</svg>
