<?xml version="1.0" encoding="iso-8859-1"?>
<!-- Generator: Adobe Illustrator 19.0.0, SVG Export Plug-In . SVG Version: 6.00 Build 0)  -->
<svg version="1.1" id="Capa_1" xmlns="http://www.w3.org/2000/svg" xmlns:xlink="http://www.w3.org/1999/xlink" x="0px" y="0px"
	 viewBox="0 0 512 512" style="enable-background:new 0 0 512 512;" xml:space="preserve">
<g>
	<g>
		<path d="M371.371,170.901c-5.867,0.576-10.133,5.803-9.557,11.669c0.576,5.867,5.867,10.133,11.669,9.557
			c0.085-0.021,0.213-0.021,0.32-0.043C376.811,193.237,384,204.437,384,224c0,20.651-7.829,31.659-11.328,31.531
			c-2.901-1.792-6.485-2.091-9.643-0.811c-3.136,1.28-5.483,3.989-6.315,7.296C341.781,322.219,301.312,362.667,256,362.667
			s-85.781-40.448-100.715-100.651c-0.832-3.307-3.499-5.76-6.656-7.061c-3.136-1.28-7.061-0.747-9.963,1.045
			C136,256,128,244.651,128,224c0-19.563,7.189-30.763,10.197-31.915c0.107,0.021,0.235,0.043,0.32,0.043
			c5.931,0.469,11.819-3.541,12.416-9.408c0.597-5.867-2.944-10.965-8.811-11.541c-0.96-0.277-2.453-0.512-3.456-0.512
			c-18.24,0-32,22.933-32,53.333c0,29.675,13.099,52.224,30.677,53.291C156.736,341.547,203.435,384,256,384
			s99.264-42.453,118.656-106.709c17.579-1.067,30.677-23.616,30.677-53.291C405.333,193.6,392.512,170.923,371.371,170.901z"/>
	</g>
</g>
<g>
	<g>
		<path d="M213.333,181.333c-51.115,0-42.667,14.336-42.667,32s8.427,32,32,32c23.573,0,53.333-14.336,53.333-32
			S262.677,181.333,213.333,181.333z"/>
	</g>
</g>
<g>
	<g>
		<path d="M259.968,182.272c-7.808-8.128-21.739-11.605-46.635-11.605c-25.877,0-39.595,3.371-47.339,11.605
			c-7.339,7.829-6.741,17.408-6.251,25.109c0.128,1.92,0.256,3.904,0.256,5.952C160,240.043,175.957,256,202.667,256
			c26.731,0,64-16.235,64-42.667c0-1.771,0.064-3.52,0.149-5.227C267.136,200.128,267.563,190.208,259.968,182.272z
			 M245.504,207.211c-0.085,1.984-0.171,4.032-0.171,6.123c0,8.811-22.059,21.333-42.667,21.333
			c-14.741,0-21.333-6.592-21.333-21.333c0-2.496-0.149-4.949-0.299-7.296c-0.235-3.968-0.512-8.064,0.512-9.152
			c1.067-1.152,6.549-4.885,31.787-4.885c23.829,0,29.781,3.541,31.232,5.035C245.888,198.4,245.696,202.688,245.504,207.211z"/>
	</g>
</g>
<g>
	<g>
		<path d="M298.965,181.333c-49.323,0-42.667,14.336-42.667,32s29.461,32,53.035,32c23.573,0,32.299-14.336,32.299-32
			S350.08,181.333,298.965,181.333z"/>
	</g>
</g>
<g>
	<g>
		<path d="M346.304,182.272c-7.744-8.235-21.461-11.605-47.339-11.605c-24.875,0-38.827,3.477-46.635,11.605
			c-7.616,7.936-7.189,17.856-6.848,25.835c0.085,1.707,0.149,3.456,0.149,5.227c0,26.432,37.099,42.667,63.701,42.667
			c26.496,0,42.965-16.363,42.944-42.688c0-2.027,0.149-4.032,0.256-5.952C353.024,199.659,353.643,190.08,346.304,182.272z
			 M331.264,206.037c-0.149,2.347-0.299,4.8-0.299,7.296c0,14.741-6.677,21.333-21.632,21.333
			c-20.459,0-42.368-12.523-42.368-21.333c0-2.091-0.085-4.139-0.171-6.123c-0.192-4.523-0.384-8.811,0.939-10.176
			c1.451-1.493,7.403-5.035,31.232-5.035c25.237,0,30.72,3.733,31.808,4.885C331.776,197.973,331.52,202.069,331.264,206.037z"/>
	</g>
</g>
<g>
	<g>
		<path d="M375.701,96.256C359.083,45.824,328.853,0,298.667,0C279.147,0,264.512,9.344,256,16.747
			C247.488,9.344,232.853,0,213.333,0c-30.187,0-60.416,45.824-77.035,96.256c-82.24,14.187-93.632,28.757-93.632,42.411
			C42.667,180.779,176.768,192,256,192s213.333-11.221,213.333-53.333C469.333,125.013,457.941,110.443,375.701,96.256z
			 M360.192,102.827C358.037,105.408,336.875,128,256,128s-102.037-22.592-104.192-25.173c-3.776-4.523-3.157-11.264,1.365-15.019
			c4.437-3.691,10.987-3.179,14.784,1.088c0.853,0.811,19.413,17.771,88.043,17.771c69.973,0,87.893-17.621,88.064-17.792
			c4.011-4.096,10.667-4.437,14.933-0.64C363.264,92.053,363.861,98.432,360.192,102.827z"/>
	</g>
</g>
<g>
	<g>
		<path d="M185.024,492.459l-42.773-28.501c-6.763-4.501-11.541-11.349-13.397-19.285c-0.853-3.584-3.499-6.485-6.997-7.659
			l-3.989-1.344c-4.693-1.557-9.003-4.224-12.501-7.723l-33.323-33.323c-3.605-3.605-9.259-4.181-13.461-1.344
			C21.355,418.112,0,457.493,0,501.333C0,507.221,4.779,512,10.667,512h168.427c4.693,0,8.853-3.072,10.219-7.573
			S188.928,495.061,185.024,492.459z"/>
	</g>
</g>
<g>
	<g>
		<path d="M447.701,349.547c-0.853-3.605-3.499-6.507-7.019-7.659l-64-21.333c-4.48-1.493-9.472,0.149-12.16,4.075L256,482.517
			L147.456,324.629c-2.688-3.925-7.637-5.568-12.16-4.075l-64,21.333c-3.52,1.173-6.165,4.053-7.019,7.659
			c-0.853,3.584,0.235,7.381,2.837,9.984l53.333,53.333c1.173,1.173,2.603,2.048,4.16,2.581l24.725,8.235v13.653
			c0,3.563,1.771,6.891,4.757,8.875l95.872,63.915c0.619,0.427,1.28,0.789,1.941,1.067c1.323,0.533,2.709,0.811,4.096,0.811
			c1.408,0,2.816-0.277,4.139-0.832c0.661-0.277,1.301-0.619,1.877-1.045l95.893-63.915c2.987-1.984,4.757-5.312,4.757-8.875V423.68
			l24.704-8.235c1.579-0.512,3.008-1.408,4.16-2.581l53.333-53.333C447.488,356.907,448.555,353.131,447.701,349.547z"/>
	</g>
</g>
<g>
	<g>
		<path d="M453.397,393.301c-4.203-2.837-9.856-2.261-13.461,1.344l-33.344,33.344c-3.499,3.499-7.808,6.165-12.501,7.723
			l-3.968,1.323c-3.499,1.173-6.144,4.053-6.997,7.659c-1.856,7.936-6.635,14.763-13.397,19.285l-42.752,28.501
			c-3.904,2.603-5.653,7.467-4.288,11.968S328.213,512,332.907,512h168.427c5.888,0,10.667-4.779,10.667-10.667
			C512,457.493,490.645,418.112,453.397,393.301z"/>
	</g>
</g>
<g>
</g>
<g>
</g>
<g>
</g>
<g>
</g>
<g>
</g>
<g>
</g>
<g>
</g>
<g>
</g>
<g>
</g>
<g>
</g>
<g>
</g>
<g>
</g>
<g>
</g>
<g>
</g>
<g>
</g>
</svg>
