<?xml version="1.0" encoding="iso-8859-1"?>
<!-- Generator: Adobe Illustrator 19.0.0, SVG Export Plug-In . SVG Version: 6.00 Build 0)  -->
<svg version="1.1" id="Capa_1" xmlns="http://www.w3.org/2000/svg" xmlns:xlink="http://www.w3.org/1999/xlink" x="0px" y="0px"
	 viewBox="0 0 512 512" style="enable-background:new 0 0 512 512;" xml:space="preserve">
<g>
	<g>
		<path d="M501.333,324.916h-96v-85.333h32c17.643,0,32-14.357,32-32c0-17.643-14.357-32-32-32H160c-17.643,0-32,14.357-32,32
			c0,17.643,14.357,32,32,32h32v85.333H96c-41.173,0-74.667-33.493-74.667-74.667c0-26.517,14.272-51.285,37.227-64.619
			c5.099-2.965,6.827-9.493,3.883-14.592c-2.965-5.077-9.451-6.784-14.592-3.861C18.325,184.329,0,216.137,0,250.249
			c0,52.928,43.072,96,96,96h405.333c5.888,0,10.667-4.779,10.667-10.667S507.221,324.916,501.333,324.916z M384,324.916H213.333
			v-85.333H384V324.916z"/>
	</g>
</g>
<g>
</g>
<g>
</g>
<g>
</g>
<g>
</g>
<g>
</g>
<g>
</g>
<g>
</g>
<g>
</g>
<g>
</g>
<g>
</g>
<g>
</g>
<g>
</g>
<g>
</g>
<g>
</g>
<g>
</g>
</svg>
