<?xml version="1.0" encoding="iso-8859-1"?>
<!-- Generator: Adobe Illustrator 19.0.0, SVG Export Plug-In . SVG Version: 6.00 Build 0)  -->
<svg version="1.1" id="Capa_1" xmlns="http://www.w3.org/2000/svg" xmlns:xlink="http://www.w3.org/1999/xlink" x="0px" y="0px"
	 viewBox="0 0 490.667 490.667" style="enable-background:new 0 0 490.667 490.667;" xml:space="preserve">
<g>
	<g>
		<path d="M234.702,213.333h10.667V192c-60.587,0-102.08-8.021-119.189-42.581c-63.104,0.896-75.499,45.035-83.328,94.251
			C36.388,284.224,11.364,405.995,11.001,408c-2.24,17.195,9.387,32.853,26.453,35.691l23.317,3.904
			c17.152,2.901,33.259-8.277,36.565-24.939l20.032-85.333v121.344c0,17.643,14.357,32,32,32h96V448h-10.667
			c-5.888,0-10.667-4.779-10.667-10.667s4.779-10.667,10.667-10.667h10.667v-21.333h-10.667c-5.888,0-10.667-4.779-10.667-10.667
			c0-5.888,4.779-10.667,10.667-10.667h10.667v-21.333h-10.667c-5.888,0-10.667-4.779-10.667-10.667
			c0-5.888,4.779-10.667,10.667-10.667h10.667V320h-10.667c-5.888,0-10.667-4.779-10.667-10.667s4.779-10.667,10.667-10.667h10.667
			v-21.333h-10.667c-5.888,0-10.667-4.779-10.667-10.667S228.814,256,234.702,256h10.667v-21.333h-10.667
			c-5.888,0-10.667-4.779-10.667-10.667S228.814,213.333,234.702,213.333z"/>
	</g>
</g>
<g>
	<g>
		<path d="M479.63,407.211c-0.277-1.237-25.301-123.008-31.723-163.563c-7.829-49.216-20.224-93.355-83.349-94.251
			c-15.019,30.357-48.853,40.235-97.856,42.197v299.072h74.667c17.643,0,32-14.357,32-32V337.323l19.989,84.949
			c3.392,17.045,19.392,28.181,36.629,25.301l23.317-3.904C470.393,440.832,482.02,425.152,479.63,407.211z"/>
	</g>
</g>
<g>
	<g>
		<path d="M245.369,0c-59.093,0-106.667,57.195-106.667,104.533c0,51.307,23.936,66.133,106.667,66.133
			c7.659,0,14.656-0.171,21.333-0.448v-33.024c-6.805,0.875-13.867,1.472-21.333,1.472c-41.237,0-74.667-13.205-74.667-42.667
			c0-29.461,33.429-64,74.667-64s74.667,34.539,74.667,64c0,18.112-12.693,30.016-32,36.565v36.139
			c48.576-5.419,64-23.083,64-64.149C352.036,57.195,304.462,0,245.369,0z"/>
	</g>
</g>
<g>
</g>
<g>
</g>
<g>
</g>
<g>
</g>
<g>
</g>
<g>
</g>
<g>
</g>
<g>
</g>
<g>
</g>
<g>
</g>
<g>
</g>
<g>
</g>
<g>
</g>
<g>
</g>
<g>
</g>
</svg>
