<?xml version="1.0" encoding="iso-8859-1"?>
<!-- Generator: Adobe Illustrator 19.0.0, SVG Export Plug-In . SVG Version: 6.00 Build 0)  -->
<svg version="1.1" id="Capa_1" xmlns="http://www.w3.org/2000/svg" xmlns:xlink="http://www.w3.org/1999/xlink" x="0px" y="0px"
	 viewBox="0 0 512 512" style="enable-background:new 0 0 512 512;" xml:space="preserve">
<g>
	<g>
		<path d="M224,64H96c-17.643,0-32,14.357-32,32v42.667c0,17.643,14.357,32,32,32h128c17.643,0,32-14.357,32-32V96
			C256,78.357,241.643,64,224,64z"/>
	</g>
</g>
<g>
	<g>
		<path d="M224,256c-29.397,0-53.333,23.915-53.333,53.333c0,18.56,9.557,34.901,23.979,44.459l18.155-18.155
			c13.888-13.909,21.867-33.131,21.867-52.8v-25.749C231.211,256.384,227.648,256,224,256z"/>
	</g>
</g>
<g>
	<g>
		<path d="M85.333,192v65.835c0,2.795-1.131,5.547-3.115,7.552l-57.109,57.131c50.496,10.069,90.347,49.92,100.416,100.416
			l53.995-53.995c-18.219-13.653-30.187-35.179-30.187-59.605c0-41.173,33.493-74.667,74.667-74.667
			c3.648,0,7.147,0.576,10.667,1.088V192H85.333z"/>
	</g>
</g>
<g>
	<g>
		<path d="M9.387,342.272C3.456,352.789,0,364.587,0,377.003C0,416.149,31.851,448,71.019,448c12.395,0,24.192-3.456,34.709-9.387
			C101.163,387.392,60.608,346.837,9.387,342.272z"/>
	</g>
</g>
<g>
	<g>
		<path d="M480,64H352c-17.643,0-32,14.357-32,32v42.667c0,17.643,14.357,32,32,32h128c17.643,0,32-14.357,32-32V96
			C512,78.357,497.643,64,480,64z"/>
	</g>
</g>
<g>
	<g>
		<path d="M480,256c-29.397,0-53.333,23.915-53.333,53.333c0,18.56,9.557,34.901,23.979,44.459l18.155-18.155
			c13.888-13.909,21.867-33.131,21.867-52.8v-25.749C487.211,256.384,483.648,256,480,256z"/>
	</g>
</g>
<g>
	<g>
		<path d="M341.333,192v65.835c0,2.795-1.131,5.547-3.115,7.552l-57.109,57.131c50.496,10.069,90.347,49.92,100.416,100.416
			l53.995-53.995c-18.219-13.653-30.187-35.179-30.187-59.605c0-41.173,33.493-74.667,74.667-74.667
			c3.648,0,7.147,0.576,10.667,1.088V192H341.333z"/>
	</g>
</g>
<g>
	<g>
		<path d="M265.387,342.272c-5.931,10.517-9.387,22.315-9.387,34.731C256,416.149,287.851,448,327.019,448
			c12.395,0,24.192-3.456,34.709-9.387C357.163,387.392,316.608,346.837,265.387,342.272z"/>
	</g>
</g>
<g>
</g>
<g>
</g>
<g>
</g>
<g>
</g>
<g>
</g>
<g>
</g>
<g>
</g>
<g>
</g>
<g>
</g>
<g>
</g>
<g>
</g>
<g>
</g>
<g>
</g>
<g>
</g>
<g>
</g>
</svg>
