<?xml version="1.0" encoding="iso-8859-1"?>
<!-- Generator: Adobe Illustrator 19.0.0, SVG Export Plug-In . SVG Version: 6.00 Build 0)  -->
<svg version="1.1" id="Capa_1" xmlns="http://www.w3.org/2000/svg" xmlns:xlink="http://www.w3.org/1999/xlink" x="0px" y="0px"
	 viewBox="0 0 512 512" style="enable-background:new 0 0 512 512;" xml:space="preserve">
<g>
	<g>
		<path d="M437.333,0H352c-15.829,0-29.44,11.797-31.68,27.435c0,0.043,0,0.064,0,0.107c-0.427,2.667-2.539,9.195-3.755,13.12
			c-0.256,0.811-0.448,1.429-0.619,2.005h153.387V32C469.333,14.357,454.976,0,437.333,0z"/>
	</g>
</g>
<g>
	<g>
		<path d="M501.333,490.667h-96v-64H448c23.531,0,42.667-19.136,42.667-42.667H42.859c0.043,10.539,0.96,21.099,9.344,29.568
			c8.981,9.067,24.277,13.099,49.6,13.099h47.531v64H74.667c-29.397,0-53.333-23.915-53.333-53.333
			c0-5.888-4.779-10.667-10.667-10.667S0,431.445,0,437.333C0,478.507,33.493,512,74.667,512h426.667
			c5.888,0,10.667-4.779,10.667-10.667C512,495.445,507.221,490.667,501.333,490.667z M384,490.667H170.667v-64H384V490.667z"/>
	</g>
</g>
<g>
	<g>
		<path d="M479.509,274.112c-6.613-20.8-10.176-46.848-10.176-60.779V64H309.547l-6.4,21.333h38.187
			C347.221,85.333,352,90.112,352,96s-4.779,10.667-10.667,10.667h-44.672c-2.219,7.211-4.48,14.336-6.784,21.333h40.789
			c5.888,0,10.667,4.779,10.667,10.667s-4.779,10.667-10.667,10.667h-48.149c-2.624,7.296-5.355,14.4-8.171,21.333H320
			c5.888,0,10.667,4.779,10.667,10.667S325.888,192,320,192h-54.933c-3.499,7.424-7.253,14.485-11.157,21.333h44.757
			c5.888,0,10.667,4.779,10.667,10.667s-4.779,10.667-10.667,10.667h-58.304c-5.589,7.723-11.648,14.805-18.176,21.333h44.48
			c5.888,0,10.667,4.779,10.667,10.667s-4.779,10.667-10.667,10.667h-71.275c-12.181,7.509-25.749,13.397-41.131,17.259
			l-66.667,16.661c-24.469,6.123-41.92,26.645-44.416,51.413h447.488v-21.333C490.667,324.352,484.416,289.6,479.509,274.112z"/>
	</g>
</g>
<g>
</g>
<g>
</g>
<g>
</g>
<g>
</g>
<g>
</g>
<g>
</g>
<g>
</g>
<g>
</g>
<g>
</g>
<g>
</g>
<g>
</g>
<g>
</g>
<g>
</g>
<g>
</g>
<g>
</g>
</svg>
