<?xml version="1.0" encoding="iso-8859-1"?>
<!-- Generator: Adobe Illustrator 19.0.0, SVG Export Plug-In . SVG Version: 6.00 Build 0)  -->
<svg version="1.1" id="Capa_1" xmlns="http://www.w3.org/2000/svg" xmlns:xlink="http://www.w3.org/1999/xlink" x="0px" y="0px"
	 viewBox="0 0 512 512" style="enable-background:new 0 0 512 512;" xml:space="preserve">
<g>
	<g>
		<path d="M458.667,0h-192c-29.419,0-53.333,23.936-53.333,53.333V96c0,17.643,14.336,32,32,32H480c17.643,0,32-14.357,32-32V53.333
			C512,23.936,488.085,0,458.667,0z"/>
	</g>
</g>
<g>
	<g>
		<path d="M480,448H32c-17.643,0-32,14.357-32,32c0,17.643,14.357,32,32,32h85.333c16.384,0,78.869-1.344,97.515-4.309
			l113.579-16.853c4.8-0.405,9.408,2.155,10.923,5.845l2.453,7.829C343.211,508.971,347.328,512,352,512h128
			c17.643,0,32-14.357,32-32C512,462.357,497.643,448,480,448z"/>
	</g>
</g>
<g>
	<g>
		<path d="M469.333,230.315V160c0-5.888-4.779-10.667-10.667-10.667h-192c-5.909,0-10.667,4.779-10.667,10.667v57.237
			c0,5.995-0.853,11.819-2.304,17.429h44.971c5.888,0,10.667,4.779,10.667,10.667S304.555,256,298.667,256h-27.584l13.781,13.781
			c4.16,4.16,4.16,10.923,0,15.083c-2.069,2.091-4.8,3.136-7.531,3.136c-2.731,0-5.461-1.045-7.552-3.115l-27.051-27.051
			c-3.2,4.416-6.912,8.469-11.115,12.053l31.915,31.915c4.16,4.16,4.16,10.923,0,15.083c-4.16,4.16-10.923,4.16-15.083,0
			l-13.781-13.803V320c0,5.888-4.779,10.667-10.667,10.667s-10.667-4.779-10.667-10.667v-39.125
			c-22.379,9.877-47.552,11.008-71.509,2.475c-17.557-6.208-35.968-7.616-54.677-4.245c-42.261,7.637-76.373,40.811-84.885,82.56
			c-4.565,22.4-1.984,44.843,6.848,65.003h315.2c-2.56-10.581-4.309-21.248-4.309-32C320,318.208,382.208,256,458.667,256
			c1.344,0,2.645,0.085,3.968,0.171l8,0.021C469.845,248.427,469.333,240.064,469.333,230.315z"/>
	</g>
</g>
<g>
	<g>
		<path d="M497.899,331.029c-11.221-19.563-19.093-34.56-23.723-53.419h-10.283c-0.256,0-2.517-0.128-2.773-0.149l-2.453-0.128
			c-64.683,0-117.333,52.651-117.333,117.333c0,10.752,1.92,21.461,4.949,32h156.565c3.733-8.299,6.443-16.853,7.808-25.664
			C514.475,376.427,510.08,352.235,497.899,331.029z"/>
	</g>
</g>
<g>
</g>
<g>
</g>
<g>
</g>
<g>
</g>
<g>
</g>
<g>
</g>
<g>
</g>
<g>
</g>
<g>
</g>
<g>
</g>
<g>
</g>
<g>
</g>
<g>
</g>
<g>
</g>
<g>
</g>
</svg>
