<?xml version="1.0" encoding="iso-8859-1"?>
<!-- Generator: Adobe Illustrator 19.0.0, SVG Export Plug-In . SVG Version: 6.00 Build 0)  -->
<svg version="1.1" id="Capa_1" xmlns="http://www.w3.org/2000/svg" xmlns:xlink="http://www.w3.org/1999/xlink" x="0px" y="0px"
	 viewBox="0 0 511.938 511.938" style="enable-background:new 0 0 511.938 511.938;" xml:space="preserve">
<g>
	<g>
		<path d="M504.367,130.647l-28.053-46.763c-17.259-28.736-48.811-46.592-82.325-46.592c-1.6,0-3.115,0.363-4.48,0.981
			c-3.328-0.64-6.784-0.981-10.24-0.981c-5.888,0-10.667,4.779-10.667,10.667s4.779,10.667,10.667,10.667
			c10.795,0,20.459,5.12,26.496,14.059c6.059,8.939,7.232,19.797,3.285,29.653L299.439,363.82c-0.021,0.043,0,0.064-0.021,0.107
			c0,0.021-0.021,0.043-0.043,0.064l-21.333,53.333c-2.197,5.461,0.448,11.669,5.931,13.845c1.301,0.512,2.645,0.768,3.968,0.768
			c4.224,0,8.235-2.539,9.899-6.699l17.024-42.56l23.531,11.776l-17.685,44.224c-2.197,5.461,0.448,11.669,5.931,13.845
			c1.301,0.512,2.645,0.768,3.968,0.768c4.224,0,8.235-2.539,9.899-6.699l17.024-42.56l23.531,11.776l-17.685,44.224
			c-2.197,5.461,0.448,11.669,5.931,13.845c1.301,0.512,2.645,0.768,3.968,0.768c4.224,0,8.235-2.539,9.899-6.699l21.205-53.013
			l103.445-236.267C514.351,163.073,513.05,145.132,504.367,130.647z"/>
	</g>
</g>
<g>
	<g>
		<path d="M233.882,417.345l-21.355-53.355c-0.021-0.043-0.043-0.043-0.064-0.085c0-0.021,0-0.064-0.021-0.085L102.938,102.508
			c-4.011-10.027-2.837-20.885,3.2-29.824c6.059-8.939,15.723-14.059,26.517-14.059c5.888,0,10.667-4.779,10.667-10.667
			s-4.779-10.667-10.667-10.667c-3.477,0-6.891,0.341-10.24,0.981c-1.344-0.619-2.88-0.981-4.48-0.981
			c-33.515,0-65.067,17.856-82.325,46.613L7.556,130.668c-8.661,14.464-9.984,32.384-3.413,48.128l103.275,235.84l21.312,53.291
			c1.664,4.16,5.675,6.699,9.899,6.699c1.323,0,2.667-0.256,3.968-0.768c5.461-2.197,8.128-8.405,5.952-13.845l-17.685-44.224
			l23.509-11.755l17.024,42.56c1.664,4.16,5.675,6.699,9.899,6.699c1.323,0,2.667-0.256,3.968-0.768
			c5.461-2.197,8.128-8.405,5.952-13.845l-17.685-44.224l23.509-11.755l17.024,42.56c1.664,4.16,5.675,6.699,9.899,6.699
			c1.323,0,2.667-0.256,3.968-0.768C233.391,428.993,236.058,422.785,233.882,417.345z"/>
	</g>
</g>
<g>
	<g>
		<path d="M388.1,84.673c-2.069-3.093-5.12-4.715-8.832-4.715c-17.643,0-32-14.357-32-32c0-3.755,0.768-7.317,1.963-10.667H162.692
			c1.195,3.349,1.963,6.912,1.963,10.667c0,17.643-14.357,32-32,32c-3.712,0-6.784,1.621-8.853,4.693
			c-2.069,3.072-2.453,6.485-1.067,9.941l29.397,70.699h207.424l29.824-71.189C390.575,91.095,390.17,87.724,388.1,84.673z"/>
	</g>
</g>
<g>
</g>
<g>
</g>
<g>
</g>
<g>
</g>
<g>
</g>
<g>
</g>
<g>
</g>
<g>
</g>
<g>
</g>
<g>
</g>
<g>
</g>
<g>
</g>
<g>
</g>
<g>
</g>
<g>
</g>
</svg>
