<?xml version="1.0" encoding="iso-8859-1"?>
<!-- Generator: Adobe Illustrator 19.0.0, SVG Export Plug-In . SVG Version: 6.00 Build 0)  -->
<svg version="1.1" id="Capa_1" xmlns="http://www.w3.org/2000/svg" xmlns:xlink="http://www.w3.org/1999/xlink" x="0px" y="0px"
	 viewBox="0 0 512.423 512.423" style="enable-background:new 0 0 512.423 512.423;" xml:space="preserve">
<g>
	<g>
		<path d="M293.841,278.905c-4.992-3.115-11.413-1.899-14.528,3.115c-0.043,0.064-5.312,6.187-23.317,6.187
			c-17.109,0-22.72-5.547-23.275-6.144c-3.243-4.608-9.557-5.909-14.379-2.901c-4.992,3.115-6.507,9.707-3.392,14.699
			c1.621,2.624,11.307,15.68,41.045,15.68c29.739,0,39.424-13.077,41.045-15.659C300.177,288.868,298.833,282.02,293.841,278.905z"
			/>
	</g>
</g>
<g>
	<g>
		<path d="M294.225,364.879c-2.773-2.005-6.357-2.581-9.6-1.451l-28.629,9.536l-28.629-9.536c-3.264-1.131-6.848-0.555-9.6,1.451
			c-2.795,2.005-4.437,5.227-4.437,8.661v21.333c0,3.413,1.643,6.635,4.437,8.661c2.752,1.984,6.336,2.56,9.6,1.451l28.629-9.536
			l28.629,9.536c1.109,0.384,2.24,0.555,3.371,0.555c2.219,0,4.395-0.704,6.229-2.005c2.795-2.005,4.437-5.227,4.437-8.661V373.54
			C298.663,370.105,297.02,366.884,294.225,364.879z"/>
	</g>
</g>
<g>
	<g>
		<path d="M356.775,342.671c-4.843-2.389-10.795-0.832-13.76,3.776l-87.019,135.381l-87.019-135.381
			c-2.965-4.608-8.96-6.165-13.76-3.776l-68.864,34.432c3.968,18.453,15.701,76.779,19.264,135.104h300.779
			c3.563-58.325,15.275-116.651,19.243-135.104L356.775,342.671z M373.329,469.54h-42.667c-5.888,0-10.667-4.779-10.667-10.667
			s4.779-10.667,10.667-10.667h42.667c5.888,0,10.667,4.779,10.667,10.667S379.217,469.54,373.329,469.54z"/>
	</g>
</g>
<g>
	<g>
		<path d="M66.62,386.959l-21.824,10.923c-13.931,6.976-24.107,19.648-27.904,34.773L0.316,498.937
			c-0.789,3.179-0.085,6.571,1.941,9.152c2.027,2.603,5.12,4.117,8.405,4.117h73.536C80.935,460.921,71.164,408.996,66.62,386.959z"
			/>
	</g>
</g>
<g>
	<g>
		<path d="M510.994,496.185L495.1,432.655c-3.797-15.125-13.952-27.819-27.904-34.773l-21.824-10.923
			c-4.523,22.037-14.293,73.984-17.579,125.248h73.536c0.149,0.021,0.32,0,0.427,0c5.888,0,10.667-4.779,10.667-10.667
			C512.423,499.577,511.89,497.743,510.994,496.185z"/>
	</g>
</g>
<g>
	<g>
		<path d="M401.169,175.865c-1.856-5.589-7.893-8.619-13.483-6.741c-5.589,1.856-8.597,7.893-6.741,13.483
			c2.005,5.973,3.051,12.992,3.051,20.288c0,20.629-7.68,31.957-11.349,31.488c-2.88-1.792-6.485-2.112-9.643-0.832
			s-5.504,4.011-6.336,7.317c-14.933,60.224-55.403,100.672-100.672,100.672c-45.269,0-85.739-40.469-100.672-100.672
			c-0.832-3.307-3.52-5.781-6.677-7.061c-3.179-1.301-7.083-0.725-9.984,1.067c-2.667,0-10.667-11.349-10.667-32
			c0-7.317,1.067-14.315,3.051-20.288c1.856-5.589-1.152-11.627-6.763-13.483c-5.589-1.877-11.627,1.152-13.483,6.741
			c-2.709,8.107-4.139,17.451-4.139,27.029c0,29.696,13.141,52.267,30.741,53.312c19.371,64.235,66.048,106.688,118.592,106.688
			s99.221-42.453,118.571-106.667c17.6-1.024,30.741-23.595,30.741-53.312C405.308,193.316,403.879,183.972,401.169,175.865z"/>
	</g>
</g>
<g>
	<g>
		<path d="M255.996,0.207c-82.347,0-149.333,66.987-149.333,149.333c0,9.899,1.216,20.053,3.84,31.979
			c1.067,4.885,5.397,8.384,10.411,8.384c12.075,0,26.667,2.176,26.816,2.197c0.619,0.085,1.173,0.128,1.813,0.107
			c5.824,0.085,10.88-4.693,10.88-10.667c0-1.301-0.235-2.517-0.64-3.669c-1.301-21.291,0.043-42.816,3.008-49.664h1.621
			c36.885,0,55.275-11.712,63.765-26.496c22.997,22.699,69.248,44.587,113.963,47.488c2.539,17.92,10.389,35.755,10.795,36.651
			c1.707,3.883,5.547,6.357,9.728,6.357c0.277,0,0.576,0,0.875-0.021l28.416-2.325c4.672-0.384,8.533-3.776,9.557-8.341
			c2.603-11.925,3.819-22.08,3.819-31.979C405.329,67.193,338.343,0.207,255.996,0.207z"/>
	</g>
</g>
<g>
	<g>
		<path d="M223.996,192.207h-21.333c-5.888,0-10.667,4.779-10.667,10.667s4.779,10.667,10.667,10.667h21.333
			c5.909,0,10.667-4.779,10.667-10.667S229.884,192.207,223.996,192.207z"/>
	</g>
</g>
<g>
	<g>
		<path d="M309.329,192.207h-21.333c-5.888,0-10.667,4.779-10.667,10.667s4.779,10.667,10.667,10.667h21.333
			c5.909,0,10.667-4.779,10.667-10.667S315.217,192.207,309.329,192.207z"/>
	</g>
</g>
<g>
</g>
<g>
</g>
<g>
</g>
<g>
</g>
<g>
</g>
<g>
</g>
<g>
</g>
<g>
</g>
<g>
</g>
<g>
</g>
<g>
</g>
<g>
</g>
<g>
</g>
<g>
</g>
<g>
</g>
</svg>
