<?xml version="1.0" encoding="iso-8859-1"?>
<!-- Generator: Adobe Illustrator 19.0.0, SVG Export Plug-In . SVG Version: 6.00 Build 0)  -->
<svg version="1.1" id="Capa_1" xmlns="http://www.w3.org/2000/svg" xmlns:xlink="http://www.w3.org/1999/xlink" x="0px" y="0px"
	 viewBox="0 0 512 512" style="enable-background:new 0 0 512 512;" xml:space="preserve">
<g>
	<g>
		<path d="M401.195,175.659c-1.835-5.568-7.936-8.64-13.483-6.763c-5.589,1.856-8.619,7.893-6.763,13.483
			c2.005,5.973,3.051,12.992,3.051,20.288c0,20.715-7.573,32.32-11.328,31.531c-2.88-1.813-6.464-2.133-9.643-0.853
			s-5.547,3.989-6.357,7.317C341.76,300.885,301.291,341.333,256,341.333s-85.76-40.448-100.672-100.672
			c-0.811-3.328-3.52-5.781-6.677-7.083c-3.157-1.259-7.061-0.725-9.984,1.088c-2.645,0-10.667-11.349-10.667-32
			c0-7.296,1.045-14.315,3.029-20.309c1.856-5.589-1.152-11.627-6.763-13.483c-5.589-1.877-11.648,1.195-13.483,6.763
			c-2.688,8.128-4.117,17.472-4.117,27.029c0,29.717,13.12,52.288,30.741,53.312C156.8,320.213,203.456,362.667,256,362.667
			s99.2-42.453,118.592-106.688c17.621-1.024,30.741-23.595,30.741-53.312C405.333,193.109,403.904,183.765,401.195,175.659z"/>
	</g>
</g>
<g>
	<g>
		<path d="M418.88,354.688l-54.869-19.093c-4.032-1.365-8.491-0.277-11.371,2.859C325.76,367.829,291.435,384,256,384
			s-69.76-16.171-96.619-45.525c-2.88-3.136-7.339-4.245-11.371-2.859l-54.869,19.093C37.419,374.059,0,426.688,0,485.675v15.659
			C0,507.221,4.779,512,10.667,512h490.667c5.888,0,10.667-4.779,10.667-10.667v-15.659C512,426.688,474.581,374.059,418.88,354.688
			z"/>
	</g>
</g>
<g>
	<g>
		<path d="M256,0c-82.325,0-149.333,66.987-149.333,149.333c0,9.877,1.216,20.032,3.84,31.957c0.661,3.051,2.645,5.675,5.397,7.147
			c2.773,1.472,6.08,1.643,8.939,0.491c3.115-1.237,66.965-27.179,84.224-84.8c33.301,36.459,109.888,85.547,182.016,85.547
			c5.013,0,9.344-3.499,10.411-8.384c2.624-11.925,3.84-22.08,3.84-31.957C405.333,66.987,338.325,0,256,0z"/>
	</g>
</g>
<g>
	<g>
		<path d="M213.333,170.667c-23.915,0-42.667,14.059-42.667,32c0,17.941,18.752,32,42.667,32s42.667-14.059,42.667-32
			C256,184.725,237.248,170.667,213.333,170.667z M213.333,213.333c-12.843,0-21.333-6.421-21.333-10.667
			c0-4.245,8.491-10.667,21.333-10.667c12.843,0,21.333,6.421,21.333,10.667C234.667,206.912,226.176,213.333,213.333,213.333z"/>
	</g>
</g>
<g>
	<g>
		<path d="M298.667,170.667c-23.915,0-42.667,14.059-42.667,32c0,17.941,18.752,32,42.667,32s42.667-14.059,42.667-32
			C341.333,184.725,322.581,170.667,298.667,170.667z M298.667,213.333c-12.843,0-21.333-6.421-21.333-10.667
			c0-4.245,8.491-10.667,21.333-10.667c12.843,0,21.333,6.421,21.333,10.667C320,206.912,311.509,213.333,298.667,213.333z"/>
	</g>
</g>
<g>
	<g>
		<path d="M274.219,195.115l-10.667-10.667c-4.16-4.16-10.923-4.16-15.083,0l-10.667,10.667c-4.16,4.16-4.16,10.923,0,15.083
			s10.923,4.16,15.083,0l3.115-3.115l3.115,3.136c2.091,2.069,4.821,3.115,7.552,3.115c2.731,0,5.461-1.045,7.552-3.136
			C278.379,206.037,278.379,199.275,274.219,195.115z"/>
	</g>
</g>
<g>
	<g>
		<path d="M404.224,165.909c-2.645-5.291-9.024-7.403-14.315-4.779l-64,32c-5.269,2.645-7.403,9.045-4.779,14.315
			c1.877,3.733,5.632,5.888,9.536,5.888c1.6,0,3.221-0.363,4.779-1.109l64-32C404.715,177.579,406.848,171.179,404.224,165.909z"/>
	</g>
</g>
<g>
	<g>
		<path d="M184.704,192.555l-64-21.333c-5.547-1.877-11.605,1.152-13.504,6.741c-1.856,5.589,1.173,11.627,6.763,13.483l64,21.333
			c1.131,0.384,2.24,0.555,3.371,0.555c4.459,0,8.619-2.816,10.112-7.296C193.301,200.448,190.293,194.411,184.704,192.555z"/>
	</g>
</g>
<g>
	<g>
		<path d="M189.888,313.6L128,231.104v-81.771c0-5.888-4.779-10.667-10.667-10.667s-10.667,4.779-10.667,10.667
			c0,34.453-19.136,110.72-39.552,131.115c-4.16,4.16-4.16,10.923,0,15.083c23.573,23.595,103.851,33.941,112.917,35.051
			c0.448,0.064,0.875,0.085,1.301,0.085c3.776,0,7.317-2.005,9.237-5.333C192.725,321.643,192.448,317.013,189.888,313.6z"/>
	</g>
</g>
<g>
	<g>
		<path d="M444.885,280.448c-20.416-20.395-39.552-96.661-39.552-131.115c0-5.888-4.779-10.667-10.667-10.667
			S384,143.445,384,149.333v81.771L322.133,313.6c-2.56,3.413-2.837,8.021-0.683,11.733c1.92,3.328,5.461,5.333,9.237,5.333
			c0.427,0,0.853-0.021,1.301-0.064c9.067-1.109,89.344-11.456,112.917-35.051C449.045,291.371,449.045,284.629,444.885,280.448z"/>
	</g>
</g>
<g>
</g>
<g>
</g>
<g>
</g>
<g>
</g>
<g>
</g>
<g>
</g>
<g>
</g>
<g>
</g>
<g>
</g>
<g>
</g>
<g>
</g>
<g>
</g>
<g>
</g>
<g>
</g>
<g>
</g>
</svg>
