<?xml version="1.0" encoding="iso-8859-1"?>
<!-- Generator: Adobe Illustrator 19.0.0, SVG Export Plug-In . SVG Version: 6.00 Build 0)  -->
<svg version="1.1" id="Capa_1" xmlns="http://www.w3.org/2000/svg" xmlns:xlink="http://www.w3.org/1999/xlink" x="0px" y="0px"
	 viewBox="0 0 512 512" style="enable-background:new 0 0 512 512;" xml:space="preserve">
<g>
	<g>
		<path d="M365.227,234.987c-5.653-1.451-11.499,2.048-12.907,7.787c-15.083,60.779-51.968,98.56-96.32,98.56
			s-81.237-37.781-96.32-98.56c-1.408-5.739-7.296-9.216-12.907-7.787c-5.717,1.408-9.195,7.189-7.787,12.907
			C156.523,318.677,201.365,362.667,256,362.667s99.477-43.989,117.013-114.773C374.443,242.176,370.944,236.395,365.227,234.987z"
			/>
	</g>
</g>
<g>
	<g>
		<path d="M126.208,175.424l-8.875-13.312v-12.971c0.853,0,1.707,0.085,2.581-0.128c5.717-1.429,9.195-7.211,7.765-12.928
			l-21.333-85.333c-1.152-4.608-5.205-7.893-9.941-8.085c-4.587-0.235-9.024,2.795-10.517,7.296l-21.333,64
			c-1.045,3.115-0.576,6.549,1.237,9.28l42.667,64c2.048,3.093,5.44,4.757,8.875,4.757c2.027,0,4.075-0.576,5.909-1.792
			C128.149,186.944,129.472,180.331,126.208,175.424z"/>
	</g>
</g>
<g>
	<g>
		<path d="M447.445,113.963l-21.333-64c-1.493-4.48-5.803-7.531-10.517-7.275c-4.736,0.171-8.789,3.477-9.941,8.064l-21.333,85.333
			c-1.429,5.717,2.048,11.499,7.765,12.928c0.875,0.213,1.728,0.128,2.581,0.128v12.971l-8.875,13.312
			c-3.264,4.907-1.941,11.52,2.965,14.784c1.813,1.216,3.861,1.792,5.909,1.792c3.456,0,6.827-1.664,8.896-4.757l42.667-64
			C448.021,120.512,448.491,117.077,447.445,113.963z"/>
	</g>
</g>
<g>
	<g>
		<path d="M192,170.667c-21.333,0-21.333,8.021-21.333,10.667S170.667,192,192,192c20.651,0,32-8,32-10.667
			C224,178.667,212.651,170.667,192,170.667z"/>
	</g>
</g>
<g>
	<g>
		<polygon points="256,83.712 247.403,106.667 264.597,106.667 		"/>
	</g>
</g>
<g>
	<g>
		<path d="M405.333,149.333C405.333,66.987,338.347,0,256,0S106.667,66.987,106.667,149.333c0,9.131,1.024,18.453,3.243,29.184
			c-2.133,7.403-3.243,15.701-3.243,24.149c0,30.4,13.76,53.333,33.6,53.483c3.2,0.341,6.485,0.96,10.965-0.171
			c30.976-0.661,90.645-16.917,104.768-20.885c14.144,3.968,73.792,20.245,104.768,20.885c1.899,0.491,3.691,0.576,5.056,0.576
			c1.877,0,4.053-0.192,7.509-0.555c18.24,0,32-22.933,32-53.333c0-8.448-1.109-16.747-3.243-24.149
			C404.309,167.787,405.333,158.464,405.333,149.333z M192,213.333c-39.595,0-42.667-24.491-42.667-32s3.072-32,42.667-32
			c30.4,0,53.333,13.76,53.333,32S222.4,213.333,192,213.333z M239.403,128l-5.397,14.421c-2.069,5.525-8.213,8.299-13.739,6.229
			c-5.504-2.069-8.299-8.213-6.229-13.739l32-85.333c3.115-8.32,16.853-8.32,19.989,0l32,85.333
			c2.069,5.525-0.725,11.669-6.229,13.739c-1.28,0.469-2.539,0.683-3.797,0.683c-4.309,0-8.384-2.645-9.984-6.912L272.597,128
			H239.403z M320,213.333c-30.4,0-53.333-13.76-53.333-32s22.933-32,53.333-32c39.595,0,42.667,24.491,42.667,32
			S359.595,213.333,320,213.333z"/>
	</g>
</g>
<g>
	<g>
		<path d="M320,170.667c-20.651,0-32,8-32,10.667C288,184,299.349,192,320,192c21.333,0,21.333-8.021,21.333-10.667
			S341.333,170.667,320,170.667z"/>
	</g>
</g>
<g>
	<g>
		<path d="M277.333,490.667c-4.032,0-7.723-2.283-9.536-5.888L256,461.184l-11.797,23.573c-1.813,3.627-5.504,5.909-9.536,5.909
			h-27.584l13.781,13.781c2.005,2.005,2.944,4.736,2.944,7.552H288c0-2.731,1.045-5.461,3.115-7.552l13.803-13.781H277.333z"/>
	</g>
</g>
<g>
	<g>
		<path d="M461.845,369.643l-97.835-34.027c-4.011-1.365-8.469-0.277-11.371,2.859C325.739,367.829,291.413,384,256,384
			s-69.739-16.171-96.64-45.525c-2.901-3.136-7.36-4.245-11.371-2.859l-97.835,34.027C20.139,380.075,0,408.427,0,440.171v61.163
			C0,507.221,4.779,512,10.667,512h183.445l2.475-1.664l-22.805-22.805c-3.051-3.051-3.968-7.637-2.304-11.627
			c1.643-3.968,5.547-6.571,9.856-6.571h46.741l18.389-36.779c3.627-7.232,15.467-7.232,19.093,0l18.368,36.779h46.741
			c4.309,0,8.213,2.603,9.856,6.592c1.664,3.989,0.747,8.576-2.304,11.627L313.749,512h187.584c5.888,0,10.667-4.779,10.667-10.667
			v-61.163C512,408.427,491.861,380.075,461.845,369.643z"/>
	</g>
</g>
<g>
	<g>
		<path d="M277.333,277.333h-42.667c-5.888,0-10.667,4.779-10.667,10.667s4.779,10.667,10.667,10.667h42.667
			c5.888,0,10.667-4.779,10.667-10.667S283.221,277.333,277.333,277.333z"/>
	</g>
</g>
<g>
</g>
<g>
</g>
<g>
</g>
<g>
</g>
<g>
</g>
<g>
</g>
<g>
</g>
<g>
</g>
<g>
</g>
<g>
</g>
<g>
</g>
<g>
</g>
<g>
</g>
<g>
</g>
<g>
</g>
</svg>
