<?xml version="1.0" encoding="iso-8859-1"?>
<!-- Generator: Adobe Illustrator 19.0.0, SVG Export Plug-In . SVG Version: 6.00 Build 0)  -->
<svg version="1.1" id="Capa_1" xmlns="http://www.w3.org/2000/svg" xmlns:xlink="http://www.w3.org/1999/xlink" x="0px" y="0px"
	 viewBox="0 0 512.424 512.424" style="enable-background:new 0 0 512.424 512.424;" xml:space="preserve">
<g>
	<g>
		<path d="M294.224,364.662c-2.8-2.1-6.4-2.6-9.6-1.5l-28.6,9.5l-28.6-9.5c-3.3-1.1-6.8-0.5-9.6,1.5c-2.8,2-4.4,5.3-4.4,8.7v21.3
			c0,3.5,1.6,6.7,4.4,8.7c2.8,2,6.3,2.6,9.6,1.5l28.6-9.5l28.6,9.5c1.1,0.4,2.3,0.6,3.4,0.6c2.2,0,4.4-0.7,6.2-2.1
			c2.8-2,4.4-5.3,4.4-8.7v-21.3C298.624,369.862,297.024,366.662,294.224,364.662z"/>
	</g>
</g>
<g>
	<g>
		<path d="M356.724,342.662c-4.8-2.4-10.8-0.8-13.8,3.8l-87,135.4l-87-135.4c-3-4.6-9-6.2-13.8-3.8l-68.9,34.4
			c4.1,18.4,15.8,76.8,19.4,135.1h300.8c3.6-58.3,15.3-116.7,19.2-135.1L356.724,342.662z M373.424,469.562h-42.7
			c-5.9,0-10.7-4.8-10.7-10.7s4.8-10.7,10.7-10.7h42.7c5.9,0,10.7,4.8,10.7,10.7S379.324,469.562,373.424,469.562z"/>
	</g>
</g>
<g>
	<g>
		<path d="M66.624,386.962l-21.8,10.9c-13.9,7-24.1,19.6-27.9,34.8l-16.6,66.3c-0.8,3.2-0.1,6.6,1.9,9.2c2,2.6,5.1,4.1,8.4,4.1h73.6
			C80.924,460.862,71.224,408.962,66.624,386.962z"/>
	</g>
</g>
<g>
	<g>
		<path d="M511.024,496.162l-15.9-63.5c-3.8-15.1-14-27.8-27.9-34.8l-21.8-10.9c-4.5,22-14.3,74-17.6,125.2h73.5c0.1,0,0.3,0,0.4,0
			c5.9,0,10.7-4.8,10.7-10.7C512.424,499.562,511.924,497.662,511.024,496.162z"/>
	</g>
</g>
<g>
	<g>
		<path d="M224.424,192.162h-21.3c-5.9,0-10.7,4.7-10.7,10.6s4.8,10.7,10.7,10.7h21.3c5.9,0,10.7-4.7,10.7-10.6
			S230.324,192.162,224.424,192.162z"/>
	</g>
</g>
<g>
	<g>
		<path d="M309.724,192.062h-21.3c-5.9,0-10.7,4.8-10.7,10.7s4.8,10.7,10.7,10.7h21.3c5.9,0,10.7-4.8,10.7-10.7
			S315.624,192.062,309.724,192.062z"/>
	</g>
</g>
<g>
	<g>
		<path d="M445.324,280.562c-20.4-20.4-39.5-96.7-39.5-131.1c0-82.3-67-149.3-149.3-149.3s-149.4,67-149.4,149.3
			c0,34.5-19.1,110.7-39.6,131.1c-4.2,4.2-4.2,10.9,0,15.1c23.6,23.6,103.9,33.9,112.9,35.1c0.4,0.1,0.9,0.1,1.3,0.1
			c21.2,20.3,47.1,32,74.7,32c27.5,0,53.4-11.7,74.7-32c0.4,0,0.9,0,1.3-0.1c9.1-1.1,89.3-11.5,112.9-35.1
			C449.524,291.562,449.524,284.762,445.324,280.562z M373.024,234.362c-2.9-1.8-6.5-2.1-9.6-0.9c-3.2,1.3-5.5,4-6.4,7.3
			c-14.8,60.3-55.3,100.7-100.6,100.7s-85.8-40.4-100.7-100.7c-0.8-3.3-3.5-5.8-6.7-7.1c-3.2-1.3-7.1-0.7-10,1.1
			c-2.6,0-10.7-11.3-10.7-32c0-5.6,0.6-11,1.8-15.9c15.9-7.4,64.6-33.5,79.3-82.6c32,35.1,104.1,81.8,173.7,85.3
			c0.8,4.2,1.2,8.7,1.2,13.3C384.324,223.562,376.724,235.162,373.024,234.362z"/>
	</g>
</g>
<g>
	<g>
		<path d="M293.324,279.662c-4.7-2.9-10.9-1.5-13.8,3.2c0,0.1-5.8,6-23.5,6c-17.7,0-23.5-5.9-23.5-6c-2.9-4.7-9.1-6.1-13.8-3.2
			c-4.7,2.9-6.1,9.1-3.2,13.8c1.6,2.6,11.1,15.4,40.5,15.4c29.4,0,38.9-12.8,40.5-15.4
			C299.424,288.762,298.024,282.662,293.324,279.662z"/>
	</g>
</g>
<g>
</g>
<g>
</g>
<g>
</g>
<g>
</g>
<g>
</g>
<g>
</g>
<g>
</g>
<g>
</g>
<g>
</g>
<g>
</g>
<g>
</g>
<g>
</g>
<g>
</g>
<g>
</g>
<g>
</g>
</svg>
