<?xml version="1.0" encoding="iso-8859-1"?>
<!-- Generator: Adobe Illustrator 19.0.0, SVG Export Plug-In . SVG Version: 6.00 Build 0)  -->
<svg version="1.1" id="Capa_1" xmlns="http://www.w3.org/2000/svg" xmlns:xlink="http://www.w3.org/1999/xlink" x="0px" y="0px"
	 viewBox="0 0 512 512" style="enable-background:new 0 0 512 512;" xml:space="preserve">
<g>
	<g>
		<path d="M224,213.333h-21.333c-5.888,0-10.667,4.779-10.667,10.667s4.779,10.667,10.667,10.667H224
			c5.888,0,10.667-4.779,10.667-10.667S229.888,213.333,224,213.333z"/>
	</g>
</g>
<g>
	<g>
		<path d="M309.333,213.333H288c-5.888,0-10.667,4.779-10.667,10.667s4.779,10.667,10.667,10.667h21.333
			c5.888,0,10.667-4.779,10.667-10.667S315.221,213.333,309.333,213.333z"/>
	</g>
</g>
<g>
	<g>
		<path d="M383.403,173.781c0.32-12.416,0.597-33.131,0.597-35.115c0-5.888-4.779-10.667-10.667-10.667
			c-5.888,0-10.667,4.779-10.667,10.667c0,4.907-0.555,38.357-0.875,41.728c-0.32,3.2,0.811,6.379,3.051,8.64
			c2.261,2.283,5.483,3.328,8.619,3.093c0.107-0.021,0.213-0.021,0.32-0.043C376.811,193.237,384,204.437,384,224
			c0,20.608-7.595,32.192-11.285,31.531c-2.923-1.813-6.507-2.112-9.643-0.832c-3.157,1.301-5.504,4.011-6.336,7.317
			C341.781,322.219,301.312,362.667,256,362.667s-85.781-40.448-100.715-100.651c-0.853-3.328-3.52-5.803-6.656-7.083
			c-3.221-1.301-7.083-0.704-9.963,1.067C136.021,256,128,244.651,128,224c0-19.563,7.189-30.763,10.197-31.915
			c0.107,0.021,0.213,0.043,0.32,0.043c3.157,0.256,6.293-0.853,8.576-3.093c2.24-2.219,3.392-5.419,3.093-8.576
			c-0.299-3.435-0.853-36.885-0.853-41.792c0-5.888-4.779-10.667-10.667-10.667S128,132.779,128,138.667
			c0,1.941,0.277,22.016,0.597,34.496c-13.013,6.72-21.931,26.347-21.931,50.837c0,29.675,13.099,52.224,30.677,53.291
			C156.736,341.547,203.435,384,256,384s99.264-42.453,118.656-106.709c17.579-1.067,30.677-23.616,30.677-53.291
			C405.333,200.107,396.843,180.843,383.403,173.781z"/>
	</g>
</g>
<g>
	<g>
		<path d="M175.659,321.216c-5.163-2.709-11.648-0.768-14.421,4.459l-19.157,36.352c-2.752,5.227-0.747,11.669,4.459,14.421
			c1.579,0.832,3.285,1.237,4.971,1.237c3.797,0,7.509-2.069,9.451-5.696l19.157-36.352
			C182.869,330.411,180.864,323.968,175.659,321.216z"/>
	</g>
</g>
<g>
	<g>
		<path d="M369.941,362.027l-19.157-36.352c-2.773-5.227-9.259-7.168-14.421-4.459c-5.205,2.752-7.211,9.195-4.459,14.421
			l19.157,36.352c1.899,3.627,5.611,5.696,9.429,5.696c1.707,0,3.413-0.384,4.992-1.237
			C370.688,373.696,372.693,367.253,369.941,362.027z"/>
	</g>
</g>
<g>
	<g>
		<path d="M382.379,47.68C381.163,45.739,351.488,0,256,0S130.837,45.739,129.621,47.68c-1.067,1.685-1.621,3.648-1.621,5.653
			v85.333c0,3.947,2.176,7.552,5.653,9.408c1.728,0.917,43.264,22.592,122.347,22.592s120.619-21.675,122.347-22.592
			c3.477-1.856,5.653-5.461,5.653-9.408V53.333C384,51.328,383.445,49.365,382.379,47.68z M344.661,74.133
			c-1.387,0.469-34.688,11.2-88.661,11.2s-87.275-10.731-88.661-11.2c-5.589-1.835-8.619-7.851-6.784-13.44
			c1.813-5.589,7.893-8.683,13.44-6.827C174.293,53.952,205.717,64,256,64s81.707-10.048,82.027-10.133
			c5.589-1.856,11.627,1.237,13.44,6.827C353.301,66.283,350.251,72.299,344.661,74.133z"/>
	</g>
</g>
<g>
	<g>
		<path d="M418.88,376.021l-54.869-19.093c-4.011-1.365-8.491-0.277-11.371,2.859c-26.88,29.376-61.205,45.547-96.64,45.547
			s-69.76-16.171-96.619-45.525c-2.901-3.136-7.36-4.245-11.371-2.859l-54.869,19.093C35.691,396.011,0,444.011,0,501.333
			C0,507.221,4.779,512,10.667,512h490.667c5.888,0,10.667-4.779,10.667-10.667C512,444.011,476.309,396.011,418.88,376.021z
			 M224,469.333c-5.888,0-10.667-4.779-10.667-10.667S218.112,448,224,448s10.667,4.779,10.667,10.667S229.888,469.333,224,469.333z
			 M288,469.333c-5.888,0-10.667-4.779-10.667-10.667S282.112,448,288,448s10.667,4.779,10.667,10.667S293.888,469.333,288,469.333z
			"/>
	</g>
</g>
<g>
	<g>
		<path d="M293.845,300.032c-4.992-3.115-11.413-1.877-14.528,3.115c-0.043,0.064-5.312,6.187-23.317,6.187
			c-17.109,0-22.699-5.525-23.275-6.144c-3.243-4.608-9.557-5.909-14.379-2.901c-4.992,3.115-6.507,9.707-3.392,14.699
			c1.621,2.624,11.307,15.68,41.045,15.68s39.424-13.056,41.045-15.659C300.181,309.995,298.837,303.147,293.845,300.032z"/>
	</g>
</g>
<g>
</g>
<g>
</g>
<g>
</g>
<g>
</g>
<g>
</g>
<g>
</g>
<g>
</g>
<g>
</g>
<g>
</g>
<g>
</g>
<g>
</g>
<g>
</g>
<g>
</g>
<g>
</g>
<g>
</g>
</svg>
