<?xml version="1.0" encoding="iso-8859-1"?>
<!-- Generator: Adobe Illustrator 19.0.0, SVG Export Plug-In . SVG Version: 6.00 Build 0)  -->
<svg version="1.1" id="Capa_1" xmlns="http://www.w3.org/2000/svg" xmlns:xlink="http://www.w3.org/1999/xlink" x="0px" y="0px"
	 viewBox="0 0 512.039 512.039" style="enable-background:new 0 0 512.039 512.039;" xml:space="preserve">
<g>
	<g>
		<path d="M502.852,0.146c-5.76-0.853-11.221,3.221-12.053,9.045l-13.632,95.424l-8.128-32.491
			c-1.088-4.331-4.757-7.531-9.195-8.021c-4.608-0.512-8.725,1.856-10.709,5.824l-11.776,23.595l-33.131-66.24
			c-2.048-4.053-6.251-6.4-10.965-5.803c-4.523,0.597-8.149,4.011-9.045,8.469l-32.192,161.045L319.812,29.948
			c-1.024-5.099-4.885-8.491-10.795-8.576c-5.205,0.171-9.536,4.053-10.219,9.237l-51.563,378.027L213.295,52.37
			c-0.491-5.376-4.949-9.536-10.347-9.664c-5.461,0.277-10.048,3.819-10.816,9.152l-32.917,230.421L127.876,94.29
			c-0.789-4.843-4.8-8.491-9.685-8.896c-4.736-0.213-9.387,2.624-10.944,7.253l-8.64,25.92L85.145,51.282
			c-1.003-4.992-5.376-8.576-10.453-8.576s-9.451,3.584-10.453,8.576L36.377,190.546L21.316,9.81
			C20.847,3.943,15.727-0.58,9.796,0.06C3.929,0.551-0.423,5.692,0.047,11.58l21.333,256c0.448,5.312,4.715,9.451,10.027,9.771
			c4.928,0.213,10.027-3.349,11.072-8.555l32.213-161.045l10.88,54.379c0.939,4.736,4.971,8.256,9.792,8.555
			c4.864,0.043,9.259-2.688,10.773-7.275l7.765-23.253l35.605,213.632c0.853,5.141,5.312,8.917,10.517,8.917
			c0.043,0,0.085,0,0.128,0c5.269-0.064,9.685-3.968,10.432-9.173l29.995-209.899l34.176,358.763
			c0.491,5.376,4.971,9.536,10.389,9.643c0.064,0,0.149,0,0.213,0c5.333,0,9.835-3.947,10.581-9.237L311.364,96.38l30.208,151.083
			c1.003,4.992,5.376,8.576,10.453,8.576c5.077,0,9.451-3.584,10.453-8.576l36.565-182.848l28.779,57.536
			c3.627,7.232,15.467,7.232,19.093,0l8.448-16.875L469.7,162.62c1.216,4.971,5.824,8.341,10.859,8.085
			c5.099-0.277,9.301-4.096,10.027-9.152L511.919,12.22C512.751,6.375,508.697,0.978,502.852,0.146z"/>
	</g>
</g>
<g>
</g>
<g>
</g>
<g>
</g>
<g>
</g>
<g>
</g>
<g>
</g>
<g>
</g>
<g>
</g>
<g>
</g>
<g>
</g>
<g>
</g>
<g>
</g>
<g>
</g>
<g>
</g>
<g>
</g>
</svg>
