<?xml version="1.0" encoding="iso-8859-1"?>
<!-- Generator: Adobe Illustrator 19.0.0, SVG Export Plug-In . SVG Version: 6.00 Build 0)  -->
<svg version="1.1" id="Capa_1" xmlns="http://www.w3.org/2000/svg" xmlns:xlink="http://www.w3.org/1999/xlink" x="0px" y="0px"
	 viewBox="0 0 512 512" style="enable-background:new 0 0 512 512;" xml:space="preserve">
<g>
	<g>
		<path d="M418.88,354.688l-54.869-19.093c-4.032-1.387-8.491-0.277-11.371,2.859c-6.677,7.296-13.824,16.235-21.376,25.685
			C308.992,392,281.301,426.667,256,426.667S203.008,392,180.757,364.16c-7.552-9.429-14.677-18.368-21.376-25.685
			c-2.88-3.136-7.339-4.245-11.371-2.859l-54.869,19.093C37.419,374.059,0,426.688,0,485.675v15.659C0,507.221,4.779,512,10.667,512
			h490.667c5.888,0,10.667-4.779,10.667-10.667v-15.659C512,426.688,474.581,374.059,418.88,354.688z"/>
	</g>
</g>
<g>
	<g>
		<path d="M208,170.667c-20.587,0-37.333,16.747-37.333,37.333s16.747,37.333,37.333,37.333s37.333-16.747,37.333-37.333
			S228.587,170.667,208,170.667z M208,224c-8.811,0-16-7.168-16-16s7.189-16,16-16s16,7.168,16,16S216.811,224,208,224z"/>
	</g>
</g>
<g>
	<g>
		<path d="M304,170.667c-20.587,0-37.333,16.747-37.333,37.333s16.747,37.333,37.333,37.333s37.333-16.747,37.333-37.333
			S324.587,170.667,304,170.667z M304,224c-8.811,0-16-7.168-16-16s7.189-16,16-16s16,7.168,16,16S312.811,224,304,224z"/>
	</g>
</g>
<g>
	<g>
		<path d="M282.624,198.741C281.408,198.059,270.421,192,256,192s-25.408,6.059-26.624,6.763c-5.099,2.901-6.869,9.344-3.989,14.464
			c2.859,5.099,9.323,6.976,14.507,4.075c0.064-0.043,7.275-3.968,16.107-3.968s16.043,3.925,16.043,3.925
			c1.664,0.96,3.477,1.408,5.291,1.408c3.691,0,7.296-1.92,9.28-5.376C289.515,208.171,287.744,201.664,282.624,198.741z"/>
	</g>
</g>
<g>
	<g>
		<path d="M239.424,107.776c-5.269-2.581-11.648-0.491-14.315,4.779L217.408,128h-14.741c-4.032,0-7.723,2.283-9.536,5.888
			l-10.667,21.333c-2.624,5.269-0.512,11.691,4.757,14.315c1.557,0.768,3.179,1.131,4.779,1.131c3.904,0,7.659-2.155,9.536-5.888
			l7.723-15.445H224c4.032,0,7.723-2.283,9.536-5.909l10.667-21.333C246.827,116.821,244.693,110.421,239.424,107.776z"/>
	</g>
</g>
<g>
	<g>
		<path d="M187.243,193.792l-32-21.333c-4.864-3.264-11.499-1.941-14.784,2.965c-3.264,4.907-1.941,11.52,2.965,14.784l32,21.333
			c1.813,1.216,3.861,1.792,5.909,1.792c3.435,0,6.805-1.664,8.875-4.757C193.472,203.669,192.128,197.056,187.243,193.792z"/>
	</g>
</g>
<g>
	<g>
		<path d="M371.541,175.424c-3.285-4.928-9.941-6.229-14.784-2.965l-32,21.333c-4.907,3.264-6.229,9.877-2.965,14.784
			c2.069,3.093,5.44,4.757,8.875,4.757c2.048,0,4.096-0.576,5.909-1.792l32-21.333C373.483,186.944,374.805,180.331,371.541,175.424
			z"/>
	</g>
</g>
<g>
	<g>
		<path d="M401.173,175.637c-1.856-5.589-7.893-8.619-13.483-6.741c-5.589,1.856-8.597,7.893-6.741,13.483
			c2.005,5.973,3.051,12.992,3.051,20.288c0,20.629-7.68,31.979-11.349,31.509c-2.88-1.792-6.485-2.112-9.643-0.832
			s-5.504,4.011-6.336,7.317C341.739,300.885,301.291,341.333,256,341.333s-85.739-40.448-100.672-100.672
			c-0.832-3.307-3.52-5.781-6.677-7.061c-3.179-1.301-7.083-0.725-9.984,1.067c-2.667,0-10.667-11.349-10.667-32
			c0-7.296,1.045-14.315,3.051-20.288c1.856-5.568-1.152-11.627-6.763-13.483c-5.589-1.877-11.627,1.152-13.483,6.741
			c-2.709,8.107-4.139,17.451-4.139,27.029c0,29.717,13.141,52.288,30.741,53.312C156.779,320.213,203.456,362.667,256,362.667
			s99.221-42.453,118.592-106.688c17.6-1.024,30.741-23.595,30.741-53.312C405.333,193.088,403.904,183.744,401.173,175.637z"/>
	</g>
</g>
<g>
	<g>
		<path d="M256,0c-82.347,0-149.333,66.987-149.333,149.333c0,9.899,1.216,20.053,3.84,31.979c1.067,4.885,5.397,8.384,10.411,8.384
			c12.075,0,26.667,2.176,26.816,2.197c0.619,0.085,1.152,0.128,1.813,0.107c5.824,0.085,10.88-4.693,10.88-10.667
			c0-1.301-0.235-2.517-0.64-3.669c-1.301-21.291,0.043-42.816,3.008-49.664h1.621c36.885,0,55.275-11.712,63.765-26.496
			c22.997,22.699,69.248,44.587,113.963,47.488c2.539,17.92,10.389,35.755,10.795,36.651c1.707,3.904,5.547,6.357,9.728,6.357
			c0.277,0,0.576,0,0.875-0.021l28.416-2.325c4.672-0.384,8.533-3.776,9.557-8.341c2.603-11.925,3.819-22.08,3.819-31.979
			C405.333,66.987,338.347,0,256,0z"/>
	</g>
</g>
<g>
</g>
<g>
</g>
<g>
</g>
<g>
</g>
<g>
</g>
<g>
</g>
<g>
</g>
<g>
</g>
<g>
</g>
<g>
</g>
<g>
</g>
<g>
</g>
<g>
</g>
<g>
</g>
<g>
</g>
</svg>
