<?xml version="1.0" encoding="iso-8859-1"?>
<!-- Generator: Adobe Illustrator 19.0.0, SVG Export Plug-In . SVG Version: 6.00 Build 0)  -->
<svg version="1.1" id="Capa_1" xmlns="http://www.w3.org/2000/svg" xmlns:xlink="http://www.w3.org/1999/xlink" x="0px" y="0px"
	 viewBox="0 0 512.022 512.022" style="enable-background:new 0 0 512.022 512.022;" xml:space="preserve">
<g>
	<g>
		<path d="M397.238,154.72c-3.499-3.52-8.085-5.376-13.248-5.376c-5.867,0-10.56,4.736-10.603,10.603
			c-0.043,5.333,3.904,9.792,9.045,10.603c1.643,4.416,1.6,17.024,1.557,26.453v5.675c0,20.651-7.829,32-11.328,31.531
			c-2.923-1.792-6.464-2.091-9.643-0.811c-3.136,1.28-5.483,3.989-6.315,7.296c-14.933,60.203-55.403,100.651-100.715,100.651
			s-85.781-40.448-100.715-100.651c-0.832-3.307-3.499-5.76-6.656-7.061c-3.136-1.259-7.04-0.768-9.963,1.045
			c-2.667,0-10.667-11.349-10.667-32v-5.675c-0.043-9.429-0.107-22.037,1.557-26.453c5.12-0.832,9.067-5.269,9.045-10.603
			c-0.043-5.867-4.736-10.603-10.603-10.603c-5.163,0-9.749,1.856-13.248,5.376c-8.235,8.256-8.171,22.571-8.085,42.368v5.589
			c0,29.675,13.099,52.224,30.677,53.291c19.392,64.256,66.091,106.709,118.656,106.709s99.264-42.453,118.656-106.709
			c17.579-1.067,30.677-23.616,30.677-53.291v-5.589C405.408,177.291,405.472,162.976,397.238,154.72z"/>
	</g>
</g>
<g>
	<g>
		<path d="M287.99,21.344c-5.888,0-10.667,4.779-10.667,10.667h-42.667c0-5.888-4.779-10.667-10.667-10.667
			c-3.605,0-7.147,0.213-10.667,0.533v84.8c0,23.531,19.136,42.667,42.667,42.667s42.667-19.136,42.667-42.667v-84.8
			C295.136,21.558,291.595,21.344,287.99,21.344z"/>
	</g>
</g>
<g>
	<g>
		<path d="M319.99,25.888v80.789c0,35.285-28.715,64-64,64s-64-28.715-64-64V25.888c-49.173,13.973-85.333,59.2-85.333,112.789
			v10.667c0,3.669,1.899,7.104,5.013,9.045l59.392,37.12c18.667,11.669,40.171,17.835,62.187,17.835h45.483
			c22.016,0,43.52-6.165,62.187-17.835l59.392-37.12c3.115-1.941,5.013-5.376,5.013-9.045v-10.667
			C405.323,85.088,369.163,39.862,319.99,25.888z"/>
	</g>
</g>
<g>
	<g>
		<path d="M294.646,13.003c-0.661-0.533-16.491-12.992-38.656-12.992s-37.995,12.459-38.677,12.992
			c-2.517,2.048-3.989,5.099-3.989,8.341v85.333c0,23.531,19.136,42.667,42.667,42.667s42.667-19.136,42.667-42.667V21.344
			C298.656,18.102,297.184,15.051,294.646,13.003z"/>
	</g>
</g>
<g>
	<g>
		<path d="M402.955,425.59c-3.072,5.589-8.427,8.896-12.117,11.157c-5.952,3.669-6.848,4.672-6.848,7.68
			c0,2.923,5.781,3.584,7.808,3.584c0.555,0,13.525-0.128,13.525-10.688C405.323,433.334,404.384,429.344,402.955,425.59z"/>
	</g>
</g>
<g>
	<g>
		<path d="M255.99,384.011c-7.189,0-14.293-0.832-21.333-2.133v130.133h42.667V381.878
			C270.283,383.179,263.179,384.011,255.99,384.011z"/>
	</g>
</g>
<g>
	<g>
		<path d="M159.35,338.486c-3.029-3.285-7.829-4.352-11.904-2.667l-87.744,35.968c-23.189,9.515-39.979,29.867-44.885,54.443
			L0.203,499.254c-0.619,3.136,0.192,6.379,2.219,8.853c2.005,2.475,5.035,3.904,8.235,3.904h202.667V375.862
			C193.632,368.331,175.179,355.766,159.35,338.486z"/>
	</g>
</g>
<g>
	<g>
		<path d="M511.819,499.254l-14.635-73.024c-4.907-24.576-21.696-44.928-44.885-54.443l-87.744-35.968
			c-4.096-1.685-8.896-0.619-11.904,2.667c-15.829,17.28-34.283,29.845-53.973,37.376v136.149h202.667
			c3.2,0,6.229-1.429,8.256-3.904S512.438,502.39,511.819,499.254z M391.798,469.344c-16.896,0-29.141-10.475-29.141-24.917
			c0-15.381,10.645-21.931,17.003-25.835c1.6-0.981,4.032-2.496,4.565-3.221l-0.235-20.693c0-4.267,2.539-8.107,6.443-9.792
			c3.883-1.728,8.448-0.896,11.541,2.027c1.024,0.96,24.683,23.616,24.683,50.411C426.656,458.123,408.694,469.344,391.798,469.344z
			"/>
	</g>
</g>
<g>
	<g>
		<path d="M404.064,144.331c-2.283-4.309-7.296-6.528-12.011-5.333c-4.736,1.195-8.064,5.461-8.064,10.347v78.741l-15.445,7.723
			c-2.539,1.28-4.459,3.499-5.333,6.165l-28.032,84.096c0.512-0.533,1.045-0.981,1.536-1.536c3.989-4.331,10.731-4.587,15.083-0.597
			c4.331,3.989,4.587,10.731,0.597,15.083c-4.288,4.629-8.811,8.811-13.44,12.779l30.997,10.325c1.109,0.384,2.24,0.555,3.371,0.555
			c1.643,0,3.264-0.384,4.779-1.131l42.667-21.333c3.605-1.813,5.888-5.504,5.888-9.536v-42.667
			C426.656,187.83,404.982,146.059,404.064,144.331z"/>
	</g>
</g>
<g>
	<g>
		<path d="M163.147,327.52c3.84-3.797,9.771-3.883,13.931-0.64l-28.309-84.907c-0.896-2.667-2.816-4.885-5.333-6.165l-15.445-7.723
			v-78.741c0-4.885-3.328-9.152-8.085-10.347c-4.736-1.195-9.707,1.003-12.011,5.333c-0.896,1.728-22.571,43.499-22.571,143.68
			v42.667c0,4.032,2.283,7.723,5.888,9.536l42.667,21.333c1.515,0.747,3.136,1.131,4.779,1.131c1.131,0,2.261-0.171,3.371-0.555
			l30.869-10.283c-3.392-2.901-6.699-5.973-9.899-9.237C158.88,338.4,158.944,331.638,163.147,327.52z"/>
	</g>
</g>
<g>
</g>
<g>
</g>
<g>
</g>
<g>
</g>
<g>
</g>
<g>
</g>
<g>
</g>
<g>
</g>
<g>
</g>
<g>
</g>
<g>
</g>
<g>
</g>
<g>
</g>
<g>
</g>
<g>
</g>
</svg>
