<?xml version="1.0" encoding="iso-8859-1"?>
<!-- Generator: Adobe Illustrator 19.0.0, SVG Export Plug-In . SVG Version: 6.00 Build 0)  -->
<svg version="1.1" id="Capa_1" xmlns="http://www.w3.org/2000/svg" xmlns:xlink="http://www.w3.org/1999/xlink" x="0px" y="0px"
	 viewBox="0 0 490.667 490.667" style="enable-background:new 0 0 490.667 490.667;" xml:space="preserve">
<g>
	<g>
		<path d="M480,234.667h-71.445l34.688-23.125c4.885-3.264,6.229-9.877,2.965-14.784c-3.307-4.928-9.941-6.208-14.784-2.965
			l-61.312,40.875H297.6c-1.387-6.784-4.096-13.099-7.808-18.688l51.328-51.328l72.235-14.443c5.781-1.152,9.536-6.763,8.384-12.544
			c-1.173-5.781-7.061-9.536-12.544-8.363l-40.896,8.171l50.517-50.517c4.16-4.16,4.16-10.923,0-15.083
			c-4.16-4.16-10.923-4.16-15.083,0l-50.517,50.517l8.171-40.896c1.173-5.781-2.581-11.392-8.363-12.544
			c-5.717-1.216-11.392,2.581-12.565,8.363l-14.464,72.277l-51.307,51.307c-5.589-3.712-11.883-6.421-18.688-7.808v-72.533
			l40.875-61.312c3.264-4.907,1.941-11.52-2.965-14.784c-4.885-3.221-11.499-1.963-14.784,2.965L256,82.112V10.667
			C256,4.779,251.221,0,245.333,0s-10.667,4.779-10.667,10.667v71.445l-23.125-34.688c-3.264-4.907-9.899-6.251-14.784-2.965
			c-4.907,3.264-6.229,9.877-2.965,14.784l40.875,61.312v72.512c-6.805,1.387-13.099,4.096-18.688,7.808l-51.328-51.307
			l-14.443-72.256c-1.152-5.781-6.72-9.557-12.565-8.384c-5.76,1.173-9.515,6.784-8.363,12.565l8.171,40.896L86.933,71.851
			c-4.16-4.16-10.923-4.16-15.083,0c-4.16,4.16-4.16,10.923,0,15.083l50.517,50.517l-40.875-8.171
			c-5.76-1.195-11.413,2.581-12.565,8.363c-1.152,5.781,2.603,11.392,8.384,12.565l72.256,14.443l51.328,51.328
			c-3.712,5.589-6.421,11.883-7.808,18.688h-72.533l-61.312-40.875c-4.907-3.264-11.541-1.941-14.784,2.965
			c-3.264,4.907-1.941,11.52,2.965,14.784l34.688,23.125H10.667C4.779,234.667,0,239.445,0,245.333S4.779,256,10.667,256h71.445
			l-34.688,23.125c-4.907,3.264-6.229,9.899-2.965,14.784c2.048,3.093,5.44,4.757,8.875,4.757c2.027,0,4.075-0.576,5.909-1.792
			L120.555,256h72.512c1.387,6.805,4.096,13.099,7.808,18.688l-51.307,51.307L77.312,340.48c-5.781,1.152-9.515,6.763-8.363,12.565
			c1.152,5.781,6.805,9.515,12.544,8.363l40.875-8.192l-50.517,50.517c-4.16,4.16-4.16,10.923,0,15.083
			c2.091,2.091,4.821,3.115,7.552,3.115c2.731,0,5.461-1.045,7.552-3.115l50.517-50.517l-8.192,40.896
			c-1.152,5.781,2.603,11.392,8.363,12.544c0.704,0.149,1.408,0.213,2.112,0.213c4.971,0,9.429-3.499,10.453-8.576l14.443-72.256
			l51.328-51.328c5.589,3.712,11.904,6.421,18.688,7.808v72.512l-40.875,61.312c-3.264,4.885-1.941,11.52,2.965,14.784
			c4.885,3.243,11.52,1.92,14.784-2.965l23.125-34.688V480c0,5.888,4.779,10.667,10.667,10.667S256,485.888,256,480v-71.445
			l23.125,34.688c2.069,3.093,5.44,4.757,8.875,4.757c2.048,0,4.096-0.576,5.909-1.792c4.885-3.264,6.229-9.899,2.965-14.784
			L256,370.112V297.6c6.805-1.387,13.099-4.096,18.688-7.808l51.307,51.307l14.464,72.277c1.024,5.056,5.461,8.555,10.432,8.555
			c0.704,0,1.408-0.064,2.133-0.213c5.781-1.152,9.515-6.763,8.363-12.565l-8.192-40.875l50.517,50.517
			c2.091,2.091,4.821,3.115,7.552,3.115c2.731,0,5.461-1.045,7.552-3.115c4.16-4.16,4.16-10.923,0-15.083l-50.517-50.517
			l40.875,8.192c5.675,1.173,11.392-2.56,12.565-8.363s-2.581-11.413-8.363-12.565l-72.277-14.464l-51.307-51.307
			c3.712-5.589,6.421-11.904,7.808-18.688h72.512l61.312,40.875c1.813,1.216,3.861,1.792,5.909,1.792
			c3.435,0,6.805-1.664,8.875-4.757c3.264-4.885,1.941-11.52-2.965-14.784L408.555,256H480c5.888,0,10.667-4.779,10.667-10.667
			S485.888,234.667,480,234.667z"/>
	</g>
</g>
<g>
</g>
<g>
</g>
<g>
</g>
<g>
</g>
<g>
</g>
<g>
</g>
<g>
</g>
<g>
</g>
<g>
</g>
<g>
</g>
<g>
</g>
<g>
</g>
<g>
</g>
<g>
</g>
<g>
</g>
</svg>
