<?xml version="1.0" encoding="iso-8859-1"?>
<!-- Generator: Adobe Illustrator 19.0.0, SVG Export Plug-In . SVG Version: 6.00 Build 0)  -->
<svg version="1.1" id="Capa_1" xmlns="http://www.w3.org/2000/svg" xmlns:xlink="http://www.w3.org/1999/xlink" x="0px" y="0px"
	 viewBox="0 0 512 512" style="enable-background:new 0 0 512 512;" xml:space="preserve">
<g>
	<g>
		<path d="M508.88,67.125l-64-64c-2.005-2.005-4.715-3.115-7.552-3.115c-2.837,0-5.547,1.131-7.552,3.136l-12.48,12.48
			c-18.837,18.837-20.437,48.277-5.141,69.12L202.661,294.261l-77.781-77.803c-4.011-4.011-11.093-4.011-15.083,0L9.36,316.896
			c-12.48,12.48-12.48,32.789,0,45.269l140.501,140.48c6.229,6.229,14.421,9.344,22.635,9.344s16.384-3.115,22.635-9.344
			l100.437-100.416c4.16-4.16,4.16-10.923,0-15.083l-77.824-77.803L427.237,99.829c9.344,6.848,20.331,10.453,31.424,10.453
			c13.675,0,27.328-5.205,37.739-15.595l12.48-12.501C513.04,78.027,513.04,71.285,508.88,67.125z M76.475,350.197
			c-2.731,0-5.461-1.045-7.552-3.115c-4.16-4.16-4.16-10.923,0-15.083l40.853-40.853c4.16-4.16,10.923-4.16,15.083,0
			c4.16,4.16,4.16,10.923,0,15.083l-40.853,40.853C81.936,349.152,79.205,350.197,76.475,350.197z M108.475,382.197
			c-2.731,0-5.461-1.045-7.552-3.115c-4.16-4.16-4.16-10.923,0-15.083l40.853-40.853c4.16-4.16,10.923-4.16,15.083,0
			c4.16,4.16,4.16,10.923,0,15.083l-40.853,40.853C113.936,381.152,111.205,382.197,108.475,382.197z M148.027,411.083
			c-2.091,2.091-4.821,3.115-7.552,3.115c-2.731,0-5.461-1.045-7.552-3.115c-4.16-4.16-4.16-10.923,0-15.083l40.853-40.853
			c4.16-4.16,10.923-4.16,15.083,0c4.16,4.16,4.16,10.923,0,15.083L148.027,411.083z M220.88,387.125
			c4.16,4.16,4.16,10.923,0,15.083l-40.853,40.853c-2.091,2.091-4.821,3.115-7.552,3.115c-2.731,0-5.461-1.045-7.552-3.115
			c-4.16-4.16-4.16-10.923,0-15.083l40.853-40.853C209.957,382.965,216.72,382.965,220.88,387.125z M481.317,79.627
			c-12.501,12.48-32.789,12.48-45.248,0l-3.669-3.669c-12.48-12.48-12.48-32.789,0-45.269l4.928-4.928l48.917,48.917L481.317,79.627
			z"/>
	</g>
</g>
<g>
</g>
<g>
</g>
<g>
</g>
<g>
</g>
<g>
</g>
<g>
</g>
<g>
</g>
<g>
</g>
<g>
</g>
<g>
</g>
<g>
</g>
<g>
</g>
<g>
</g>
<g>
</g>
<g>
</g>
</svg>
