<?xml version="1.0" encoding="iso-8859-1"?>
<!-- Generator: Adobe Illustrator 19.0.0, SVG Export Plug-In . SVG Version: 6.00 Build 0)  -->
<svg version="1.1" id="Capa_1" xmlns="http://www.w3.org/2000/svg" xmlns:xlink="http://www.w3.org/1999/xlink" x="0px" y="0px"
	 viewBox="0 0 512 512" style="enable-background:new 0 0 512 512;" xml:space="preserve">
<g>
	<g>
		<path d="M234.389,161.365c0.149-1.088,0.107-2.133-0.085-3.221c-0.853-18.517-3.627-37.013-8.021-54.592
			c-0.085-1.323-0.405-2.603-0.981-3.819c-7.744-29.035-20.032-54.997-35.883-73.173c-0.363-0.533-0.576-1.131-1.045-1.6
			c-0.213-0.192-0.469-0.256-0.683-0.448C173.739,9.28,157.205,0,138.667,0c-40.811,0-72,44.608-86.699,99.989
			c-0.341,0.768-0.448,1.557-0.619,2.368c-4.587,17.92-7.445,36.843-8.341,55.787c-0.192,1.088-0.235,2.133-0.085,3.221
			c-0.085,3.115-0.256,6.208-0.256,9.301c0,11.648,1.301,23.509,3.52,35.371c-0.021,1.515,0.32,3.029,0.96,4.459
			c3.008,14.464,7.36,28.864,12.565,42.859c0.149,0.491,0.299,0.96,0.512,1.429C82.389,313.728,118.677,364.437,128,376.917v124.416
			c0,5.888,4.779,10.667,10.667,10.667s10.667-4.779,10.667-10.667V376.896c9.344-12.501,45.717-63.36,67.883-122.432
			c0.107-0.256,0.192-0.512,0.277-0.768c10.048-26.987,17.173-55.595,17.173-83.029C234.667,167.573,234.496,164.48,234.389,161.365
			z M209.365,125.717c0.32,1.813,0.597,3.627,0.875,5.461L207.083,128L209.365,125.717z M203.797,101.12L192,112.917l-38.251-38.251
			l26.091-26.091C189.611,62.293,197.909,80.427,203.797,101.12z M176.917,128l-0.96,0.96c-1.045-1.92-2.219-3.755-3.541-5.483
			L176.917,128z M138.688,256c14.699,0,26.667-11.968,26.667-26.667c0-2.197,0.085-4.075,0.128-6.101l11.435,11.435l-38.251,38.251
			l-38.251-38.251l10.24-10.24l1.621,7.189C116.672,251.776,129.067,256,138.688,256z M114.069,114.347l24.597-24.597l25.877,25.877
			c-7.211-5.547-16.107-8.96-25.856-8.96C129.963,106.667,121.323,109.504,114.069,114.347z M138.667,21.333
			c9.323,0,18.411,4.139,26.88,11.371l-26.88,26.88l-26.88-26.88C120.256,25.472,129.344,21.333,138.667,21.333z M97.493,48.576
			l26.091,26.091l-38.251,38.251L73.536,101.12C79.424,80.427,87.723,62.293,97.493,48.576z M102.357,126.059
			c-0.512,0.789-1.067,1.536-1.536,2.347L100.416,128L102.357,126.059z M67.968,125.717L70.251,128l-3.157,3.157
			C67.371,129.344,67.648,127.509,67.968,125.717z M64,170.667c0-2.155,0.128-4.288,0.171-6.421l21.163-21.163l11.307,11.307
			c1.557,12.395,4.949,29.269,8.491,45.397l-19.797,19.797l-18.261-18.261C65.173,190.976,64,180.693,64,170.667z M82.325,252.757
			l3.008-3.008L123.584,288l-16.491,16.491C98.411,288.832,89.664,271.232,82.325,252.757z M138.667,355.157
			c-5.269-7.552-12.565-18.411-20.523-31.552l20.523-20.523l20.523,20.523C151.232,336.747,143.936,347.627,138.667,355.157z
			 M170.24,304.491L153.749,288L192,249.749l3.008,3.008C187.669,271.232,178.923,288.832,170.24,304.491z M210.261,201.323
			L192,219.584l-23.829-23.829c2.005-10.112,4.757-16.768,7.211-22.507c2.453-5.781,4.416-11.712,5.248-18.795L192,143.083
			l21.163,21.163c0.043,2.133,0.171,4.267,0.171,6.421C213.333,180.693,212.16,190.976,210.261,201.323z"/>
	</g>
</g>
<g>
	<g>
		<path d="M469.056,161.387c0.149-1.088,0.107-2.155-0.085-3.243c-0.875-18.923-3.755-37.845-8.32-55.765
			c-0.149-0.832-0.277-1.621-0.619-2.411C445.333,44.608,414.123,0,373.333,0c-18.517,0-35.051,9.28-49.003,24.491
			c-0.213,0.192-0.512,0.256-0.725,0.469c-0.491,0.491-0.725,1.109-1.109,1.664C306.688,44.8,294.421,70.72,286.677,99.712
			c-0.576,1.237-0.896,2.517-0.981,3.861c-4.395,17.557-7.168,36.053-8.021,54.571c-0.192,1.088-0.235,2.155-0.085,3.243
			c-0.085,3.093-0.256,6.187-0.256,9.28c0,27.413,7.104,56,17.152,82.987c0.107,0.299,0.192,0.576,0.32,0.853
			c22.165,59.072,58.539,109.909,67.861,122.411v124.416c0,5.888,4.779,10.667,10.667,10.667c5.888,0,10.667-4.779,10.667-10.667
			V376.896c9.323-12.48,45.611-63.189,67.776-122.155c0.213-0.469,0.363-0.917,0.512-1.408c5.205-13.995,9.557-28.395,12.565-42.88
			c0.619-1.408,0.96-2.88,0.96-4.395c2.219-11.861,3.52-23.744,3.52-35.392C469.333,167.573,469.163,164.48,469.056,161.387z
			 M444.032,125.717c0.32,1.792,0.597,3.627,0.875,5.461L441.749,128L444.032,125.717z M438.464,101.12l-11.797,11.797
			l-38.251-38.251l26.091-26.112C424.277,62.293,432.576,80.405,438.464,101.12z M411.584,128l-0.405,0.405
			c-0.448-0.789-1.003-1.557-1.515-2.325L411.584,128z M373.312,256c9.621,0,22.037-4.224,26.411-24.384l1.621-7.189l10.24,10.24
			l-38.251,38.251l-38.251-38.251l11.435-11.435c0.043,2.027,0.128,3.904,0.128,6.101C346.645,244.032,358.613,256,373.312,256z
			 M347.413,115.669l25.92-25.92l24.576,24.576c-7.232-4.821-15.872-7.659-24.597-7.659
			C363.541,106.667,354.624,110.101,347.413,115.669z M373.333,21.333c9.301,0,18.411,4.139,26.88,11.349l-26.88,26.901
			l-26.88-26.88C354.923,25.472,364.011,21.333,373.333,21.333z M332.139,48.576l26.112,26.091L320,112.917l-11.797-11.797
			C314.091,80.427,322.389,62.293,332.139,48.576z M339.627,123.435c-1.344,1.749-2.517,3.584-3.584,5.525l-0.96-0.96
			L339.627,123.435z M302.635,125.717l2.283,2.283l-3.157,3.157C302.037,129.344,302.315,127.509,302.635,125.717z M298.667,170.667
			c0-2.155,0.128-4.288,0.171-6.421L320,143.083l11.371,11.371c0.832,7.083,2.773,13.013,5.248,18.795
			c2.453,5.739,5.205,12.395,7.211,22.507L320,219.584l-18.261-18.261C299.84,190.976,298.667,180.693,298.667,170.667z
			 M316.992,252.757l3.008-3.008L358.251,288l-16.491,16.491C333.077,288.832,324.331,271.232,316.992,252.757z M373.333,355.157
			c-5.269-7.552-12.565-18.411-20.523-31.552l20.523-20.523l20.523,20.523C385.899,336.747,378.603,347.627,373.333,355.157z
			 M404.907,304.491L388.416,288l38.251-38.251l3.008,3.008C422.336,271.232,413.589,288.832,404.907,304.491z M444.928,201.323
			l-18.261,18.261l-19.797-19.797c3.541-16.107,6.933-32.981,8.491-45.376l11.307-11.328l21.163,21.163
			c0.043,2.133,0.171,4.267,0.171,6.421C448,180.693,446.827,190.976,444.928,201.323z"/>
	</g>
</g>
<g>
</g>
<g>
</g>
<g>
</g>
<g>
</g>
<g>
</g>
<g>
</g>
<g>
</g>
<g>
</g>
<g>
</g>
<g>
</g>
<g>
</g>
<g>
</g>
<g>
</g>
<g>
</g>
<g>
</g>
</svg>
