<?xml version="1.0" encoding="iso-8859-1"?>
<!-- Generator: Adobe Illustrator 19.0.0, SVG Export Plug-In . SVG Version: 6.00 Build 0)  -->
<svg version="1.1" id="Capa_1" xmlns="http://www.w3.org/2000/svg" xmlns:xlink="http://www.w3.org/1999/xlink" x="0px" y="0px"
	 viewBox="0 0 512.001 512.001" style="enable-background:new 0 0 512.001 512.001;" xml:space="preserve">
<g>
	<g>
		<path d="M255.99,448c-28.992,0-64,23.787-64,53.333V512h128v-10.667C319.99,471.787,284.982,448,255.99,448z"/>
	</g>
</g>
<g>
	<g>
		<path d="M353.526,339.03c-4.544-2.048-9.941-0.704-12.949,3.307l-5.653,7.531c-0.896,1.216-1.899,2.347-2.965,3.413
			l-21.333,21.333c-5.973,5.973-14.208,9.387-22.635,9.387h-64c-8.427,0-16.661-3.413-22.635-9.365l-21.333-21.333
			c-1.045-1.088-2.048-2.219-2.965-3.435l-5.653-7.531c-3.029-4.011-8.405-5.376-12.949-3.307l-66.603,30.272L131.808,512h38.848
			v-10.667c0-42.731,45.056-74.667,85.333-74.667s85.333,31.936,85.333,74.667V512h38.848l39.957-142.699L353.526,339.03z"/>
	</g>
</g>
<g>
	<g>
		<path d="M511.798,499.243l-17.259-86.208c-3.243-16.256-13.632-29.824-28.437-37.248l-22.485-11.243L402.315,512h99.008
			c3.2,0,6.229-1.429,8.256-3.904C511.606,505.622,512.416,502.379,511.798,499.243z"/>
	</g>
</g>
<g>
	<g>
		<path d="M68.384,364.544l-22.485,11.243c-14.827,7.403-25.195,20.971-28.437,37.248L0.203,499.243
			c-0.619,3.136,0.192,6.379,2.219,8.853C4.427,510.571,7.456,512,10.656,512h99.008L68.384,364.544z"/>
	</g>
</g>
<g>
	<g>
		<path d="M383.755,142.336c0.427-1.152,0.661-2.389,0.661-3.669c0-1.045-0.149-2.048-0.427-3.008
			c-0.128-40.405-2.667-89.408-13.781-100.523c-6.912-6.933-24.512-15.68-45.824-22.72l-26.496,66.219
			c-1.621,4.032-5.525,6.699-9.899,6.699h-64c-4.373,0-8.277-2.667-9.899-6.699l-26.496-66.24
			c-21.312,7.04-38.891,15.808-45.824,22.72c-11.392,11.413-13.781,62.613-13.781,103.552c0,0.832,0.107,1.664,0.32,2.432
			c-0.213,2.731-0.32,5.461-0.32,8.235c0,2.56,0.213,5.035,0.469,7.509c-0.299,1.003-0.469,2.069-0.469,3.157v53.333
			c38.059,0,72.981,22.208,82.539,49.493l7.531-5.035c1.771-1.173,3.819-1.792,5.931-1.792h64c2.112,0,4.16,0.619,5.909,1.792
			l7.531,5.035c9.579-27.285,44.501-49.493,82.56-49.493V160c0-1.173-0.149-2.304-0.448-3.392c0.256-2.389,0.448-4.8,0.448-7.275
			C383.99,146.987,383.904,144.662,383.755,142.336z M234.507,161.707c-0.832,5.163-5.291,8.96-10.517,8.96h-42.667
			c-5.888,0-10.667-4.779-10.667-10.667v-6.528l-14.037-4.693c-5.589-1.856-8.619-7.893-6.741-13.483
			c1.856-5.589,7.872-8.619,13.483-6.741l64,21.333C232.31,151.531,235.36,156.544,234.507,161.707z M355.36,148.779l-3.371,1.131
			V160c0,5.888-4.779,10.667-10.667,10.667H287.99c-5.227,0-9.685-3.797-10.539-8.96c-0.832-5.163,2.197-10.176,7.168-11.819
			l64-21.333c5.653-1.877,11.627,1.152,13.483,6.741C363.958,140.886,360.95,146.923,355.36,148.779z"/>
	</g>
</g>
<g>
	<g>
		<path d="M255.99,0c-15.147,0-31.808,2.645-47.744,6.571L231.2,64h49.557l22.976-57.429C287.798,2.646,271.136,0,255.99,0z"/>
	</g>
</g>
<g>
	<g>
		<path d="M319.99,298.667c-2.112,0-4.16-0.619-5.909-1.792l-29.312-19.541h-57.536l-29.312,19.541
			c-1.771,1.173-3.819,1.792-5.931,1.792h-26.581l23.68,31.509l39.168-29.376c1.835-1.387,4.075-2.133,6.4-2.133h42.667
			c2.304,0,4.544,0.747,6.4,2.133l39.253,29.44l23.68-31.573H319.99z"/>
	</g>
</g>
<g>
	<g>
		<path d="M320.331,275.414l2.88,1.92h39.445l19.2-25.6c1.387-1.835,2.133-4.075,2.133-6.4v-10.667
			C352.651,234.667,322.144,254.571,320.331,275.414z"/>
	</g>
</g>
<g>
	<g>
		<path d="M273.76,320h-35.563l-35.029,26.261l13.269,13.269c2.005,2.005,4.715,3.136,7.552,3.136h64
			c2.837,0,5.547-1.131,7.552-3.115l13.227-13.312L273.76,320z"/>
	</g>
</g>
<g>
	<g>
		<path d="M127.99,234.667v10.667c0,2.304,0.747,4.544,2.133,6.4l19.243,25.6h39.403l2.88-1.92
			C189.835,254.571,159.328,234.667,127.99,234.667z"/>
	</g>
</g>
<g>
</g>
<g>
</g>
<g>
</g>
<g>
</g>
<g>
</g>
<g>
</g>
<g>
</g>
<g>
</g>
<g>
</g>
<g>
</g>
<g>
</g>
<g>
</g>
<g>
</g>
<g>
</g>
<g>
</g>
</svg>
