<?xml version="1.0" encoding="iso-8859-1"?>
<!-- Generator: Adobe Illustrator 19.0.0, SVG Export Plug-In . SVG Version: 6.00 Build 0)  -->
<svg version="1.1" id="Capa_1" xmlns="http://www.w3.org/2000/svg" xmlns:xlink="http://www.w3.org/1999/xlink" x="0px" y="0px"
	 viewBox="0 0 511.994 511.994" style="enable-background:new 0 0 511.994 511.994;" xml:space="preserve">
<g>
	<g>
		<path d="M511.104,406.45L381.312,109.789C376.149,97.949,364.907,90.61,352,90.61c-12.907,0-24.128,7.36-29.312,19.179
			L192.896,406.45c-1.451,3.285-1.131,7.104,0.853,10.112c1.963,3.008,5.312,4.821,8.917,4.821h298.667
			c3.605,0,6.955-1.813,8.917-4.843C512.235,413.554,512.533,409.736,511.104,406.45z M395.243,208.05
			c-14.464,0-24.299,5.397-33.813,10.645c-10.005,5.483-19.477,10.688-36.181,10.688c-4.843,0-8.405-3.968-14.827-12.395
			c-2.219-2.901-4.715-5.952-7.445-8.917l39.275-89.749c2.603-5.931,8.149-6.4,9.771-6.4s7.168,0.469,9.771,6.4l39.317,89.877
			C399.232,208.136,397.397,208.05,395.243,208.05z"/>
	</g>
</g>
<g>
	<g>
		<path d="M233.152,261.234l-45.568-79.723c-5.739-10.048-16.064-16.085-27.627-16.128c-0.043,0-0.107,0-0.149,0
			c-11.52,0-21.824,5.931-27.627,15.872L1.451,405.341c-1.92,3.285-1.941,7.381-0.021,10.688s5.419,5.355,9.237,5.355h161.856
			c-2.688-7.552-2.496-15.957,0.832-23.531L233.152,261.234z M164.885,240.05c-8.917,0-14.571,4.16-18.688,7.211
			c-3.349,2.453-4.821,3.456-6.912,3.52c-2.731-0.789-8.96-7.339-14.4-14.699l25.728-44.075c2.752-4.757,7.317-5.291,9.195-5.291
			c1.984-0.384,6.485,0.512,9.259,5.376l39.723,69.504c-0.427,3.733-1.792,10.453-6.123,10.453c-3.883,0-5.483-1.685-10.091-10.603
			C188.181,252.936,181.525,240.05,164.885,240.05z"/>
	</g>
</g>
<g>
</g>
<g>
</g>
<g>
</g>
<g>
</g>
<g>
</g>
<g>
</g>
<g>
</g>
<g>
</g>
<g>
</g>
<g>
</g>
<g>
</g>
<g>
</g>
<g>
</g>
<g>
</g>
<g>
</g>
</svg>
