<?xml version="1.0" encoding="iso-8859-1"?>
<!-- Generator: Adobe Illustrator 19.0.0, SVG Export Plug-In . SVG Version: 6.00 Build 0)  -->
<svg version="1.1" id="Capa_1" xmlns="http://www.w3.org/2000/svg" xmlns:xlink="http://www.w3.org/1999/xlink" x="0px" y="0px"
	 viewBox="0 0 512 512" style="enable-background:new 0 0 512 512;" xml:space="preserve">
<g>
	<g>
		<path d="M474.475,363.989l-81.237-44.672c16.277-18.197,43.563-23.445,65.728-11.115c5.035,2.837,11.605,1.045,14.507-4.117
			c2.88-5.141,1.024-11.648-4.117-14.507c-32.533-18.176-72.725-9.109-94.976,19.349l-22.357-12.288v-81.259l22.165-12.181
			c14.4,18.432,36.373,28.715,58.923,28.715c12.288,0,24.768-3.051,36.245-9.451c5.141-2.859,6.997-9.365,4.117-14.507
			c-2.901-5.163-9.429-6.955-14.507-4.117c-22.208,12.395-49.472,7.104-65.749-11.115l81.237-44.693
			c5.163-2.837,7.04-9.323,4.203-14.485c-2.859-5.184-9.323-7.019-14.507-4.203l-81.707,44.928
			c-3.435-10.133-3.797-21.056-0.811-31.573c3.883-13.717,12.885-25.088,25.323-32.021c5.141-2.859,6.997-9.365,4.117-14.507
			c-2.901-5.163-9.429-6.976-14.507-4.117c-17.429,9.728-30.016,25.643-35.456,44.843c-4.544,15.957-3.371,32.512,2.645,47.68
			L342.4,196.309l-75.733-42.56v-26.837c36.096-5.227,64-36.075,64-73.579c0-5.888-4.779-10.667-10.667-10.667
			s-10.667,4.779-10.667,10.667c0,25.749-18.347,47.296-42.667,52.245V10.667C266.667,4.779,261.888,0,256,0
			s-10.667,4.779-10.667,10.667v94.912c-24.32-4.949-42.667-26.496-42.667-52.245c0-5.888-4.779-10.667-10.667-10.667
			s-10.667,4.779-10.667,10.667c0,37.504,27.904,68.352,64,73.579v26.837l-75.733,42.56l-21.44-11.797
			c13.504-34.24,0.256-74.069-32.747-92.48c-5.184-2.859-11.648-1.024-14.507,4.117c-2.88,5.141-1.024,11.627,4.117,14.507
			c22.763,12.715,32.512,39.723,24.469,63.595l-81.685-44.928c-5.163-2.816-11.648-0.939-14.485,4.203
			c-2.837,5.163-0.96,11.648,4.203,14.485l81.237,44.693c-16.256,18.219-43.541,23.509-65.728,11.115
			c-5.141-2.901-11.648-1.067-14.507,4.096c-2.88,5.141-1.024,11.627,4.117,14.507c11.499,6.421,23.957,9.451,36.267,9.451
			c22.549,0,44.501-10.283,58.901-28.715l22.165,12.181v81.28l-22.336,12.288c-22.272-28.48-62.464-37.525-94.976-19.349
			c-5.141,2.88-6.997,9.365-4.117,14.507c2.859,5.141,9.365,6.976,14.507,4.117c22.187-12.395,49.472-7.125,65.728,11.093
			l-81.237,44.672c-5.163,2.859-7.061,9.344-4.203,14.507c1.92,3.541,5.568,5.547,9.323,5.547c1.749,0,3.499-0.427,5.12-1.323
			l81.685-44.928c8.043,23.872-1.707,50.859-24.469,63.573c-5.141,2.88-6.997,9.365-4.117,14.528
			c1.941,3.477,5.589,5.461,9.323,5.461c1.771,0,3.541-0.448,5.184-1.344c33.003-18.411,46.251-58.24,32.747-92.48l23.189-12.757
			l74.005,44.203v26.133c-36.096,5.227-64,36.075-64,73.579c0,5.909,4.779,10.688,10.667,10.688s10.667-4.779,10.667-10.667
			c0-25.771,18.347-47.296,42.667-52.245v94.912c0,5.888,4.779,10.667,10.667,10.667s10.667-4.779,10.667-10.667v-94.912
			c24.32,4.949,42.667,26.496,42.667,52.245c0,5.888,4.779,10.667,10.667,10.667s10.667-4.779,10.667-10.667
			c0-37.504-27.904-68.352-64-73.579v-26.133l73.963-44.203l23.168,12.736c-6.016,15.168-7.189,31.701-2.645,47.659
			c5.44,19.179,18.027,35.115,35.456,44.843c1.621,0.917,3.413,1.344,5.184,1.344c3.733,0,7.36-1.984,9.323-5.483
			c2.88-5.12,1.024-11.627-4.117-14.507c-12.437-6.933-21.44-18.304-25.323-32.021c-2.987-10.517-2.624-21.44,0.811-31.573
			l81.707,44.949c1.643,0.875,3.392,1.301,5.141,1.301c3.755,0,7.403-2.005,9.344-5.525
			C481.515,373.312,479.637,366.827,474.475,363.989z"/>
	</g>
</g>
<g>
</g>
<g>
</g>
<g>
</g>
<g>
</g>
<g>
</g>
<g>
</g>
<g>
</g>
<g>
</g>
<g>
</g>
<g>
</g>
<g>
</g>
<g>
</g>
<g>
</g>
<g>
</g>
<g>
</g>
</svg>
