<?xml version="1.0" encoding="iso-8859-1"?>
<!-- Generator: Adobe Illustrator 19.0.0, SVG Export Plug-In . SVG Version: 6.00 Build 0)  -->
<svg version="1.1" id="Capa_1" xmlns="http://www.w3.org/2000/svg" xmlns:xlink="http://www.w3.org/1999/xlink" x="0px" y="0px"
	 viewBox="0 0 512 512" style="enable-background:new 0 0 512 512;" xml:space="preserve">
<g>
	<g>
		<path d="M256,10.667c-70.592,0-128,57.408-128,128v48C128,277.824,185.408,352,256,352s128-74.176,128-165.333v-48
			C384,68.075,326.592,10.667,256,10.667z M362.667,186.667c0,79.403-47.851,144-106.667,144s-106.667-64.597-106.667-144v-48
			C149.333,79.851,197.184,32,256,32s106.667,47.851,106.667,106.667V186.667z"/>
	</g>
</g>
<g>
	<g>
		<circle cx="256" cy="224" r="10.667"/>
	</g>
</g>
<g>
	<g>
		<circle cx="224" cy="256" r="10.667"/>
	</g>
</g>
<g>
	<g>
		<circle cx="181.333" cy="234.667" r="10.667"/>
	</g>
</g>
<g>
	<g>
		<circle cx="224" cy="298.667" r="10.667"/>
	</g>
</g>
<g>
	<g>
		<path d="M418.901,344.021l-3.947-1.365c-3.819-1.323-8.107-0.384-11.008,2.475c-2.923,2.859-3.925,7.104-2.645,10.965
			l23.701,71.104c2.816,8.448,1.984,17.749-2.304,25.536c-4.267,7.787-11.648,13.483-20.267,15.637L361.6,478.72l-4.885,2.176
			c-4.608,2.048-7.147,7.04-6.101,11.968c1.045,4.928,5.397,8.448,10.432,8.448h140.288c5.888,0,10.667-4.779,10.667-10.667v-15.659
			C512,416.021,474.581,363.392,418.901,344.021z"/>
	</g>
</g>
<g>
	<g>
		<path d="M290.667,375.445c-2.389-3.691-6.784-5.504-11.093-4.651c-16.704,3.392-30.464,3.392-47.168,0
			c-4.224-0.853-8.683,0.96-11.093,4.651c-2.368,3.669-2.261,8.448,0.277,12.011l25.728,35.989c2.027,2.795,5.248,4.459,8.683,4.459
			s6.656-1.664,8.683-4.459l25.707-35.989C292.928,383.893,293.035,379.136,290.667,375.445z"/>
	</g>
</g>
<g>
	<g>
		<path d="M155.285,480.917l-6.656-2.773l-39.083-9.771c-8.619-2.176-16-7.872-20.267-15.659c-4.288-7.787-5.12-17.067-2.304-25.515
			l23.701-71.104c1.28-3.861,0.277-8.107-2.645-10.965c-2.88-2.859-7.189-3.797-10.987-2.475l-3.925,1.365
			C37.419,363.392,0,416.021,0,475.008v15.659c0,5.888,4.779,10.667,10.667,10.667h140.288c5.035,0,9.387-3.52,10.432-8.448
			C162.432,487.957,159.893,482.965,155.285,480.917z"/>
	</g>
</g>
<g>
	<g>
		<path d="M404.779,433.963l-32-96c-0.085-0.256-0.341-0.405-0.448-0.661c-0.533-1.28-1.301-2.411-2.325-3.413
			c-0.277-0.277-0.469-0.597-0.789-0.853c-0.128-0.107-0.213-0.277-0.341-0.363c-1.344-0.939-2.816-1.472-4.331-1.749
			c-0.107-0.021-0.192-0.107-0.299-0.128c-0.277-0.043-0.512,0.128-0.789,0.107c-1.451-0.107-2.88,0.085-4.245,0.555
			c-0.384,0.128-0.747,0.235-1.109,0.405c-1.579,0.747-3.029,1.749-4.139,3.285L256,472.299l-97.984-137.173
			c-1.088-1.515-2.539-2.517-4.096-3.264c-0.427-0.213-0.811-0.32-1.237-0.469c-1.344-0.448-2.709-0.619-4.117-0.512
			c-0.277,0.021-0.533-0.149-0.811-0.107c-0.107,0.021-0.192,0.107-0.299,0.128c-1.515,0.277-2.987,0.789-4.331,1.749
			c-0.149,0.107-0.213,0.256-0.341,0.363c-0.32,0.256-0.512,0.576-0.789,0.853c-1.024,1.003-1.792,2.133-2.325,3.413
			c-0.107,0.256-0.363,0.405-0.448,0.661l-32,96c-0.939,2.816-0.64,5.909,0.768,8.512c1.429,2.603,3.883,4.48,6.763,5.205
			l40.917,10.069l96,42.667c1.387,0.64,2.88,0.939,4.331,0.939s2.944-0.299,4.331-0.917l94.251-42.069l42.667-10.667
			c2.901-0.725,5.333-2.603,6.763-5.205C405.419,439.872,405.717,436.779,404.779,433.963z"/>
	</g>
</g>
<g>
	<g>
		<circle cx="288" cy="256" r="10.667"/>
	</g>
</g>
<g>
	<g>
		<circle cx="330.667" cy="234.667" r="10.667"/>
	</g>
</g>
<g>
	<g>
		<circle cx="288" cy="298.667" r="10.667"/>
	</g>
</g>
<g>
	<g>
		<circle cx="224" cy="64" r="10.667"/>
	</g>
</g>
<g>
	<g>
		<circle cx="202.667" cy="106.667" r="10.667"/>
	</g>
</g>
<g>
	<g>
		<circle cx="288" cy="64" r="10.667"/>
	</g>
</g>
<g>
	<g>
		<circle cx="309.333" cy="106.667" r="10.667"/>
	</g>
</g>
<g>
	<g>
		<path d="M208.107,149.312l-5.44,0.021l-5.44-0.021c-6.571,0-26.56,0-26.56,21.355c0,17.643,14.357,32,32,32
			c17.643,0,32-14.357,32-32C234.667,149.312,214.656,149.312,208.107,149.312z M202.667,181.333
			c-5.504,0-10.048-4.181-10.517-10.496c1.024-0.128,2.603-0.192,5.077-0.192l5.44,0.021l5.44-0.021
			c2.581,0,4.203,0.085,5.227,0.213C213.227,176.64,208.469,181.333,202.667,181.333z"/>
	</g>
</g>
<g>
	<g>
		<path d="M314.773,149.312l-5.44,0.021l-5.44-0.021c-6.571,0-26.56,0-26.56,21.355c0,17.643,14.357,32,32,32
			c17.643,0,32-14.357,32-32C341.333,149.312,321.323,149.312,314.773,149.312z M309.333,181.333
			c-5.504,0-10.048-4.181-10.517-10.496c1.024-0.128,2.603-0.192,5.077-0.192l5.44,0.021l5.44-0.021
			c2.581,0,4.203,0.085,5.227,0.213C319.893,176.64,315.136,181.333,309.333,181.333z"/>
	</g>
</g>
<g>
	<g>
		<path d="M286.869,123.243c-2.645-5.291-9.045-7.403-14.315-4.779L256,126.741l-16.576-8.299
			c-5.269-2.581-11.648-0.512-14.315,4.779c-2.624,5.269-0.491,11.669,4.779,14.315l21.333,10.667
			c1.515,0.747,3.157,1.131,4.779,1.131s3.264-0.384,4.757-1.109l21.333-10.667C287.36,134.912,289.493,128.512,286.869,123.243z"/>
	</g>
</g>
<g>
</g>
<g>
</g>
<g>
</g>
<g>
</g>
<g>
</g>
<g>
</g>
<g>
</g>
<g>
</g>
<g>
</g>
<g>
</g>
<g>
</g>
<g>
</g>
<g>
</g>
<g>
</g>
<g>
</g>
</svg>
