<?xml version="1.0" encoding="iso-8859-1"?>
<!-- Generator: Adobe Illustrator 19.0.0, SVG Export Plug-In . SVG Version: 6.00 Build 0)  -->
<svg version="1.1" id="Capa_1" xmlns="http://www.w3.org/2000/svg" xmlns:xlink="http://www.w3.org/1999/xlink" x="0px" y="0px"
	 viewBox="0 0 511.997 511.997" style="enable-background:new 0 0 511.997 511.997;" xml:space="preserve">
<g>
	<g>
		<path d="M285.014,71.378c18.048-18.773,18.048-49.323,0-68.096c-4.096-4.224-10.837-4.373-15.104-0.299
			c-4.245,4.075-4.373,10.837-0.299,15.083c10.219,10.624,10.219,27.904-0.043,38.571c-18.005,18.773-18.005,49.301,0,68.075
			c2.112,2.197,4.907,3.285,7.701,3.285c2.667,0,5.312-0.981,7.403-2.965c4.245-4.075,4.373-10.837,0.299-15.083
			C274.774,99.325,274.774,82.023,285.014,71.378z"/>
	</g>
</g>
<g>
	<g>
		<path d="M220.907,71.357c18.048-18.773,18.048-49.323,0-68.096c-4.075-4.224-10.837-4.373-15.083-0.277
			c-4.245,4.075-4.373,10.816-0.299,15.083c10.219,10.624,10.219,27.904-0.021,38.571c-18.048,18.773-18.048,49.301,0,68.096
			c2.091,2.176,4.885,3.264,7.68,3.264c2.667,0,5.333-0.981,7.403-2.987c4.245-4.075,4.373-10.837,0.299-15.083
			C210.667,99.303,210.667,82.023,220.907,71.357z"/>
	</g>
</g>
<g>
	<g>
		<path d="M156.992,71.378c18.048-18.773,18.048-49.323,0-68.096c-4.096-4.245-10.816-4.395-15.083-0.299
			c-4.245,4.075-4.373,10.816-0.299,15.083c10.219,10.624,10.219,27.904-0.043,38.571c-18.005,18.773-18.005,49.301,0,68.075
			c2.112,2.197,4.907,3.285,7.701,3.285c2.667,0,5.333-0.981,7.381-2.965c4.245-4.075,4.395-10.837,0.32-15.083
			C146.752,99.325,146.752,82.023,156.992,71.378z"/>
	</g>
</g>
<g>
	<g>
		<path d="M447.617,259.751c-2.219-21.099-10.688-35.285-25.173-42.155c-21.312-10.112-49.408-0.427-67.968,8.491l8.107-64.768
			c0.384-3.029-0.555-6.08-2.581-8.384c-2.027-2.283-4.928-3.605-8-3.605H74.667c-3.072,0-5.973,1.323-8,3.605
			c-2.027,2.304-2.965,5.355-2.581,8.384l40.341,322.667c1.984,15.979,15.637,28.011,31.744,28.011h154.325
			c16.107,0,29.76-12.032,31.744-28.011l12.565-100.501C369.323,368.167,454.358,323.709,447.617,259.751z M337.963,358.311
			l13.291-106.347c14.229-8.341,45.44-22.997,62.059-15.104c2.731,1.301,11.029,5.248,13.099,25.109
			C431.041,306.045,369.579,342.546,337.963,358.311z"/>
	</g>
</g>
<g>
</g>
<g>
</g>
<g>
</g>
<g>
</g>
<g>
</g>
<g>
</g>
<g>
</g>
<g>
</g>
<g>
</g>
<g>
</g>
<g>
</g>
<g>
</g>
<g>
</g>
<g>
</g>
<g>
</g>
</svg>
