<?xml version="1.0" encoding="iso-8859-1"?>
<!-- Generator: Adobe Illustrator 19.0.0, SVG Export Plug-In . SVG Version: 6.00 Build 0)  -->
<svg version="1.1" id="Capa_1" xmlns="http://www.w3.org/2000/svg" xmlns:xlink="http://www.w3.org/1999/xlink" x="0px" y="0px"
	 viewBox="0 0 512 512" style="enable-background:new 0 0 512 512;" xml:space="preserve">
<g>
	<g>
		<path d="M405.333,192c0-5.653-4.395-10.304-10.027-10.624c-6.187-0.384-10.56,3.755-11.221,9.365l-3.584,29.653
			c-0.021,0.085-0.021,0.149-0.021,0.235l-0.021,0.021c-0.149,1.6,0.064,3.157,0.555,4.587c1.963,5.931,2.987,12.885,2.987,20.096
			c0,20.715-7.573,32.213-11.328,31.531c-2.88-1.813-6.464-2.133-9.643-0.853c-3.179,1.28-5.547,3.989-6.357,7.317
			C341.76,343.552,301.291,384,256,384s-85.76-40.448-100.672-100.672c-0.811-3.328-3.52-5.781-6.677-7.083
			c-3.157-1.259-7.061-0.725-9.984,1.088c-2.645,0-10.667-11.349-10.667-32c0-7.296,1.045-14.315,3.029-20.288
			c0.619-1.835,0.725-3.776,0.299-5.653C129.067,209.003,128,200.299,128,192c0-5.888-4.779-10.667-10.667-10.667
			s-10.667,4.779-10.667,10.667c0,9.109,1.045,18.432,3.243,29.184c-2.112,7.424-3.243,15.701-3.243,24.149
			c0,29.717,13.12,52.288,30.741,53.312C156.8,362.88,203.456,405.333,256,405.333s99.2-42.453,118.592-106.688
			c17.621-1.024,30.741-23.595,30.741-53.312c0-8.448-1.131-16.725-3.243-24.149C404.288,210.432,405.333,201.109,405.333,192z"/>
	</g>
</g>
<g>
	<g>
		<path d="M224,234.667h-21.333c-5.888,0-10.667,4.779-10.667,10.667S196.779,256,202.667,256H224
			c5.888,0,10.667-4.779,10.667-10.667S229.888,234.667,224,234.667z"/>
	</g>
</g>
<g>
	<g>
		<path d="M309.333,234.667H288c-5.888,0-10.667,4.779-10.667,10.667S282.112,256,288,256h21.333
			c5.888,0,10.667-4.779,10.667-10.667S315.221,234.667,309.333,234.667z"/>
	</g>
</g>
<g>
	<g>
		<path d="M293.845,321.365c-5.013-3.136-11.413-1.877-14.528,3.115c-0.043,0.064-5.312,6.187-23.317,6.187
			c-17.109,0-22.699-5.525-23.275-6.144c-3.243-4.608-9.557-5.909-14.379-2.901c-4.992,3.115-6.507,9.707-3.392,14.699
			C216.576,338.944,226.261,352,256,352s39.424-13.056,41.045-15.659C300.181,331.328,298.859,324.501,293.845,321.365z"/>
	</g>
</g>
<g>
	<g>
		<path d="M169.109,169.344c-2.987,0.875-6.016,1.323-9.109,1.323c-20.437,0-37.995-11.669-46.955-28.587
			c-3.797,13.653-6.315,30.357-6.293,51.2l3.584,29.675c0.448,3.84,2.965,7.125,6.549,8.597c1.323,0.533,2.688,0.789,4.032,0.789
			c2.368,0,4.736-0.811,6.677-2.325c19.2-15.339,55.36-45.419,77.547-70.549C193.045,162.539,180.48,165.973,169.109,169.344z"/>
	</g>
</g>
<g>
	<g>
		<path d="M397.973,143.915c-9.237,15.915-26.283,26.752-45.973,26.752c-3.093,0-6.123-0.448-9.088-1.323
			c-32.448-9.621-74.923-20.011-86.912-20.011c-4.821,0-14.677,1.728-26.731,4.373c29.141,35.627,84.779,78.656,161.813,78.656
			c5.397,0,9.941-4.032,10.581-9.387L405.333,192C405.333,173.163,402.368,157.248,397.973,143.915z"/>
	</g>
</g>
<g>
	<g>
		<path d="M352,85.333c-2.411,0-7.936-1.92-10.816-3.605c-1.856-21.845-20.203-39.061-42.517-39.061C298.667,19.136,279.531,0,256,0
			s-42.667,19.136-42.667,42.667c-22.315,0-40.661,17.216-42.517,39.061c-2.88,1.685-8.405,3.605-10.816,3.605
			c-17.643,0-32,14.357-32,32c0,17.643,14.357,32,32,32c1.024,0,2.048-0.149,3.029-0.448C182.656,143.083,237.589,128,256,128
			s73.344,15.083,92.971,20.885c0.981,0.299,2.005,0.448,3.029,0.448c17.643,0,32-14.357,32-32
			C384,99.691,369.643,85.333,352,85.333z"/>
	</g>
</g>
<g>
	<g>
		<path d="M444.885,323.115C424.469,302.72,405.333,226.453,405.333,192c0-5.888-4.779-10.667-10.667-10.667S384,186.112,384,192
			v71.445l-62.208,93.312c-2.304,3.477-2.389,7.957-0.213,11.52c1.963,3.179,5.419,5.077,9.088,5.077
			c0.427,0,0.853-0.021,1.301-0.064c9.067-1.109,89.344-11.456,112.917-35.051C449.045,334.037,449.045,327.296,444.885,323.115z"/>
	</g>
</g>
<g>
	<g>
		<path d="M188.843,354.667L128,263.445V192c0-5.888-4.779-10.667-10.667-10.667s-10.667,4.779-10.667,10.667
			c0,34.453-19.136,110.72-39.552,131.115c-4.16,4.16-4.16,10.923,0,15.083c23.573,23.595,103.851,33.941,112.917,35.051
			c0.448,0.064,0.875,0.085,1.301,0.085c0.085,0,0.149,0,0.235,0c6.336,0.405,10.859-4.715,10.859-10.667
			C192.427,359.488,191.061,356.629,188.843,354.667z"/>
	</g>
</g>
<g>
	<g>
		<path d="M427.925,512c-21.312-40.704-9.429-92.395-3.371-112.533c-1.899-0.683-3.797-1.451-5.675-2.091l-54.869-19.093
			c-4.032-1.387-8.491-0.256-11.371,2.859c-26.88,29.355-61.205,45.525-96.64,45.525s-69.76-16.171-96.619-45.525
			c-2.88-3.115-7.339-4.245-11.371-2.859l-51.2,17.792c5.504,17.152,20.245,72.789-2.347,115.925H427.925z"/>
	</g>
</g>
<g>
	<g>
		<path d="M444.501,407.445c-5.867,20.565-16.597,71.829,8.768,104.555h48.064c5.888,0,10.667-4.779,10.667-10.667
			C512,447.851,480.405,423.253,444.501,407.445z"/>
	</g>
</g>
<g>
	<g>
		<path d="M76.715,403.435C37.12,419.072,0,443.285,0,501.333C0,507.221,4.779,512,10.667,512h58.475
			C96.384,476.843,81.963,420.288,76.715,403.435z"/>
	</g>
</g>
<g>
</g>
<g>
</g>
<g>
</g>
<g>
</g>
<g>
</g>
<g>
</g>
<g>
</g>
<g>
</g>
<g>
</g>
<g>
</g>
<g>
</g>
<g>
</g>
<g>
</g>
<g>
</g>
<g>
</g>
</svg>
