<?xml version="1.0" encoding="iso-8859-1"?>
<!-- Generator: Adobe Illustrator 19.0.0, SVG Export Plug-In . SVG Version: 6.00 Build 0)  -->
<svg version="1.1" id="Capa_1" xmlns="http://www.w3.org/2000/svg" xmlns:xlink="http://www.w3.org/1999/xlink" x="0px" y="0px"
	 viewBox="0 0 512.05 512.05" style="enable-background:new 0 0 512.05 512.05;" xml:space="preserve">
<g>
	<g>
		<path d="M371.417,170.927c-5.867,0.576-10.133,5.803-9.557,11.669c0.576,5.867,5.845,10.069,11.669,9.557
			c0.085-0.021,0.213-0.021,0.32-0.043c3.008,1.152,10.197,12.352,10.197,31.915c0,20.651-7.829,31.659-11.328,31.531
			c-2.923-1.813-6.464-2.091-9.643-0.811c-3.136,1.28-5.483,3.989-6.315,7.296c-14.933,60.203-55.403,100.651-100.715,100.651
			s-85.781-40.448-100.715-100.651c-0.832-3.307-3.499-5.76-6.656-7.061c-3.136-1.28-7.04-0.747-9.963,1.045
			c-2.667,0-10.667-11.349-10.667-32c0-19.563,7.189-30.763,10.197-31.915c0.107,0.021,0.235,0.043,0.32,0.043
			c5.931,0.448,11.819-3.541,12.416-9.408c0.597-5.867-2.944-10.965-8.811-11.541c-0.96-0.277-2.453-0.512-3.456-0.512
			c-18.24,0-32,22.933-32,53.333c0,29.675,13.099,52.224,30.677,53.291c19.392,64.256,66.091,106.709,118.656,106.709
			s99.264-42.453,118.656-106.709c17.579-1.067,30.677-23.616,30.677-53.291C405.38,193.625,392.495,170.756,371.417,170.927z"/>
	</g>
</g>
<g>
	<g>
		<path d="M288.047,0.025h-64c-52.928,0-96,43.072-96,96v32c0,5.888,4.779,10.667,10.667,10.667s10.667-4.779,10.667-10.667h106.667
			c-64.427,0-104.939-4.864-114.069-13.653c-4.245-4.096-4.373-10.837-0.277-15.083c3.755-3.883,9.728-4.309,13.952-1.216
			c1.984,0.981,19.947,8.619,100.395,8.619c84.181,0,99.925-8.363,100.565-8.725c4.224-4.053,10.325-3.456,14.421,0.811
			c4.096,4.245,3.328,11.52-0.917,15.595c-9.131,8.789-49.643,13.653-114.069,13.653h106.667c0,5.888,4.779,10.667,10.667,10.667
			c5.888,0,10.667-4.779,10.667-10.667v-32C384.047,43.097,340.975,0.025,288.047,0.025z"/>
	</g>
</g>
<g>
	<g>
		<path d="M375.172,96.175c-2.24-0.384-4.352,0.128-6.251,1.045c0.725,0.491,1.472,0.896,2.112,1.557
			c4.096,4.245,3.328,11.52-0.917,15.595c-9.131,8.789-49.643,13.653-114.069,13.653s-104.939-4.864-114.069-13.653
			c-4.245-4.096-4.373-10.837-0.277-15.083c0.683-0.725,1.515-1.195,2.347-1.664c-2.112-1.237-4.565-1.877-7.125-1.451
			c-33.941,5.824-72.875,15.915-72.875,42.517c0,39.317,99.179,53.333,192,53.333s192-14.016,192-53.333
			C448.047,112.089,409.113,101.999,375.172,96.175z"/>
	</g>
</g>
<g>
	<g>
		<path d="M224.047,213.359h-21.333c-5.888,0-10.667,4.779-10.667,10.667s4.779,10.667,10.667,10.667h21.333
			c5.888,0,10.667-4.779,10.667-10.667S229.935,213.359,224.047,213.359z"/>
	</g>
</g>
<g>
	<g>
		<path d="M309.38,213.359h-21.333c-5.888,0-10.667,4.779-10.667,10.667s4.779,10.667,10.667,10.667h21.333
			c5.888,0,10.667-4.779,10.667-10.667S315.268,213.359,309.38,213.359z"/>
	</g>
</g>
<g>
	<g>
		<path d="M202.713,181.359c-13.803,0-26.347,11.371-28.715,13.632c-4.245,4.096-4.395,10.837-0.32,15.083
			c2.091,2.197,4.907,3.285,7.701,3.285c2.667,0,5.333-0.981,7.381-2.965c2.709-2.603,9.813-7.701,13.952-7.701
			c5.888,0,10.667-4.779,10.667-10.667S208.601,181.359,202.713,181.359z"/>
	</g>
</g>
<g>
	<g>
		<path d="M338.095,194.991c-2.368-2.261-14.912-13.632-28.715-13.632c-5.888,0-10.667,4.779-10.667,10.667
			s4.779,10.667,10.667,10.667c3.797,0,10.56,4.48,13.973,7.723c2.069,1.963,4.715,2.923,7.36,2.923
			c2.795,0,5.611-1.109,7.701-3.307C342.468,205.785,342.34,199.065,338.095,194.991z"/>
	</g>
</g>
<g>
	<g>
		<path d="M286.916,304.58l-10.667-21.333c-1.813-3.605-5.504-5.888-9.536-5.888H245.38c-4.032,0-7.723,2.283-9.536,5.909
			l-10.667,21.333c-1.664,3.285-1.472,7.232,0.469,10.368c1.941,3.136,5.376,5.056,9.067,5.056h42.667
			c3.691,0,7.125-1.941,9.067-5.077S288.58,307.887,286.916,304.58z"/>
	</g>
</g>
<g>
	<g>
		<path d="M511.385,497.668l-16.235-43.861c-3.776-15.125-13.952-27.797-27.883-34.773l-41.664-20.843
			c-4.181-2.091-9.28-1.195-12.523,2.219c-3.221,3.413-3.84,8.533-1.515,12.629l10.923,19.115c4.949,8.64,5.568,19.264,1.643,28.437
			c-3.904,9.152-12.011,16.064-21.675,18.496l-40.832,10.347l-4.885,2.176c-4.608,2.048-7.147,7.04-6.101,11.968
			c1.067,4.928,5.397,8.448,10.453,8.448H501.38c3.499,0,6.763-1.707,8.747-4.565C512.132,504.601,512.601,500.932,511.385,497.668z
			"/>
	</g>
</g>
<g>
	<g>
		<path d="M403.972,442.735l-42.667-74.667c-1.771-3.115-5.013-5.141-8.597-5.355c-3.627-0.064-7.04,1.387-9.195,4.245
			l-87.467,116.629L168.58,366.959c-2.155-2.88-5.44-4.352-9.195-4.245c-3.584,0.213-6.805,2.24-8.597,5.355l-42.667,74.667
			c-1.664,2.901-1.856,6.4-0.555,9.472s3.989,5.355,7.232,6.165l40.917,10.069l96,42.667c1.387,0.619,2.88,0.917,4.331,0.917
			c1.451,0,2.944-0.299,4.331-0.917l94.251-42.069l42.667-10.667c3.243-0.811,5.909-3.093,7.232-6.165
			C405.849,449.135,405.636,445.615,403.972,442.735z"/>
	</g>
</g>
<g>
	<g>
		<path d="M153.732,490.948l-44.117-11.861c-9.664-2.411-17.771-9.344-21.675-18.496c-3.925-9.173-3.307-19.797,1.643-28.437
			l10.923-19.115c2.325-4.075,1.728-9.216-1.515-12.629c-3.243-3.413-8.341-4.309-12.523-2.219l-41.664,20.821
			c-13.952,6.976-24.107,19.648-27.563,33.685L0.665,497.647c-1.216,3.264-0.747,6.933,1.259,9.792
			c2.027,2.88,5.291,4.587,8.789,4.587h140.288c0.149,0,0.299,0,0.427,0c5.888,0,10.667-4.779,10.667-10.667
			C162.095,496.26,158.511,491.993,153.732,490.948z"/>
	</g>
</g>
<g>
</g>
<g>
</g>
<g>
</g>
<g>
</g>
<g>
</g>
<g>
</g>
<g>
</g>
<g>
</g>
<g>
</g>
<g>
</g>
<g>
</g>
<g>
</g>
<g>
</g>
<g>
</g>
<g>
</g>
</svg>
