<?xml version="1.0" encoding="iso-8859-1"?>
<!-- Generator: Adobe Illustrator 19.0.0, SVG Export Plug-In . SVG Version: 6.00 Build 0)  -->
<svg version="1.1" id="Capa_1" xmlns="http://www.w3.org/2000/svg" xmlns:xlink="http://www.w3.org/1999/xlink" x="0px" y="0px"
	 viewBox="0 0 512 512" style="enable-background:new 0 0 512 512;" xml:space="preserve">
<g>
	<g>
		<path d="M224,192h-21.333c-5.888,0-10.667,4.779-10.667,10.667s4.779,10.667,10.667,10.667H224
			c5.888,0,10.667-4.779,10.667-10.667S229.888,192,224,192z"/>
	</g>
</g>
<g>
	<g>
		<path d="M309.333,192H288c-5.888,0-10.667,4.779-10.667,10.667s4.779,10.667,10.667,10.667h21.333
			c5.888,0,10.667-4.779,10.667-10.667S315.221,192,309.333,192z"/>
	</g>
</g>
<g>
	<g>
		<path d="M153.685,237.803c-3.093-4.949-9.984-6.293-15.019-3.136c-2.645,0-10.667-11.349-10.667-32
			c0-7.296,1.045-14.315,3.029-20.309c1.856-5.589-1.152-11.627-6.763-13.483c-5.611-1.856-11.648,1.195-13.483,6.763
			c-2.688,8.128-4.117,17.472-4.117,27.029c0,30.4,13.76,53.333,32,53.333c4.011,0,7.936-1.216,11.947-3.755
			C155.627,249.131,156.8,242.795,153.685,237.803z"/>
	</g>
</g>
<g>
	<g>
		<path d="M256,0c-82.325,0-149.333,66.987-149.333,149.333c0,9.877,1.216,20.032,3.84,31.957c1.067,4.885,5.397,8.384,10.411,8.384
			c12.096,0,26.667,2.176,26.816,2.197c0.533,0.085,1.067,0.128,1.6,0.128c0.085,0,0.256,0,0.427,0
			c5.888,0,10.667-4.779,10.667-10.667c0-1.301-0.235-2.517-0.64-3.669c-1.301-21.291,0.021-42.816,3.008-49.664h1.621
			c36.885,0,55.275-11.712,63.744-26.496c24.704,24.405,76.224,47.829,123.84,47.829c74.667,0,74.667-80.277,74.667-106.667
			C426.667,18.133,369.365,3.776,256,0z"/>
	</g>
</g>
<g>
	<g>
		<path d="M394.667,117.333c-5.888,0-10.667,4.779-10.667,10.667v2.667l-21.845,5.461C361.003,131.499,356.992,128,352,128
			c-5.888,0-10.667,4.779-10.667,10.667c0,20.693,11.115,45.931,11.584,46.997c1.728,3.883,5.568,6.336,9.749,6.336
			c0.299,0,0.576,0,0.875-0.021l28.416-2.325c4.672-0.384,8.533-3.776,9.536-8.363c2.624-11.925,3.84-22.08,3.84-31.957V128
			C405.333,122.112,400.555,117.333,394.667,117.333z"/>
	</g>
</g>
<g>
	<g>
		<path d="M401.195,175.659c-1.856-5.568-7.915-8.619-13.483-6.763c-5.589,1.856-8.619,7.893-6.763,13.483
			c2.005,5.973,3.051,12.992,3.051,20.288c0,20.651-8.021,32-10.304,32.043c-0.021-0.021-0.341-0.085-1.045-0.533
			c-4.928-3.093-11.541-1.6-14.677,3.392s-1.6,11.584,3.392,14.699c4.032,2.517,7.957,3.733,11.968,3.733
			c18.24,0,32-22.933,32-53.333C405.333,193.109,403.904,183.765,401.195,175.659z"/>
	</g>
</g>
<g>
	<g>
		<path d="M341.888,300.971c-4.608-3.648-11.307-2.901-14.976,1.728c-19.755,24.917-44.928,38.635-70.912,38.635
			s-51.157-13.717-70.912-38.613c-3.669-4.629-10.368-5.376-14.976-1.728c-4.629,3.648-5.397,10.368-1.728,14.976
			c23.872,30.123,54.997,46.699,87.616,46.699s63.744-16.576,87.616-46.72C347.285,311.339,346.517,304.619,341.888,300.971z"/>
	</g>
</g>
<g>
	<g>
		<path d="M210.859,302.507l-53.333-64c-1.557-1.856-3.627-3.072-5.824-3.563c-2.432-1.984-5.717-2.88-9.067-2.112
			c-5.76,1.323-9.344,7.019-8.043,12.779l15.019,66.112C150.699,316.544,155.029,320,160,320h42.667
			c4.139,0,7.893-2.389,9.664-6.144C214.08,310.123,213.525,305.685,210.859,302.507z"/>
	</g>
</g>
<g>
	<g>
		<path d="M369.365,232.811c-3.328-0.747-6.635,0.128-9.067,2.112c-2.219,0.491-4.267,1.707-5.824,3.563l-53.333,64
			c-2.667,3.179-3.221,7.616-1.472,11.349c1.771,3.776,5.525,6.165,9.664,6.165H352c4.971,0,9.301-3.456,10.389-8.299l15.019-66.112
			C378.731,239.829,375.125,234.133,369.365,232.811z"/>
	</g>
</g>
<g>
	<g>
		<path d="M185.024,492.459l-42.773-28.501c-6.763-4.501-11.52-11.371-13.397-19.285c-0.853-3.584-3.499-6.485-6.997-7.659
			l-3.989-1.323c-4.672-1.557-9.003-4.245-12.501-7.744l-33.344-33.323c-3.605-3.584-9.216-4.181-13.461-1.344
			C21.355,418.112,0,457.493,0,501.333C0,507.221,4.779,512,10.667,512h168.427c4.715,0,8.853-3.072,10.219-7.573
			S188.928,495.061,185.024,492.459z"/>
	</g>
</g>
<g>
	<g>
		<path d="M447.701,349.547c-0.832-3.605-3.499-6.507-6.997-7.659l-64-21.333c-4.48-1.493-9.451,0.149-12.16,4.075L256,482.517
			L147.456,324.629c-2.709-3.925-7.659-5.568-12.16-4.075l-64,21.333c-3.499,1.173-6.165,4.053-6.997,7.659
			c-0.853,3.584,0.213,7.381,2.837,9.984l53.333,53.333c1.173,1.173,2.603,2.048,4.16,2.581l24.704,8.235v13.653
			c0,3.563,1.792,6.891,4.757,8.875l95.872,63.915c0.619,0.427,1.28,0.789,1.963,1.067c1.301,0.533,2.688,0.811,4.075,0.811
			c1.408,0,2.816-0.277,4.139-0.832c0.64-0.277,1.301-0.619,1.899-1.045l95.872-63.915c2.965-1.984,4.757-5.312,4.757-8.875V423.68
			l24.704-8.235c1.557-0.512,3.008-1.408,4.16-2.581l53.333-53.333C447.488,356.907,448.555,353.131,447.701,349.547z"/>
	</g>
</g>
<g>
	<g>
		<path d="M453.419,393.301c-4.245-2.837-9.856-2.261-13.461,1.344l-33.344,33.323c-3.499,3.499-7.829,6.187-12.501,7.723
			l-3.989,1.323c-3.477,1.173-6.123,4.075-6.976,7.659c-1.877,7.915-6.635,14.763-13.397,19.285l-42.752,28.501
			c-3.925,2.603-5.653,7.467-4.288,11.968c1.365,4.501,5.504,7.573,10.197,7.573h168.427c5.888,0,10.667-4.779,10.667-10.667
			C512,457.493,490.645,418.112,453.419,393.301z"/>
	</g>
</g>
<g>
</g>
<g>
</g>
<g>
</g>
<g>
</g>
<g>
</g>
<g>
</g>
<g>
</g>
<g>
</g>
<g>
</g>
<g>
</g>
<g>
</g>
<g>
</g>
<g>
</g>
<g>
</g>
<g>
</g>
</svg>
