<?xml version="1.0" encoding="iso-8859-1"?>
<!-- Generator: Adobe Illustrator 19.0.0, SVG Export Plug-In . SVG Version: 6.00 Build 0)  -->
<svg version="1.1" id="Capa_1" xmlns="http://www.w3.org/2000/svg" xmlns:xlink="http://www.w3.org/1999/xlink" x="0px" y="0px"
	 viewBox="0 0 512 512" style="enable-background:new 0 0 512 512;" xml:space="preserve">
<g>
	<g>
		<path d="M405.333,448H106.667c-17.643,0-32,14.357-32,32v21.333c0,5.888,4.779,10.667,10.667,10.667h341.333
			c5.888,0,10.667-4.779,10.667-10.667V480C437.333,462.357,422.976,448,405.333,448z"/>
	</g>
</g>
<g>
	<g>
		<path d="M432.299,150.955L278.421,54.763C284.331,48.96,288,40.917,288,32c0-17.643-14.357-32-32-32c-17.643,0-32,14.357-32,32
			c0,8.917,3.669,16.96,9.579,22.784L79.68,150.955c-4.032,2.517-5.909,7.403-4.587,11.989c1.323,4.587,5.483,7.723,10.24,7.723
			h341.333c4.757,0,8.939-3.157,10.24-7.723C438.208,158.379,436.352,153.493,432.299,150.955z M256,42.667
			c-5.888,0-10.667-4.779-10.667-10.667S250.112,21.333,256,21.333S266.667,26.112,266.667,32S261.888,42.667,256,42.667z"/>
	</g>
</g>
<g>
	<g>
		<polygon points="135.509,192 256,295.275 376.512,192 		"/>
	</g>
</g>
<g>
	<g>
		<polygon points="117.333,204.523 117.333,414.123 239.616,309.333 		"/>
	</g>
</g>
<g>
	<g>
		<polygon points="256,323.392 135.509,426.667 376.512,426.667 		"/>
	</g>
</g>
<g>
	<g>
		<polygon points="272.384,309.333 394.667,414.123 394.667,204.523 		"/>
	</g>
</g>
<g>
</g>
<g>
</g>
<g>
</g>
<g>
</g>
<g>
</g>
<g>
</g>
<g>
</g>
<g>
</g>
<g>
</g>
<g>
</g>
<g>
</g>
<g>
</g>
<g>
</g>
<g>
</g>
<g>
</g>
</svg>
