<?xml version="1.0" encoding="iso-8859-1"?>
<!-- Generator: Adobe Illustrator 19.0.0, SVG Export Plug-In . SVG Version: 6.00 Build 0)  -->
<svg version="1.1" id="Capa_1" xmlns="http://www.w3.org/2000/svg" xmlns:xlink="http://www.w3.org/1999/xlink" x="0px" y="0px"
	 viewBox="0 0 512.007 512.007" style="enable-background:new 0 0 512.007 512.007;" xml:space="preserve">
<g>
	<g>
		<path d="M418.884,354.717l-54.869-19.093c-4.032-1.387-8.491-0.256-11.371,2.859c-26.88,29.376-61.205,45.525-96.64,45.525
			s-69.76-16.171-96.619-45.525c-2.88-3.115-7.339-4.245-11.371-2.859l-54.869,19.093c-55.723,19.349-93.141,72-93.141,130.965
			v15.659c0,5.909,4.779,10.667,10.667,10.667h490.667c5.888,0,10.667-4.779,10.667-10.667v-15.659
			C512.004,426.717,474.585,374.066,418.884,354.717z"/>
	</g>
</g>
<g>
	<g>
		<path d="M224.004,192.007H202.67c-5.888,0-10.667,4.757-10.667,10.667c0,5.909,4.779,10.667,10.667,10.667h21.333
			c5.888,0,10.667-4.779,10.667-10.667S229.892,192.007,224.004,192.007z"/>
	</g>
</g>
<g>
	<g>
		<path d="M309.337,192.007h-21.333c-5.888,0-10.667,4.757-10.667,10.667c0,5.909,4.779,10.667,10.667,10.667h21.333
			c5.888,0,10.667-4.779,10.667-10.667S315.225,192.007,309.337,192.007z"/>
	</g>
</g>
<g>
	<g>
		<path d="M383.897,152.733c0.064-1.131,0.107-2.261,0.107-3.392v-32c0-5.888-4.779-10.667-10.667-10.667
			c-5.888,0-10.667,4.779-10.667,10.667v32c0,2.411-0.299,4.736-0.576,7.061l-0.299,2.667c-0.32,3.2,0.811,6.379,3.051,8.64
			c2.261,2.283,5.44,3.328,8.619,3.093c0.107-0.021,0.213-0.021,0.32-0.043c3.029,1.152,10.219,12.352,10.219,31.915
			c0,20.608-7.936,32.299-11.285,31.531c-2.901-1.813-6.485-2.133-9.643-0.832c-3.157,1.301-5.504,4.011-6.336,7.317
			c-14.955,60.203-55.424,100.651-100.736,100.651s-85.781-40.448-100.715-100.651c-0.853-3.328-3.52-5.803-6.656-7.083
			c-3.221-1.28-7.083-0.725-9.963,1.067c-2.645,0-10.667-11.349-10.667-32c0-19.541,7.189-30.763,10.197-31.893
			c0.107,0.021,0.213,0.043,0.32,0.043c3.115,0.213,6.357-0.811,8.619-3.093c2.261-2.283,3.392-5.461,3.051-8.64l-0.299-2.667
			c-0.256-2.347-0.555-4.672-0.555-7.083v-32c0-5.888-4.779-10.667-10.667-10.667s-10.667,4.779-10.667,10.667v32
			c0,0.939,0.021,1.856,0.085,2.773c-12.736,6.955-21.419,26.389-21.419,50.56c0,29.675,13.099,52.224,30.677,53.291
			c19.392,64.256,66.091,106.709,118.656,106.709s99.264-42.453,118.656-106.709c17.579-1.067,30.677-23.616,30.677-53.291
			C405.337,179.079,397.038,159.986,383.897,152.733z"/>
	</g>
</g>
<g>
	<g>
		<path d="M447.982,31.282c-0.363-5.141-4.331-9.301-9.451-9.877l-192-21.333c-1.301-0.149-2.539-0.064-3.776,0.256L72.089,42.994
			c-5.013,1.259-8.405,5.909-8.064,11.072c0.363,5.141,4.331,9.323,9.451,9.877l192,21.333c0.405,0.043,0.789,0.064,1.195,0.064
			c0.875,0,1.728-0.107,2.581-0.32l170.667-42.667C444.932,41.095,448.324,36.445,447.982,31.282z"/>
	</g>
</g>
<g>
	<g>
		<path d="M373.337,32.007c-5.888,0-10.667,4.779-10.667,10.667v0.491l-213.44,9.707c-0.256-5.675-4.843-10.197-10.56-10.197
			c-5.888,0-10.667,4.779-10.667,10.667v16.64l138.667,15.36c0.875,0,1.728-0.107,2.539-0.299l114.795-28.693V42.674
			C384.004,36.786,379.225,32.007,373.337,32.007z"/>
	</g>
</g>
<g>
	<g>
		<path d="M274.414,105.714c-2.475,0.64-5.099,0.96-7.744,0.96c-1.216,0-2.389-0.064-3.605-0.213L128.004,91.463v25.877
			c0,3.669,1.899,7.083,4.992,9.024c1.515,0.96,37.589,22.976,123.008,22.976s121.493-22.037,123.008-22.976
			c3.093-1.941,4.992-5.355,4.992-9.024V78.322L274.414,105.714z"/>
	</g>
</g>
<g>
	<g>
		<polygon points="437.337,117.341 416.004,138.674 437.337,181.341 458.67,138.674 		"/>
	</g>
</g>
<g>
	<g>
		<path d="M466.222,131.143l-18.219-18.219V32.007c0-5.888-4.779-10.667-10.667-10.667c-5.888,0-10.667,4.779-10.667,10.667v80.917
			l-18.197,18.219c-3.264,3.243-4.075,8.213-2.005,12.309l21.333,42.667c1.813,3.605,5.504,5.888,9.536,5.888
			s7.723-2.283,9.557-5.888l21.333-42.667C470.276,139.357,469.465,134.386,466.222,131.143z M437.337,157.49l-8.363-16.704
			l8.363-8.363l8.363,8.363L437.337,157.49z"/>
	</g>
</g>
<g>
</g>
<g>
</g>
<g>
</g>
<g>
</g>
<g>
</g>
<g>
</g>
<g>
</g>
<g>
</g>
<g>
</g>
<g>
</g>
<g>
</g>
<g>
</g>
<g>
</g>
<g>
</g>
<g>
</g>
</svg>
