<?xml version="1.0" encoding="iso-8859-1"?>
<!-- Generator: Adobe Illustrator 19.0.0, SVG Export Plug-In . SVG Version: 6.00 Build 0)  -->
<svg version="1.1" id="Capa_1" xmlns="http://www.w3.org/2000/svg" xmlns:xlink="http://www.w3.org/1999/xlink" x="0px" y="0px"
	 viewBox="0 0 512 512" style="enable-background:new 0 0 512 512;" xml:space="preserve">
<g>
	<g>
		<path d="M458.667,384H160c-17.643,0-32,14.357-32,32v64c0,17.643,14.357,32,32,32h298.667c17.643,0,32-14.357,32-32v-64
			C490.667,398.357,476.309,384,458.667,384z M192,458.667c0,5.888-4.779,10.667-10.667,10.667s-10.667-4.779-10.667-10.667v-21.333
			c0-5.888,4.779-10.667,10.667-10.667S192,431.445,192,437.333V458.667z M256,458.667c0,5.888-4.779,10.667-10.667,10.667
			s-10.667-4.779-10.667-10.667v-21.333c0-5.888,4.779-10.667,10.667-10.667S256,431.445,256,437.333V458.667z M320,458.667
			c0,5.888-4.779,10.667-10.667,10.667s-10.667-4.779-10.667-10.667v-21.333c0-5.888,4.779-10.667,10.667-10.667
			S320,431.445,320,437.333V458.667z M384,458.667c0,5.888-4.779,10.667-10.667,10.667c-5.888,0-10.667-4.779-10.667-10.667v-21.333
			c0-5.888,4.779-10.667,10.667-10.667c5.888,0,10.667,4.779,10.667,10.667V458.667z M448,458.667
			c0,5.888-4.779,10.667-10.667,10.667c-5.888,0-10.667-4.779-10.667-10.667v-21.333c0-5.888,4.779-10.667,10.667-10.667
			c5.888,0,10.667,4.779,10.667,10.667V458.667z"/>
	</g>
</g>
<g>
	<g>
		<path d="M309.333,0c-88.235,0-160,71.765-160,160v45.525l-47.104-27.157c-0.235-0.149-0.469-0.32-0.725-0.469
			c-8.128-4.736-17.387-7.232-26.837-7.232c-29.397,0-53.333,23.936-53.333,53.333c0,17.557,8.619,33.941,23.061,43.904
			c0.192,0.149,0.405,0.277,0.597,0.427c0.683,0.427,58.197,37.141,89.877,94.336h334.464V160C469.333,71.765,397.568,0,309.333,0z"
			/>
	</g>
</g>
<g>
</g>
<g>
</g>
<g>
</g>
<g>
</g>
<g>
</g>
<g>
</g>
<g>
</g>
<g>
</g>
<g>
</g>
<g>
</g>
<g>
</g>
<g>
</g>
<g>
</g>
<g>
</g>
<g>
</g>
</svg>
