<?xml version="1.0" encoding="iso-8859-1"?>
<!-- Generator: Adobe Illustrator 19.0.0, SVG Export Plug-In . SVG Version: 6.00 Build 0)  -->
<svg version="1.1" id="Capa_1" xmlns="http://www.w3.org/2000/svg" xmlns:xlink="http://www.w3.org/1999/xlink" x="0px" y="0px"
	 viewBox="0 0 490.667 490.667" style="enable-background:new 0 0 490.667 490.667;" xml:space="preserve">
<g>
	<g>
		<path d="M480,277.333c-17.643,0-32-14.357-32-32c0-17.643,14.357-32,32-32c5.888,0,10.667-4.779,10.667-10.667
			S485.888,192,480,192c-25.771,0-47.296,18.347-52.245,42.667H271.104l110.763-110.763c8.64,5.739,18.773,8.832,29.397,8.832
			c14.229,0,27.627-5.547,37.717-15.616c4.16-4.16,4.16-10.923,0-15.083c-4.16-4.16-10.923-4.16-15.083,0
			c-12.075,12.096-33.173,12.075-45.248,0c-6.037-6.059-9.365-14.08-9.365-22.635c0-8.555,3.328-16.576,9.365-22.635
			c4.16-4.16,4.16-10.923,0-15.083c-4.16-4.16-10.923-4.16-15.083,0c-18.219,18.219-20.48,46.421-6.784,67.115L256,219.584V62.912
			c24.32-4.949,42.667-26.496,42.667-52.245C298.667,4.779,293.888,0,288,0s-10.667,4.779-10.667,10.667c0,17.643-14.357,32-32,32
			c-17.643,0-32-14.357-32-32C213.333,4.779,208.555,0,202.667,0S192,4.779,192,10.667c0,25.749,18.347,47.296,42.667,52.245
			v156.672L123.883,108.8c13.696-20.693,11.435-48.896-6.763-67.115c-4.16-4.16-10.923-4.16-15.083,0
			c-4.16,4.16-4.16,10.923,0,15.083c12.459,12.48,12.459,32.789,0,45.269c-12.48,12.459-32.789,12.437-45.269,0
			c-4.16-4.16-10.923-4.16-15.083,0c-4.16,4.16-4.16,10.923,0,15.083c10.389,10.389,24.043,15.595,37.717,15.595
			c10.261,0,20.544-2.944,29.419-8.811l110.763,110.763H62.912C57.963,210.347,36.416,192,10.667,192C4.779,192,0,196.779,0,202.667
			s4.779,10.667,10.667,10.667c17.643,0,32,14.357,32,32c0,17.643-14.357,32-32,32C4.779,277.333,0,282.112,0,288
			s4.779,10.667,10.667,10.667c25.749,0,47.296-18.347,52.245-42.667h156.672L108.8,366.784
			c-20.693-13.696-48.917-11.413-67.115,6.784c-4.16,4.16-4.16,10.923,0,15.083c4.16,4.16,10.923,4.16,15.083,0
			c12.096-12.075,33.152-12.075,45.269,0c6.037,6.037,9.365,14.059,9.365,22.635c0,8.533-3.328,16.576-9.365,22.635
			c-4.16,4.16-4.16,10.923,0,15.083c2.091,2.091,4.821,3.115,7.552,3.115c2.731,0,5.461-1.045,7.552-3.115
			c10.069-10.091,15.616-23.488,15.616-37.717c0-10.624-3.093-20.757-8.832-29.397l110.741-110.784v156.651
			C210.347,432.704,192,454.251,192,480c0,5.888,4.779,10.667,10.667,10.667s10.667-4.779,10.667-10.667c0-17.643,14.357-32,32-32
			c17.643,0,32,14.357,32,32c0,5.888,4.779,10.667,10.667,10.667s10.667-4.779,10.667-10.667c0-25.771-18.347-47.296-42.667-52.245
			V271.083l110.784,110.784c-5.739,8.64-8.832,18.795-8.832,29.419c0,14.229,5.547,27.627,15.616,37.717
			c2.091,2.091,4.821,3.115,7.552,3.115s5.461-1.045,7.552-3.115c4.16-4.16,4.16-10.923,0-15.083
			c-6.037-6.037-9.365-14.08-9.365-22.635c0-8.555,3.328-16.576,9.365-22.635c12.096-12.032,33.173-12.075,45.248,0
			c4.16,4.16,10.923,4.16,15.083,0c4.16-4.16,4.16-10.923,0-15.083c-10.091-10.091-23.488-15.616-37.717-15.616
			c-10.624,0-20.757,3.093-29.419,8.832L271.083,256h156.672c4.949,24.32,26.496,42.667,52.245,42.667
			c5.888,0,10.667-4.779,10.667-10.667S485.888,277.333,480,277.333z"/>
	</g>
</g>
<g>
	<g>
		<path d="M319.381,92.395c-0.981-2.773-3.093-5.013-5.781-6.187c-2.709-1.195-5.781-1.195-8.469,0l-27.797,11.968v69.909
			l50.923-50.923L319.381,92.395z"/>
	</g>
</g>
<g>
	<g>
		<path d="M185.493,86.187c-2.731-1.152-5.781-1.131-8.491,0.064c-2.688,1.195-4.779,3.456-5.76,6.229l-8.661,24.853l50.752,50.752
			V97.941L185.493,86.187z"/>
	</g>
</g>
<g>
	<g>
		<path d="M404.459,305.131l-11.968-27.797h-69.909l50.923,50.923l24.768-8.875c2.773-0.981,4.992-3.093,6.187-5.781
			C405.632,310.912,405.632,307.819,404.459,305.131z"/>
	</g>
</g>
<g>
	<g>
		<path d="M404.437,177.024c-1.216-2.709-3.477-4.8-6.251-5.76l-24.853-8.661l-50.731,50.731h70.144l11.776-27.84
			C405.675,182.784,405.632,179.712,404.437,177.024z"/>
	</g>
</g>
<g>
	<g>
		<path d="M162.432,373.504l8.875,24.768c0.981,2.773,3.093,4.992,5.781,6.187c2.688,1.152,5.76,1.173,8.469,0l27.776-11.968
			v-69.888L162.432,373.504z"/>
	</g>
</g>
<g>
	<g>
		<path d="M97.941,277.333l-11.755,27.84c-1.152,2.709-1.131,5.781,0.064,8.469c1.195,2.709,3.456,4.8,6.229,5.76l24.853,8.661
			l50.752-50.731H97.941z"/>
	</g>
</g>
<g>
	<g>
		<path d="M277.333,322.581v70.144l27.84,11.776c1.344,0.555,2.752,0.832,4.16,0.832c1.472,0,2.944-0.32,4.331-0.917
			c2.688-1.195,4.779-3.456,5.76-6.229l8.661-24.853L277.333,322.581z"/>
	</g>
</g>
<g>
	<g>
		<path d="M117.163,162.432l-24.747,8.853c-2.773,0.981-5.013,3.093-6.187,5.781c-1.173,2.688-1.173,5.781,0,8.469l11.947,27.797
			h69.909L117.163,162.432z"/>
	</g>
</g>
<g>
</g>
<g>
</g>
<g>
</g>
<g>
</g>
<g>
</g>
<g>
</g>
<g>
</g>
<g>
</g>
<g>
</g>
<g>
</g>
<g>
</g>
<g>
</g>
<g>
</g>
<g>
</g>
<g>
</g>
</svg>
