<?xml version="1.0" encoding="iso-8859-1"?>
<!-- Generator: Adobe Illustrator 19.0.0, SVG Export Plug-In . SVG Version: 6.00 Build 0)  -->
<svg version="1.1" id="Capa_1" xmlns="http://www.w3.org/2000/svg" xmlns:xlink="http://www.w3.org/1999/xlink" x="0px" y="0px"
	 viewBox="0 0 512 512" style="enable-background:new 0 0 512 512;" xml:space="preserve">
<g>
	<g>
		<path d="M170.453,136.576l-11.2-55.957c-1.131-5.76-6.699-9.536-12.544-8.363c-5.76,1.152-9.515,6.784-8.363,12.565l11.2,55.936
			c1.003,5.077,5.461,8.576,10.453,8.576c0.683,0,1.387-0.064,2.091-0.213C167.872,147.968,171.605,142.357,170.453,136.576z"/>
	</g>
</g>
<g>
	<g>
		<path d="M365.248,72.256c-5.888-1.195-11.392,2.581-12.544,8.363l-11.179,55.957c-1.152,5.781,2.581,11.392,8.363,12.544
			c0.725,0.149,1.408,0.213,2.112,0.213c4.992,0,9.451-3.499,10.453-8.576L373.611,84.8
			C374.763,79.019,371.029,73.408,365.248,72.256z"/>
	</g>
</g>
<g>
	<g>
		<path d="M401.195,196.992c-1.835-5.589-7.936-8.619-13.483-6.763c-5.589,1.856-8.619,7.893-6.763,13.483
			C382.955,209.685,384,216.704,384,224c0,20.715-7.573,32.256-11.328,31.531c-2.88-1.813-6.464-2.133-9.643-0.853
			c-3.179,1.28-5.547,3.989-6.357,7.317C341.76,322.219,301.291,362.667,256,362.667s-85.76-40.448-100.672-100.672
			c-0.811-3.328-3.52-5.781-6.677-7.083c-3.157-1.259-7.061-0.725-9.984,1.088C136.021,256,128,244.651,128,224
			c0-7.296,1.045-14.315,3.029-20.309c1.856-5.589-1.152-11.627-6.763-13.483c-5.589-1.856-11.648,1.173-13.483,6.763
			c-2.688,8.128-4.117,17.472-4.117,27.029c0,29.717,13.12,52.288,30.741,53.312C156.8,341.547,203.456,384,256,384
			s99.2-42.453,118.592-106.688c17.621-1.024,30.741-23.595,30.741-53.312C405.333,214.443,403.904,205.099,401.195,196.992z"/>
	</g>
</g>
<g>
	<g>
		<path d="M224,213.333h-21.333c-5.888,0-10.667,4.779-10.667,10.667s4.779,10.667,10.667,10.667H224
			c5.888,0,10.667-4.779,10.667-10.667S229.888,213.333,224,213.333z"/>
	</g>
</g>
<g>
	<g>
		<path d="M309.333,213.333H288c-5.888,0-10.667,4.779-10.667,10.667s4.779,10.667,10.667,10.667h21.333
			c5.888,0,10.667-4.779,10.667-10.667S315.221,213.333,309.333,213.333z"/>
	</g>
</g>
<g>
	<g>
		<path d="M189.888,334.933L128,252.437v-81.771c0-5.888-4.779-10.667-10.667-10.667s-10.667,4.779-10.667,10.667
			c0,34.453-19.136,110.72-39.552,131.115c-4.16,4.16-4.16,10.923,0,15.083c23.573,23.595,103.851,33.941,112.917,35.051
			c0.448,0.064,0.875,0.085,1.301,0.085c3.776,0,7.317-2.005,9.237-5.333C192.725,342.976,192.448,338.347,189.888,334.933z"/>
	</g>
</g>
<g>
	<g>
		<path d="M444.885,301.781c-20.416-20.395-39.552-96.661-39.552-131.115c0-5.888-4.779-10.667-10.667-10.667
			S384,164.779,384,170.667v81.771l-61.867,82.496c-2.56,3.413-2.837,8.021-0.683,11.733c1.92,3.328,5.461,5.333,9.237,5.333
			c0.427,0,0.853-0.021,1.301-0.064c9.067-1.109,89.344-11.456,112.917-35.051C449.045,312.704,449.045,305.963,444.885,301.781z"/>
	</g>
</g>
<g>
	<g>
		<path d="M377.387,22.144C375.168,21.227,322.667,0,256,0S136.832,21.227,134.613,22.144c-4.715,1.941-7.403,6.955-6.4,11.968
			l21.333,106.667c1.003,4.971,5.376,8.555,10.453,8.555h192c5.077,0,9.451-3.584,10.453-8.576l21.333-106.667
			C384.789,29.077,382.101,24.064,377.387,22.144z M277.333,85.333h-10.667V96c0,5.888-4.779,10.667-10.667,10.667
			S245.333,101.888,245.333,96V85.333h-10.667c-5.888,0-10.667-4.779-10.667-10.667S228.779,64,234.667,64h10.667V53.333
			c0-5.888,4.779-10.667,10.667-10.667s10.667,4.779,10.667,10.667V64h10.667C283.221,64,288,68.779,288,74.667
			S283.221,85.333,277.333,85.333z"/>
	</g>
</g>
<g>
	<g>
		<path d="M390.933,107.115l-7.573,37.824c-2.944,14.912-16.149,25.728-31.36,25.728h-86.059
			c36.331,22.272,81.493,40.341,125.141,40.341c5.013,0,9.344-3.499,10.411-8.384c2.624-11.925,3.84-22.08,3.84-31.957
			C405.333,147.925,400.064,126.443,390.933,107.115z"/>
	</g>
</g>
<g>
	<g>
		<path d="M160,170.667c-15.211,0-28.416-10.816-31.381-25.728l-7.552-37.824c-9.131,19.328-14.4,40.811-14.4,63.552
			c0,9.877,1.216,20.032,3.84,31.957c0.661,3.051,2.645,5.675,5.397,7.125c2.773,1.472,6.08,1.643,8.939,0.491
			c2.133-0.832,32.789-13.291,57.429-39.573H160z"/>
	</g>
</g>
<g>
	<g>
		<path d="M418.901,376.021l-8.576-2.987c-3.563-1.237-7.552-0.491-10.432,1.963c-2.88,2.475-4.245,6.272-3.563,10.027l8.491,46.549
			c1.536,8.405-0.299,16.917-5.184,23.957c-4.8,6.933-12.309,11.776-20.587,13.291l-117.333,21.333
			c-1.877,0.341-3.797,0.512-5.717,0.512s-3.84-0.171-5.739-0.512l-117.333-21.333c-8.277-1.493-15.787-6.336-20.587-13.269
			c-4.885-7.04-6.699-15.552-5.184-23.957l8.491-46.549c0.683-3.733-0.661-7.552-3.563-10.027c-2.88-2.453-6.869-3.2-10.432-1.963
			l-8.555,2.987C35.669,396.011,0,444.011,0,501.333C0,507.221,4.779,512,10.667,512H256h245.333
			c5.888,0,10.667-4.779,10.667-10.667C512,444.011,476.331,396.011,418.901,376.021z"/>
	</g>
</g>
<g>
	<g>
		<path d="M383.829,435.413l-12.821-70.315c-0.661-3.669-3.2-6.699-6.677-8.043c-3.499-1.344-7.403-0.768-10.347,1.536L256,434.517
			l-97.984-75.925c-2.923-2.283-6.827-2.88-10.347-1.536c-3.477,1.344-6.016,4.373-6.677,8.043l-12.821,70.315
			c-0.512,2.795,0.107,5.653,1.728,8c1.621,2.325,4.075,3.904,6.869,4.416l117.333,21.333c0.619,0.107,1.259,0.171,1.899,0.171
			s1.28-0.064,1.899-0.171l117.333-21.333c2.773-0.491,5.248-2.091,6.869-4.416C383.723,441.088,384.32,438.208,383.829,435.413z"/>
	</g>
</g>
<g>
</g>
<g>
</g>
<g>
</g>
<g>
</g>
<g>
</g>
<g>
</g>
<g>
</g>
<g>
</g>
<g>
</g>
<g>
</g>
<g>
</g>
<g>
</g>
<g>
</g>
<g>
</g>
<g>
</g>
</svg>
