<?xml version="1.0" encoding="iso-8859-1"?>
<!-- Generator: Adobe Illustrator 19.0.0, SVG Export Plug-In . SVG Version: 6.00 Build 0)  -->
<svg version="1.1" id="Capa_1" xmlns="http://www.w3.org/2000/svg" xmlns:xlink="http://www.w3.org/1999/xlink" x="0px" y="0px"
	 viewBox="0 0 512.027 512.027" style="enable-background:new 0 0 512.027 512.027;" xml:space="preserve">
<g>
	<g>
		<path d="M378.501,317.048l-110.997-61.035l110.997-61.056c5.163-2.837,7.04-9.323,4.203-14.485
			c-2.88-5.163-9.344-7.019-14.507-4.203l-112.171,61.696V121.763l82.219-82.219c4.16-4.16,4.16-10.923,0-15.083
			c-4.16-4.16-10.923-4.16-15.083,0l-67.136,67.136V10.68c0-5.888-4.779-10.667-10.667-10.667s-10.667,4.779-10.667,10.667v80.917
			l-67.115-67.136c-4.16-4.16-10.923-4.16-15.083,0c-4.16,4.16-4.16,10.923,0,15.083l82.197,82.219v116.203l-101.611-55.872
			L100.784,70.072c-1.643-5.632-7.509-8.917-13.205-7.296c-5.675,1.643-8.939,7.531-7.296,13.205l26.411,91.605l-69.547-38.251
			c-5.12-2.837-11.627-0.96-14.464,4.203s-0.96,11.648,4.203,14.485l69.611,38.293l-88.981,27.52
			c-5.632,1.749-8.768,7.701-7.04,13.333c1.451,4.565,5.653,7.509,10.219,7.509c1.045,0,2.112-0.149,3.157-0.469l108.629-33.6
			l100.736,55.403L122.48,311.416l-108.629-33.6c-5.653-1.749-11.605,1.408-13.333,7.04c-1.749,5.632,1.408,11.605,7.04,13.333
			l88.939,27.52l-69.589,38.272c-5.163,2.859-7.061,9.344-4.203,14.507c1.92,3.52,5.568,5.525,9.323,5.525
			c1.749,0,3.499-0.427,5.12-1.323l69.547-38.229l-26.432,91.584c-1.643,5.675,1.643,11.584,7.296,13.205
			c0.981,0.299,1.984,0.427,2.965,0.427c4.629,0,8.896-3.051,10.24-7.701l32.32-112.021l101.611-55.893v116.203l-82.219,82.219
			c-4.16,4.16-4.16,10.923,0,15.083c4.16,4.16,10.923,4.16,15.083,0l67.136-67.136v80.917c0,5.888,4.779,10.667,10.667,10.667
			s10.667-4.779,10.667-10.667v-80.917l67.115,67.115c2.091,2.091,4.821,3.136,7.552,3.136c2.731,0,5.461-1.045,7.552-3.115
			c4.16-4.16,4.16-10.923,0-15.083l-82.219-82.219V274.061l112.192,61.717c1.643,0.875,3.392,1.301,5.141,1.301
			c3.755,0,7.403-2.005,9.344-5.525C385.541,326.392,383.664,319.907,378.501,317.048z"/>
	</g>
</g>
<g>
	<g>
		<path d="M501.36,256.013c5.888,0,10.667-4.779,10.667-10.667s-4.779-10.667-10.667-10.667h-32v-64h32
			c5.888,0,10.667-4.779,10.667-10.667s-4.779-10.667-10.667-10.667h-32v-32c0-17.643-14.357-32-32-32c-17.643,0-32,14.357-32,32
			v246.528c0,3.733-1.941,7.147-5.035,8.917c-28.224,16.128-42.411,47.296-36.181,79.403c5.76,29.611,29.589,53.141,59.285,58.56
			c4.608,0.832,9.237,1.259,13.803,1.259c17.472,0,34.411-6.016,47.936-17.301c17.067-14.251,26.859-35.157,26.859-57.365
			c0-26.368-14.272-51.051-37.248-64.363c-3.392-1.941-5.419-5.376-5.419-9.131v-22.507h32c5.888,0,10.667-4.779,10.667-10.667
			s-4.779-10.667-10.667-10.667h-32v-64H501.36z M448.027,320.013h-21.333V117.347c0-5.888,4.8-10.667,10.667-10.667
			c5.867,0,10.667,4.779,10.667,10.667V320.013z"/>
	</g>
</g>
<g>
</g>
<g>
</g>
<g>
</g>
<g>
</g>
<g>
</g>
<g>
</g>
<g>
</g>
<g>
</g>
<g>
</g>
<g>
</g>
<g>
</g>
<g>
</g>
<g>
</g>
<g>
</g>
<g>
</g>
</svg>
