<?xml version="1.0" encoding="iso-8859-1"?>
<!-- Generator: Adobe Illustrator 19.0.0, SVG Export Plug-In . SVG Version: 6.00 Build 0)  -->
<svg version="1.1" id="Capa_1" xmlns="http://www.w3.org/2000/svg" xmlns:xlink="http://www.w3.org/1999/xlink" x="0px" y="0px"
	 viewBox="0 0 512 512" style="enable-background:new 0 0 512 512;" xml:space="preserve">
<g>
	<g>
		<path d="M213.933,160c-2.752,0.533-10.667,8.981-10.667,21.333c0,8.064,2.581,10.667,10.667,10.667
			c2.752-0.085,10.667-8.576,10.667-21.333C224.6,160.299,223.085,160,213.933,160z"/>
	</g>
</g>
<g>
	<g>
		<path d="M299.394,159.979c-9.259,0.021-10.795,0.32-10.795,10.688c0,12.757,7.915,21.248,10.667,21.333
			c8.085,0,10.667-2.603,10.667-10.667C309.933,168.981,302.018,160.533,299.394,159.979z"/>
	</g>
</g>
<g>
	<g>
		<path d="M342.594,233.216c-4.501,2.048-11.285,5.12-12.821,6.763c0.192,0.171,0,1.941-0.341,4.032
			c-2.56,16.363-8.555,54.656-72.832,54.656s-70.272-38.293-72.832-54.656c-0.32-2.091-0.512-3.861-0.939-5.099
			c-0.917-0.576-7.701-3.669-12.203-5.717c-3.179-1.451-6.549-2.987-9.835-4.672c1.472,70.677,36.992,112.811,95.808,112.811
			s94.336-42.133,95.808-112.811C349.122,230.208,345.773,231.765,342.594,233.216z"/>
	</g>
</g>
<g>
	<g>
		<path d="M256.6,0c-70.592,0-128,57.408-128,128c0,20.075,4.949,39.915,13.675,57.131c1.088-3.456,2.283-6.784,3.456-9.899
			c2.176-5.696,4.203-11.093,4.203-15.232c0-5.888,4.779-10.667,10.667-10.667s10.667,4.779,10.667,10.667
			c0,8.043-2.837,15.552-5.611,22.805c-2.581,6.891-5.056,13.376-5.056,19.861c1.152,3.093,13.099,8.512,18.837,11.115
			c10.411,4.736,19.392,8.811,22.869,16.469c1.365,3.008,1.92,6.464,2.539,10.453c2.432,15.467,5.739,36.629,51.755,36.629
			s49.323-21.163,51.755-36.629c0.619-3.989,1.173-7.445,2.539-10.453c3.477-7.659,12.459-11.755,22.869-16.469
			c5.739-2.603,17.685-8.021,18.88-11.328c-0.043-6.251-2.496-12.757-5.099-19.648c-2.773-7.253-5.611-14.741-5.611-22.805
			c0-5.888,4.779-10.667,10.667-10.667s10.667,4.779,10.667,10.667c0,4.139,2.048,9.536,4.203,15.232
			c1.173,3.115,2.368,6.421,3.435,9.877C379.736,167.403,384.6,147.819,384.6,128C384.6,57.408,327.192,0,256.6,0z M213.954,213.333
			c-19.733,0-32-12.267-32-32c-0.021-21.931,15.36-42.667,31.637-42.667c8.277,0,32.363,0,32.363,32
			C245.954,193.387,231,213.333,213.954,213.333z M268.909,255.872c-5.739,0.853-11.264-3.072-12.181-8.896
			c-0.043-0.256-0.085-0.533-0.128-0.811c-0.043,0.277-0.085,0.533-0.128,0.811c-0.832,5.269-5.355,9.024-10.517,9.024
			c-0.555,0-1.109-0.043-1.664-0.128c-5.803-0.917-9.813-6.357-8.896-12.181c5.931-37.867,13.739-41.024,21.205-41.024
			c7.488,0,15.296,3.157,21.205,41.024C278.722,249.515,274.712,254.955,268.909,255.872z M299.266,213.333
			c-17.045,0-32-19.947-32-42.667c0-32,24.085-32,32-32c16.619,0,32,20.736,32,42.667C331.266,201.067,319,213.333,299.266,213.333z
			"/>
	</g>
</g>
<g>
	<g>
		<path d="M158.253,368.235c-0.555-22.699-9.493-27.456-16.896-27.456c-2.325,0-4.629,0.555-6.848,1.685
			c-12.352,6.165-49.003,16.96-62.08,20.587c-3.285,0.917-5.931,3.349-7.125,6.528s-0.811,6.741,1.067,9.6
			c11.456,17.472,40.448,58.155,61.803,58.155c0.192,0,0.789,0,0.96,0C154.456,436.075,158.594,381.632,158.253,368.235z
			 M128.109,416c-5.888-0.939-21.333-17.045-35.605-36.523c12.971-3.861,31.872-9.707,44.373-14.763
			C138.285,379.072,133.208,411.136,128.109,416z"/>
	</g>
</g>
<g>
	<g>
		<path d="M86.104,423.168c-1.515-3.243-4.224-5.632-7.189-6.528c-6.016-3.029-23.595-26.283-25.152-34.603
			c-0.704-3.883-3.541-7.061-7.317-8.235c-3.797-1.173-7.915-0.149-10.709,2.645c-18.325,18.325-15.104,109.739-13.76,125.781
			C22.424,507.755,27.053,512,32.6,512h21.333c5.909,0,10.667-4.779,10.667-10.667c0-8.341,7.296-26.197,12.629-39.253
			C85.976,440.64,89.688,430.827,86.104,423.168z M57.474,454.037C52.29,466.709,47,479.701,44.589,490.667h-2.027
			c-1.472-27.755,0.107-59.136,3.029-79.232c6.08,8.704,13.376,16.96,19.797,21.717C63.874,438.336,60.269,447.168,57.474,454.037z"
			/>
	</g>
</g>
<g>
	<g>
		<path d="M253.506,440.619c-4.032-4.181-10.816-4.245-15.019-0.256c-0.149,0.149-13.589,12.587-47.701,18.475
			c-18.944,3.285-45.333-3.691-51.691-8.981c0.811-4.608-1.472-9.365-5.909-11.477c-5.291-2.475-11.691-0.277-14.208,5.056
			c-2.859,6.016-2.091,12.693,2.155,18.283c9.685,12.8,37.909,19.179,59.563,19.179c5.035,0,9.728-0.363,13.696-1.045
			c40.853-7.04,57.323-22.549,59.072-24.299C257.581,451.435,257.581,444.8,253.506,440.619z"/>
	</g>
</g>
<g>
	<g>
		<path d="M254.786,484.907c-3.179-4.864-9.749-6.229-14.656-3.179c-0.149,0.085-15.04,8.939-58.197,8.939
			c-31.829,0-47.915-6.037-53.419-9.28c0.427-3.285-0.683-6.72-3.264-9.152c-4.267-4.032-11.029-3.84-15.083,0.448
			c-4.267,4.544-5.355,10.645-2.901,16.341C114.605,505.963,150.637,512,181.933,512c50.304,0,68.181-11.243,70.037-12.544
			C256.77,496.171,257.944,489.771,254.786,484.907z"/>
	</g>
</g>
<g>
	<g>
		<path d="M256.088,412.715c-1.792-5.568-7.851-8.661-13.44-6.848c-0.277,0.085-27.733,8.917-50.603,10.155
			c-37.312,2.027-39.381,1.216-43.755-5.717c-3.179-4.992-9.813-6.464-14.699-3.328c-4.971,3.157-6.464,9.749-3.328,14.72
			c8.448,13.376,18.155,16.619,37.227,16.619c7.125,0,15.531-0.448,25.685-0.981c25.728-1.387,54.848-10.773,56.064-11.179
			C254.829,424.341,257.901,418.325,256.088,412.715z"/>
	</g>
</g>
<g>
	<g>
		<path d="M446.701,369.557c-1.195-3.179-3.84-5.611-7.125-6.528c-13.077-3.627-49.707-14.4-62.08-20.587
			c-2.219-1.131-4.523-1.685-6.848-1.685c-7.403,0-16.341,4.779-16.896,27.456c-0.341,13.419,3.776,67.84,29.12,69.099
			c0.171,0.021,0.768,0.021,0.96,0.021c21.355,0,50.368-40.661,61.803-58.176C447.512,376.299,447.917,372.736,446.701,369.557z
			 M384.962,415.701c-6.357-7.317-11.136-37.269-9.835-50.987c12.523,5.056,31.403,10.901,44.373,14.763
			C406.018,397.888,391.512,413.269,384.962,415.701z"/>
	</g>
</g>
<g>
	<g>
		<path d="M476.269,376.469c-2.816-2.816-6.933-3.84-10.709-2.645c-3.776,1.173-6.613,4.331-7.317,8.235
			c-1.557,8.32-19.136,31.595-24.725,34.453c-2.837,0.896-6.315,3.989-7.595,6.677c-3.584,7.659,0.128,17.472,8.875,38.912
			c5.312,13.035,12.608,30.891,12.608,39.232c0,5.888,4.779,10.667,10.667,10.667h21.333c5.525,0,10.155-4.245,10.624-9.749
			C491.373,486.187,494.573,394.795,476.269,376.469z M469.442,490.667h-2.027c-2.411-10.965-7.701-23.957-12.885-36.629
			c-2.795-6.848-6.4-15.68-7.915-20.885c6.4-4.757,13.696-12.992,19.776-21.675C469.336,431.595,470.914,462.933,469.442,490.667z"
			/>
	</g>
</g>
<g>
	<g>
		<path d="M392.984,443.435c-2.517-5.333-8.917-7.552-14.208-5.056c-4.437,2.112-6.72,6.869-5.909,11.477
			c-6.357,5.291-32.704,12.267-51.691,8.981c-34.091-5.888-47.552-18.347-47.595-18.368c-4.16-4.16-10.923-4.16-15.083,0
			c-4.16,4.16-4.16,10.923,0,15.083c1.749,1.749,18.24,17.259,59.072,24.299c4.011,0.683,8.704,1.045,13.739,1.045
			c21.653,0,49.877-6.379,59.52-19.179C395.096,456.128,395.864,449.472,392.984,443.435z"/>
	</g>
</g>
<g>
	<g>
		<path d="M401.837,472.704c-4.053-4.288-10.795-4.48-15.083-0.448c-2.581,2.432-3.691,5.867-3.264,9.152
			c-5.504,3.243-21.589,9.28-53.419,9.28c-43.051,0-57.963-8.811-57.984-8.811c-4.8-3.307-11.477-2.091-14.805,2.773
			c-3.328,4.864-2.112,11.499,2.773,14.827c1.856,1.28,19.733,12.523,70.016,12.523c31.275,0,67.328-6.037,74.667-22.955
			C407.192,483.371,406.104,477.248,401.837,472.704z"/>
	</g>
</g>
<g>
	<g>
		<path d="M378.413,406.976c-4.864-3.115-11.52-1.643-14.699,3.328c-4.373,6.955-6.443,7.744-43.755,5.717
			c-22.869-1.237-50.325-10.069-50.603-10.155c-5.568-1.813-11.627,1.28-13.44,6.848c-1.813,5.589,1.237,11.627,6.848,13.44
			c1.216,0.405,30.336,9.792,56.064,11.179c10.133,0.533,18.56,0.981,25.685,0.981c19.072,0,28.779-3.243,37.227-16.619
			C384.898,416.725,383.384,410.112,378.413,406.976z"/>
	</g>
</g>
<g>
	<g>
		<path d="M192.002,348.459c-1.963-5.547-8.021-8.469-13.611-6.507c-0.789,0.277-18.923,6.784-36.011,23.851
			c-4.16,4.16-4.16,10.923,0,15.083c2.091,2.069,4.821,3.115,7.552,3.115s5.461-1.045,7.531-3.115
			c13.504-13.483,27.904-18.773,28.011-18.816C191.042,360.107,193.965,354.027,192.002,348.459z"/>
	</g>
</g>
<g>
	<g>
		<path d="M370.818,365.803c-17.088-17.067-35.243-23.573-36.011-23.851c-5.461-1.92-11.605,0.939-13.568,6.485
			c-1.984,5.547,0.917,11.627,6.443,13.632c0.128,0.043,14.528,5.333,28.032,18.816c2.091,2.069,4.821,3.115,7.552,3.115
			c2.731,0,5.461-1.045,7.552-3.115C374.978,376.725,374.978,369.963,370.818,365.803z"/>
	</g>
</g>
<g>
	<g>
		<path d="M286.722,377.963c-3.904-5.675-14.656-15.296-30.123-15.296c-15.467,0-26.197,9.621-30.123,15.275
			c-1.6,2.325-2.197,5.184-1.707,7.957l21.333,117.333c0.939,5.077,5.355,8.768,10.496,8.768c5.163,0,9.579-3.691,10.496-8.747
			l21.333-117.333C288.941,383.147,288.322,380.288,286.722,377.963z M256.6,441.707l-9.877-54.272
			c2.133-1.643,5.461-3.435,9.877-3.435c4.416,0,7.765,1.792,9.877,3.456L256.6,441.707z"/>
	</g>
</g>
<g>
</g>
<g>
</g>
<g>
</g>
<g>
</g>
<g>
</g>
<g>
</g>
<g>
</g>
<g>
</g>
<g>
</g>
<g>
</g>
<g>
</g>
<g>
</g>
<g>
</g>
<g>
</g>
<g>
</g>
</svg>
