<?xml version="1.0" encoding="iso-8859-1"?>
<!-- Generator: Adobe Illustrator 19.0.0, SVG Export Plug-In . SVG Version: 6.00 Build 0)  -->
<svg version="1.1" id="Capa_1" xmlns="http://www.w3.org/2000/svg" xmlns:xlink="http://www.w3.org/1999/xlink" x="0px" y="0px"
	 viewBox="0 0 511.957 511.957" style="enable-background:new 0 0 511.957 511.957;" xml:space="preserve">
<g>
	<g>
		<path d="M294.313,328.32c-3.861-1.685-6.336-5.461-6.336-9.643v-20.011h32c5.888,0,10.667-4.779,10.667-10.667
			s-4.779-10.667-10.667-10.667h-32V192h32c5.888,0,10.667-4.779,10.667-10.667s-4.779-10.667-10.667-10.667h-32V85.333h32
			c5.888,0,10.667-4.779,10.667-10.667S325.865,64,319.977,64h-32V32c0-17.643-14.357-32-32-32c-17.643,0-32,14.357-32,32v286.677
			c0,4.16-2.496,7.936-6.336,9.621c-43.051,18.752-65.685,64.128-55.061,110.336c8.021,34.923,35.755,62.677,70.656,70.72
			c7.552,1.749,15.125,2.603,22.635,2.603c21.696,0,42.688-7.168,59.84-20.8c23.04-18.325,36.267-45.717,36.267-75.157
			C351.977,377.984,329.321,343.552,294.313,328.32z M266.644,277.333h-21.333V32c0-5.888,4.779-10.667,10.667-10.667
			c5.888,0,10.667,4.779,10.667,10.667V277.333z"/>
	</g>
</g>
<g>
</g>
<g>
</g>
<g>
</g>
<g>
</g>
<g>
</g>
<g>
</g>
<g>
</g>
<g>
</g>
<g>
</g>
<g>
</g>
<g>
</g>
<g>
</g>
<g>
</g>
<g>
</g>
<g>
</g>
</svg>
