<?xml version="1.0" encoding="iso-8859-1"?>
<!-- Generator: Adobe Illustrator 19.0.0, SVG Export Plug-In . SVG Version: 6.00 Build 0)  -->
<svg version="1.1" id="Capa_1" xmlns="http://www.w3.org/2000/svg" xmlns:xlink="http://www.w3.org/1999/xlink" x="0px" y="0px"
	 viewBox="0 0 490.652 490.652" style="enable-background:new 0 0 490.652 490.652;" xml:space="preserve">
<g>
	<g>
		<path d="M106.665,394.66v32c0,17.643,14.357,32,32,32h10.667v-32c0-5.888,4.779-10.667,10.667-10.667s10.667,4.779,10.667,10.667
			v32h21.333v-32c0-5.888,4.779-10.667,10.667-10.667s10.667,4.779,10.667,10.667v32h21.333v-32c0-5.888,4.779-10.667,10.667-10.667
			s10.667,4.779,10.667,10.667v32h21.333v-32c0-5.888,4.779-10.667,10.667-10.667s10.667,4.779,10.667,10.667v32h21.333v-32
			c0-5.888,4.779-10.667,10.667-10.667c5.888,0,10.667,4.779,10.667,10.667v32h10.667c17.643,0,32-14.357,32-32v-32H106.665z"/>
	</g>
</g>
<g>
	<g>
		<path d="M2.623,337.806l-2.347,16.832c-2.24,17.195,9.387,32.853,26.453,35.691l23.317,3.904
			c17.109,2.944,33.237-8.256,36.608-25.195l2.901-13.845L2.623,337.806z"/>
	</g>
</g>
<g>
	<g>
		<path d="M490.367,354.532l-2.347-16.747l-86.933,17.387l2.88,13.739c3.392,17.045,19.413,28.16,36.629,25.301l23.317-3.904
			C481.023,387.492,492.649,371.812,490.367,354.532z"/>
	</g>
</g>
<g>
	<g>
		<path d="M459.604,134.692c-7.381-58.56-57.408-102.699-116.437-102.699h-12.501c-5.888,0-10.667,4.779-10.667,10.667
			c0,15.104-31.936,32-74.667,32c-42.731,0-74.667-16.896-74.667-32c0-5.888-4.779-10.667-10.667-10.667h-12.501
			c-59.051,0-109.12,44.181-116.395,102.635L5.609,316.644l88.341,17.664l12.715-60.715v99.733h277.333v-99.755l12.715,60.736
			l88.341-17.664L459.604,134.692z"/>
	</g>
</g>
<g>
</g>
<g>
</g>
<g>
</g>
<g>
</g>
<g>
</g>
<g>
</g>
<g>
</g>
<g>
</g>
<g>
</g>
<g>
</g>
<g>
</g>
<g>
</g>
<g>
</g>
<g>
</g>
<g>
</g>
</svg>
