<?xml version="1.0" encoding="iso-8859-1"?>
<!-- Generator: Adobe Illustrator 19.0.0, SVG Export Plug-In . SVG Version: 6.00 Build 0)  -->
<svg version="1.1" id="Capa_1" xmlns="http://www.w3.org/2000/svg" xmlns:xlink="http://www.w3.org/1999/xlink" x="0px" y="0px"
	 viewBox="0 0 512 512" style="enable-background:new 0 0 512 512;" xml:space="preserve">
<g>
	<g>
		<path d="M471.019,138.197c0-0.021,0.021-0.043,0.021-0.064c-0.021-0.341-0.277-0.597-0.341-0.939
			C442.005,55.744,384.896,0,319.147,0H192.832C98.432,0,21.611,114.837,21.611,256s76.821,256,171.221,256h126.315
			c39.915,0,76.608-20.693,105.771-55.061c1.515-0.981,2.624-2.389,3.477-3.989C466.24,405.952,490.389,335.125,490.389,256
			C490.389,213.504,483.307,173.504,471.019,138.197z M414.592,75.221c10.176,13.163,19.136,28.523,26.795,45.419l-91.691-32.427
			L414.592,75.221z M360.192,210.24L455.147,256l-94.976,45.76c1.728-14.827,2.773-30.059,2.773-45.76
			S361.899,225.067,360.192,210.24z M354.816,176.491c-5.568-26.432-13.909-50.752-24.448-72.512l101.973,36.075L354.816,176.491z
			 M431.979,371.883l-101.333,35.52c10.389-21.589,18.645-45.696,24.149-71.893L431.979,371.883z M319.147,21.333
			c23.296,0,45.291,8.619,64.981,23.531l-93.013-23.531H319.147z M367.957,62.784l-54.635,10.923
			c-7.744-11.605-16.277-22.037-25.429-31.189L367.957,62.784z M192.533,405.333c-48,0-85.589-65.6-85.589-149.333
			s37.589-149.333,85.589-149.333c47.723,0,85.077,65.6,85.077,149.333S240.256,405.333,192.533,405.333z M313.152,438.528
			l56.427,10.816l-82.027,20.437C296.768,460.629,305.344,450.176,313.152,438.528z M319.147,490.667h-27.115l90.965-22.677
			C363.605,482.389,341.995,490.667,319.147,490.667z M414.912,436.331L348.8,423.637l92.672-32.491
			C433.899,407.936,425.003,423.189,414.912,436.331z M453.76,358.571l-82.069-38.677l96.789-46.656
			C467.072,303.68,461.931,332.437,453.76,358.571z M371.712,192.128l82.091-38.571c8.128,26.091,13.269,54.827,14.699,85.205
			L371.712,192.128z"/>
	</g>
</g>
<g>
	<g>
		<path d="M192.277,213.333c-15.723,0-21.333,22.037-21.333,42.667s5.611,42.667,21.333,42.667s21.333-22.037,21.333-42.667
			S208,213.333,192.277,213.333z"/>
	</g>
</g>
<g>
</g>
<g>
</g>
<g>
</g>
<g>
</g>
<g>
</g>
<g>
</g>
<g>
</g>
<g>
</g>
<g>
</g>
<g>
</g>
<g>
</g>
<g>
</g>
<g>
</g>
<g>
</g>
<g>
</g>
</svg>
