<?xml version="1.0" encoding="iso-8859-1"?>
<!-- Generator: Adobe Illustrator 19.0.0, SVG Export Plug-In . SVG Version: 6.00 Build 0)  -->
<svg version="1.1" id="Capa_1" xmlns="http://www.w3.org/2000/svg" xmlns:xlink="http://www.w3.org/1999/xlink" x="0px" y="0px"
	 viewBox="0 0 512.005 512.005" style="enable-background:new 0 0 512.005 512.005;" xml:space="preserve">
<g>
	<g>
		<path d="M508.885,493.784L383.808,368.707c-1.216-23.403-9.984-137.045-64.576-224.853c-0.363-0.917-0.939-1.707-1.536-2.496
			c-10.069-15.829-21.483-30.869-34.816-44.224c-2.539-2.539-5.163-4.864-7.744-7.317c-0.768-1.045-1.664-1.877-2.731-2.581
			C214.955,33.603,149.653,2.648,97.045,0.216C96.661,0.173,96.363,0.003,96,0.003c-0.235,0-0.448,0.128-0.683,0.128
			C66.475-0.872,41.515,6.616,24.149,24.003C6.549,41.581-0.533,66.008,0.469,93.656C0.299,94.445,0,95.171,0,96.003
			c0,1.6,0.405,3.093,1.045,4.459c2.667,32.576,15.893,69.035,36.288,104.171c0.491,2.539,1.771,4.693,3.712,6.251
			c12.885,21.227,28.267,41.728,45.44,60.395c0.917,1.877,2.389,3.349,4.16,4.416c2.219,2.347,4.373,4.779,6.656,7.04
			c13.867,13.867,29.547,25.621,46.059,35.968c0.277,0.149,0.512,0.363,0.811,0.491c87.744,54.528,201.173,63.381,224.555,64.619
			l125.077,125.077c2.069,2.069,4.8,3.115,7.531,3.115c2.731,0,5.461-1.045,7.552-3.115
			C513.045,504.707,513.045,497.965,508.885,493.784z M85.333,237.464c-6.379-7.936-12.224-16-17.749-24.128h17.749V237.464z
			 M85.333,192.003H54.208c-17.067-29.717-27.947-59.307-31.381-85.333h62.507V192.003z M85.333,85.336H21.824
			c0.704-18.965,6.208-35.051,17.408-46.251C50.411,27.907,66.453,22.467,85.333,21.72V85.336z M213.333,67.501
			c8.128,5.504,16.171,11.435,24.107,17.835h-24.107V67.501z M192,320.493c-0.341-0.149-0.683-0.341-1.045-0.491H192V320.493z
			 M192,298.669h-40.341c-14.123-9.067-27.477-19.243-39.275-31.04c-1.984-1.963-3.797-4.032-5.717-6.037v-48.256h32.277
			c2.155,2.816,4.544,5.483,7.275,7.872c0.619,0.768,1.344,1.451,2.176,2.027l1.963,1.365l1.856,1.301
			c8.683,6.123,17.003,9.365,25.045,12.48c4.736,1.856,9.557,3.776,14.741,6.357V298.669z M192,129.304
			c-3.499-0.704-7.019-1.301-10.667-1.301c-29.397,0-53.333,23.936-53.333,53.333c0,3.627,0.427,7.189,1.152,10.667h-22.485v-85.333
			H192V129.304z M192,85.336h-85.333V22.765c26.027,3.392,55.595,14.293,85.333,31.381V85.336z M298.667,353.197
			c-25.792-4.949-55.616-12.416-85.333-23.765v-9.429h85.333V353.197z M298.667,298.669h-85.333v-39.979
			c4.352,3.52,9.024,7.637,14.165,12.715c5.717,3.947,11.712,5.931,17.835,5.931c17.643,0,32-14.357,32-32
			c0-6.848-2.197-10.944-4.757-15.68l-0.832-1.557c-0.085-0.171-0.192-0.341-0.299-0.512l-8.555-14.251h35.776V298.669z
			 M298.667,192.003h-48.64l-23.744-39.381c-0.299-0.491-0.64-0.939-1.003-1.387c-3.285-4.8-7.467-8.683-11.947-12.117v-32.448
			h48.448c1.984,1.899,4.053,3.605,6.016,5.547c11.712,11.733,21.845,25.024,30.869,39.083V192.003z M320,190.616
			c0.213,0.469,0.448,0.917,0.661,1.387H320V190.616z M320,213.336h9.579c11.307,29.717,18.752,59.541,23.68,85.333H320V213.336z
			 M320,356.909v-36.907h36.928c2.752,17.771,4.245,32.491,4.992,41.92C352.491,361.176,337.771,359.661,320,356.909z"/>
	</g>
</g>
<g>
</g>
<g>
</g>
<g>
</g>
<g>
</g>
<g>
</g>
<g>
</g>
<g>
</g>
<g>
</g>
<g>
</g>
<g>
</g>
<g>
</g>
<g>
</g>
<g>
</g>
<g>
</g>
<g>
</g>
</svg>
