<?xml version="1.0" encoding="iso-8859-1"?>
<!-- Generator: Adobe Illustrator 19.0.0, SVG Export Plug-In . SVG Version: 6.00 Build 0)  -->
<svg version="1.1" id="Capa_1" xmlns="http://www.w3.org/2000/svg" xmlns:xlink="http://www.w3.org/1999/xlink" x="0px" y="0px"
	 viewBox="0 0 512 512" style="enable-background:new 0 0 512 512;" xml:space="preserve">
<g>
	<g>
		<path d="M224,213.333h-21.333c-5.888,0-10.667,4.779-10.667,10.667s4.779,10.667,10.667,10.667H224
			c5.888,0,10.667-4.779,10.667-10.667S229.888,213.333,224,213.333z"/>
	</g>
</g>
<g>
	<g>
		<path d="M309.333,213.333H288c-5.888,0-10.667,4.779-10.667,10.667s4.779,10.667,10.667,10.667h21.333
			c5.888,0,10.667-4.779,10.667-10.667S315.221,213.333,309.333,213.333z"/>
	</g>
</g>
<g>
	<g>
		<path d="M383.893,174.059c0.064-1.131,0.107-2.261,0.107-3.392c0-70.592-57.408-128-128-128s-128,57.408-128,128
			c0,0.917,0.021,1.856,0.064,2.773c-12.715,6.955-21.397,26.389-21.397,50.56c0,29.675,13.099,52.224,30.677,53.291
			C156.736,341.547,203.435,384,256,384s99.264-42.453,118.656-106.709c17.579-1.067,30.677-23.616,30.677-53.291
			C405.333,200.405,397.056,181.312,383.893,174.059z M372.672,255.531c-2.901-1.771-6.464-2.112-9.643-0.811
			c-3.136,1.28-5.483,3.989-6.315,7.296C341.781,322.219,301.312,362.667,256,362.667s-85.781-40.448-100.715-100.651
			c-0.832-3.307-3.499-5.76-6.656-7.061c-1.173-0.491-2.453-0.704-3.755-0.704c-2.176,0-4.395,0.619-6.208,1.749
			C136,256,128,244.651,128,224c0-19.563,7.189-30.763,10.197-31.915c0.107,0.021,0.213,0.043,0.32,0.043
			c3.179,0.256,6.357-0.811,8.619-3.072c2.261-2.283,3.392-5.461,3.051-8.64l-0.299-2.667c-0.256-2.325-0.555-4.672-0.555-7.083
			C149.333,111.851,197.184,64,256,64s106.667,47.851,106.667,106.667c0,2.411-0.299,4.757-0.555,7.061l-0.299,2.667
			c-0.341,3.2,0.789,6.379,3.051,8.64c2.261,2.283,5.419,3.371,8.619,3.093c0.085-0.021,0.213-0.021,0.32-0.043
			C376.811,193.237,384,204.437,384,224C384,244.651,376.171,255.659,372.672,255.531z"/>
	</g>
</g>
<g>
	<g>
		<path d="M465.877,209.515c2.325-6.379,3.456-15.595,3.456-28.181c0-33.024-21.077-58.389-40.043-74.539
			c0.576-0.683,1.024-1.344,1.387-1.92c4.8-7.829,3.2-18.645-5.163-35.051C401.216,22.187,341.824,0,309.333,0
			C296,0,270.464,1.003,256,8c-14.464-6.997-40-8-53.333-8c-32.491,0-91.883,22.187-116.16,69.824
			c-8.363,16.405-9.963,27.221-5.184,35.051c0.363,0.576,0.811,1.237,1.387,1.92c-18.965,16.149-40.043,41.515-40.043,74.539
			c0,9.365,0,31.509,11.115,39.019c-6.997,19.605-10.389,48.448,12.907,74.731c10.411,11.755,18.091,16.768,25.707,16.768
			c4.715,0,8.96-2.048,11.947-5.76c1.707-2.133,2.88-4.8,3.669-7.808C120.299,309.483,137.749,320,160,320h2.325
			c0.064,0,0.149,0,0.213,0c6.464,0.576,10.88-4.693,10.88-10.667c0-2.859-1.131-5.44-2.944-7.36
			c-6.592-12.395-11.691-25.813-15.189-39.957c-0.832-3.307-3.499-5.781-6.656-7.083c-3.136-1.259-7.061-0.725-9.963,1.067
			C136,256,128,244.651,128,224c0-19.563,7.189-30.763,10.197-31.915c0.107,0.021,0.213,0.021,0.32,0.043
			c0.427,0.043,0.896,0.043,1.28,0.043c5.333-0.363,10.88-4.715,10.88-10.667c0-1.451-0.299-2.837-0.832-4.117
			c-0.256-2.197-0.512-4.437-0.512-6.72C149.333,111.851,197.184,64,256,64s106.667,47.851,106.667,106.667
			c0,2.411-0.299,4.757-0.555,7.083l-0.299,2.667c-0.341,3.179,0.789,6.357,3.051,8.64c2.261,2.261,5.419,3.349,8.619,3.093
			c0.085,0,0.213-0.021,0.32-0.043C376.811,193.237,384,204.437,384,224c0,20.651-7.829,31.659-11.328,31.509
			c-2.88-1.771-6.464-2.091-9.643-0.811c-3.157,1.28-5.504,4.011-6.315,7.317c-3.712,14.976-9.237,29.163-16.405,42.176
			c-1.813,3.307-1.771,7.317,0.149,10.581c1.941,3.243,5.44,5.227,9.216,5.227H352c22.251,0,39.723-10.517,52.011-21.717
			c0.768,3.008,1.941,5.675,3.648,7.808c2.987,3.712,7.232,5.76,11.947,5.76c7.595,0,15.275-5.013,25.707-16.768
			c23.317-26.304,19.861-55.232,12.843-74.859C461.013,218.283,463.893,215.019,465.877,209.515z"/>
	</g>
</g>
<g>
	<g>
		<path d="M317.888,281.664c-1.835-2.496-18.624-24.277-40.64-25.173c-7.723-0.469-18.795,1.835-29.291,13.824
			c-3.883,4.437-3.435,11.179,1.003,15.061c4.416,3.883,11.157,3.435,15.061-1.003c5.952-6.805,10.709-6.549,12.331-6.571
			c10.069,0.363,21.291,12.395,24.427,16.576c2.091,2.795,5.312,4.267,8.555,4.267c2.219,0,4.459-0.683,6.357-2.091
			C320.405,293.035,321.408,286.379,317.888,281.664z"/>
	</g>
</g>
<g>
	<g>
		<path d="M264.043,270.293c-10.496-11.989-21.632-14.272-29.291-13.824c-22.016,0.896-38.805,22.699-40.64,25.173
			c-3.499,4.715-2.517,11.413,2.219,14.912c1.899,1.429,4.117,2.112,6.336,2.112c3.243,0,6.485-1.493,8.555-4.331
			c3.093-4.16,14.208-16.128,24.384-16.555c1.536,0.021,6.421-0.235,12.373,6.571c3.883,4.437,10.624,4.864,15.061,1.003
			C267.477,281.451,267.925,274.731,264.043,270.293z"/>
	</g>
</g>
<g>
	<g>
		<path d="M288,277.333h-64c-5.888,0-10.667,4.779-10.667,10.667c0,28.907,19.541,53.333,42.667,53.333s42.667-24.427,42.667-53.333
			C298.667,282.112,293.888,277.333,288,277.333z M256,320c-7.168,0-16.619-7.893-20.032-21.333h40.064
			C272.64,312.107,263.168,320,256,320z"/>
	</g>
</g>
<g>
	<g>
		<path d="M202.667,170.667c-13.803,0-26.347,11.371-28.715,13.632c-4.245,4.096-4.395,10.837-0.32,15.083
			c2.091,2.197,4.907,3.285,7.701,3.285c2.667,0,5.333-0.981,7.381-2.965c2.709-2.603,9.813-7.701,13.952-7.701
			c5.888,0,10.667-4.779,10.667-10.667S208.555,170.667,202.667,170.667z"/>
	</g>
</g>
<g>
	<g>
		<path d="M338.048,184.299c-2.368-2.261-14.912-13.632-28.715-13.632c-5.888,0-10.667,4.779-10.667,10.667S303.445,192,309.333,192
			c3.797,0,10.56,4.48,13.973,7.723c2.069,1.963,4.715,2.923,7.36,2.923c2.795,0,5.611-1.109,7.701-3.307
			C342.421,195.093,342.293,188.373,338.048,184.299z"/>
	</g>
</g>
<g>
	<g>
		<path d="M159.36,359.808c-2.88-3.136-7.36-4.245-11.371-2.859L93.12,376.043C35.669,396.011,0,444.011,0,501.333
			C0,507.221,4.779,512,10.667,512h202.667V397.184C193.643,389.653,175.189,377.088,159.36,359.808z"/>
	</g>
</g>
<g>
	<g>
		<rect x="362.667" y="469.333" width="42.667" height="42.667"/>
	</g>
</g>
<g>
	<g>
		<path d="M418.88,376.021l-54.869-19.093c-4.011-1.365-8.469-0.277-11.371,2.859c-26.901,29.376-61.227,45.547-96.64,45.547
			c-7.189,0-14.293-0.832-21.333-2.133V512h106.667v-53.333c0-5.888,4.779-10.667,10.667-10.667h64
			c5.888,0,10.667,4.779,10.667,10.667V512h74.667c5.888,0,10.667-4.779,10.667-10.667C512,444.011,476.331,396.011,418.88,376.021z
			"/>
	</g>
</g>
<g>
</g>
<g>
</g>
<g>
</g>
<g>
</g>
<g>
</g>
<g>
</g>
<g>
</g>
<g>
</g>
<g>
</g>
<g>
</g>
<g>
</g>
<g>
</g>
<g>
</g>
<g>
</g>
<g>
</g>
</svg>
