<?xml version="1.0" encoding="iso-8859-1"?>
<!-- Generator: Adobe Illustrator 19.0.0, SVG Export Plug-In . SVG Version: 6.00 Build 0)  -->
<svg version="1.1" id="Capa_1" xmlns="http://www.w3.org/2000/svg" xmlns:xlink="http://www.w3.org/1999/xlink" x="0px" y="0px"
	 viewBox="0 0 512 512" style="enable-background:new 0 0 512 512;" xml:space="preserve">
<g>
	<g>
		<path d="M224,213.333h-21.333c-5.888,0-10.667,4.779-10.667,10.667s4.779,10.667,10.667,10.667H224
			c5.888,0,10.667-4.779,10.667-10.667S229.888,213.333,224,213.333z"/>
	</g>
</g>
<g>
	<g>
		<path d="M309.333,213.333H288c-5.888,0-10.667,4.779-10.667,10.667s4.779,10.667,10.667,10.667h21.333
			c5.888,0,10.667-4.779,10.667-10.667S315.221,213.333,309.333,213.333z"/>
	</g>
</g>
<g>
	<g>
		<path d="M383.552,173.867C383.808,168.448,384,162.283,384,160c0-5.888-4.779-10.667-10.667-10.667
			c-5.888,0-10.667,4.779-10.667,10.667c0,3.52-0.491,17.003-0.853,20.395c-0.32,3.2,0.789,6.379,3.051,8.64
			c2.283,2.283,5.483,3.371,8.619,3.093c0.085-0.021,0.213-0.021,0.32-0.043C376.811,193.237,384,204.437,384,224
			c0,20.651-7.829,31.659-11.328,31.531c-2.901-1.771-6.485-2.112-9.643-0.811c-3.136,1.28-5.483,3.989-6.315,7.296
			C341.781,322.219,301.312,362.667,256,362.667s-85.781-40.448-100.715-100.651c-0.832-3.307-3.499-5.76-6.656-7.061
			c-3.157-1.28-7.061-0.747-9.963,1.045C136,256,128,244.651,128,224c0-19.563,7.189-30.763,10.197-31.915
			c0.107,0.021,0.235,0.043,0.32,0.043c3.136,0.256,6.357-0.811,8.619-3.072c2.261-2.283,3.392-5.461,3.051-8.64
			c-0.363-3.413-0.853-16.896-0.853-20.416c0-5.888-4.779-10.667-10.667-10.667S128,154.112,128,160
			c0,2.219,0.192,7.979,0.427,13.248c-12.907,6.805-21.76,26.368-21.76,50.752c0,29.675,13.099,52.224,30.677,53.291
			C156.736,341.547,203.435,384,256,384s99.264-42.453,118.656-106.709c17.579-1.067,30.677-23.616,30.677-53.291
			C405.333,200.213,396.907,180.992,383.552,173.867z"/>
	</g>
</g>
<g>
	<g>
		<path d="M373.333,117.333c-5.888,0-10.667,4.779-10.667,10.667H149.333c0-5.888-4.779-10.667-10.667-10.667S128,122.112,128,128
			v32c0,3.947,2.176,7.552,5.653,9.408C135.381,170.325,176.896,192,256,192s120.619-21.675,122.347-22.592
			c3.477-1.856,5.653-5.461,5.653-9.408v-32C384,122.112,379.221,117.333,373.333,117.333z"/>
	</g>
</g>
<g>
	<g>
		<path d="M341.333,21.333c-8.341,0-16.427,1.643-24.192,4.907C301.056,9.472,279.211,0,256,0s-45.056,9.472-61.141,26.24
			c-7.765-3.264-15.851-4.907-24.192-4.907c-35.285,0-64,28.715-64,64s28.715,64,64,64c11.243,0,22.08-3.008,32.213-8.939
			c3.371-1.984,5.077-5.547,5.099-9.195h96.064c0,3.648,1.707,7.211,5.099,9.195c10.112,5.931,20.949,8.939,32.192,8.939
			c35.285,0,64-28.715,64-64S376.619,21.333,341.333,21.333z M183.68,68.352c-12.117,12.139-13.013,27.861-13.013,28.032
			c-0.213,5.76-4.949,10.283-10.667,10.283c-0.128,0-0.256,0-0.384,0c-5.867-0.213-10.475-5.163-10.283-11.051
			c0.043-0.96,1.067-24.149,19.264-42.347c4.16-4.16,10.923-4.16,15.083,0C187.84,57.429,187.861,64.192,183.68,68.352z"/>
	</g>
</g>
<g>
	<g>
		<path d="M175.659,321.216c-5.227-2.731-11.669-0.747-14.421,4.459l-19.179,36.352c-2.752,5.205-0.747,11.669,4.459,14.421
			c1.6,0.832,3.285,1.237,4.971,1.237c3.819,0,7.531-2.069,9.451-5.696l19.179-36.352
			C182.869,330.432,180.864,323.968,175.659,321.216z"/>
	</g>
</g>
<g>
	<g>
		<path d="M369.941,362.027l-19.179-36.352c-2.773-5.205-9.195-7.189-14.421-4.459c-5.205,2.752-7.211,9.216-4.459,14.421
			l19.179,36.352c1.92,3.627,5.611,5.696,9.451,5.696c1.685,0,3.392-0.384,4.971-1.237
			C370.688,373.696,372.693,367.232,369.941,362.027z"/>
	</g>
</g>
<g>
	<g>
		<path d="M418.88,376.021l-54.869-19.093c-4.011-1.365-8.469-0.277-11.371,2.859c-26.901,29.376-61.227,45.547-96.64,45.547V512
			h245.333c5.888,0,10.667-4.779,10.667-10.667C512,444.011,476.331,396.011,418.88,376.021z"/>
	</g>
</g>
<g>
	<g>
		<path d="M159.36,359.829c-2.88-3.136-7.339-4.245-11.371-2.859L93.12,376.064C35.669,396.011,0,444.011,0,501.333
			C0,507.221,4.779,512,10.667,512h224V403.2C206.997,398.08,180.8,383.232,159.36,359.829z"/>
	</g>
</g>
<g>
	<g>
		<path d="M256,277.333c-9.365,0-17.963,5.12-26.283,10.091c-16.448,9.792-22.4,11.477-30.187,3.712
			c-4.16-4.16-10.923-4.16-15.083,0c-4.16,4.16-4.16,10.923,0,15.083c8.171,8.171,16.597,11.051,24.597,11.051
			c12.267,0,23.552-6.741,31.595-11.52c5.568-3.328,11.861-7.083,15.36-7.083c5.888,0,10.667-4.779,10.667-10.667
			S261.888,277.333,256,277.333z"/>
	</g>
</g>
<g>
	<g>
		<path d="M327.552,291.136c-4.16-4.16-10.923-4.16-15.083,0c-7.787,7.765-13.739,6.08-30.187-3.712
			c-8.32-4.971-16.917-10.091-26.283-10.091c-5.888,0-10.667,4.779-10.667,10.667s4.779,10.667,10.667,10.667
			c3.499,0,9.792,3.755,15.381,7.083c8.021,4.779,19.328,11.52,31.573,11.52c8,0,16.405-2.88,24.597-11.051
			C331.712,302.059,331.712,295.296,327.552,291.136z"/>
	</g>
</g>
<g>
</g>
<g>
</g>
<g>
</g>
<g>
</g>
<g>
</g>
<g>
</g>
<g>
</g>
<g>
</g>
<g>
</g>
<g>
</g>
<g>
</g>
<g>
</g>
<g>
</g>
<g>
</g>
<g>
</g>
</svg>
