<?xml version="1.0" encoding="iso-8859-1"?>
<!-- Generator: Adobe Illustrator 19.0.0, SVG Export Plug-In . SVG Version: 6.00 Build 0)  -->
<svg version="1.1" id="Capa_1" xmlns="http://www.w3.org/2000/svg" xmlns:xlink="http://www.w3.org/1999/xlink" x="0px" y="0px"
	 viewBox="0 0 512.1 512.1" style="enable-background:new 0 0 512.1 512.1;" xml:space="preserve">
<g>
	<g>
		<path d="M224,191.9h-21.3c-5.9,0-10.7,4.8-10.7,10.7s4.8,10.7,10.7,10.7H224c5.9,0,10.7-4.8,10.7-10.7S229.9,191.9,224,191.9z"/>
	</g>
</g>
<g>
	<g>
		<path d="M309.3,192H288c-5.9,0-10.7,4.7-10.7,10.6s4.8,10.7,10.7,10.7h21.3c5.9,0,10.7-4.7,10.7-10.6S315.2,192,309.3,192z"/>
	</g>
</g>
<g>
	<g>
		<path d="M256,159.9c-38.9,0-99.7-10.2-116.9-16.6c2.1-14.1,10.6-28.8,15.4-36.1c6.4,1.1,15.8,3.7,25.5,6.5
			c22.3,6.4,50.1,14.3,76,14.3c5.9,0,10.7-4.8,10.7-10.7s-4.8-10.7-10.7-10.7c-22.9,0-49.1-7.4-70.2-13.4
			c-15.6-4.4-27.8-7.9-36.5-7.9c-3.3,0-6.5,1.6-8.5,4.2c-1,1.3-23.5,31.2-23.5,59.8c0,3,1.2,5.8,3.4,7.8
			c15,14,102.7,24.2,135.3,24.2c5.9,0,10.7-4.7,10.7-10.7C266.7,164.7,261.9,159.9,256,159.9z"/>
	</g>
</g>
<g>
	<g>
		<path d="M402,67c-2.8-2.7-70.5-67-135.4-67c-68.7,0-117.3,72.8-117.3,96c0,5.1,3.6,9.5,8.6,10.5l106.7,21.3
			c0.7,0.1,1.4,0.2,2.1,0.2c0.8,0,1.6-0.1,2.3-0.3l96-21.3c1.3-0.3,2.5-0.8,3.6-1.5l32-21.3c2.7-1.8,4.4-4.7,4.7-7.9
			C405.6,72.4,404.4,69.2,402,67z"/>
	</g>
</g>
<g>
	<g>
		<path d="M405.3,63.9c-23.6,0-42.7,19.1-42.7,42.7s19.2,42.7,42.7,42.7c23.6,0,42.7-19.1,42.7-42.7S428.9,63.9,405.3,63.9z
			 M405.3,127.9c-11.7,0-21.3-9.5-21.3-21.3c0-11.7,9.5-21.3,21.3-21.3c11.8,0,21.4,9.6,21.3,21.3
			C426.6,118.3,417,127.9,405.3,127.9z"/>
	</g>
</g>
<g>
	<g>
		<path d="M373.3,170.7c-9.7,0-13.1,8.4-22.1,30.7C336.6,237.6,326.1,256,320,256c-10.7,0-20.2-5-30.4-10.4
			c-10.4-5.5-21.2-11.1-33.6-11.1s-23.2,5.7-33.6,11.1c-10.2,5.3-19.7,10.3-30.4,10.3c-6.1,0-16.6-18.3-31.2-54.6
			c-9-22.3-12.3-30.7-22.1-30.7c-5.9,0-10.7,4.8-10.7,10.7c0,3.7,1.8,7,4.7,8.9c1.9,3.3,5.4,12,8.3,19.1c15.5,38.5,29.1,68,51,68
			c15.9,0,28.8-6.7,40.2-12.7c8.9-4.6,16.6-8.6,23.8-8.6s14.9,4,23.8,8.6c11.4,6,24.3,12.7,40.2,12.7c21.9,0,35.5-29.4,51-67.9
			c2.9-7.1,6.4-15.8,8.3-19.1c2.8-1.9,4.7-5.2,4.7-8.9C384,175.5,379.2,170.7,373.3,170.7z"/>
	</g>
</g>
<g>
	<g>
		<path d="M373.4,85.3h-10.7c-8.7,0-21,3.5-36.5,7.9c-21.1,6-47.3,13.4-70.2,13.4c-5.9,0-10.7,4.8-10.7,10.7S250.1,128,256,128
			c25.9,0,53.7-7.9,76-14.2c12.9-3.6,25-7.1,30.7-7.1h10.7c5.9,0,10.7-4.8,10.7-10.7C384.1,90.1,379.3,85.3,373.4,85.3z"/>
	</g>
</g>
<g>
	<g>
		<path d="M384,127.9c-5.9,0-10.7,4.8-10.7,10.7v4.4c-16.9,6.5-78.2,16.9-117.3,16.9c-5.9,0-10.7,4.8-10.7,10.7s4.8,10.7,10.7,10.7
			c32.6,0,120.3-10.2,135.3-24.2c2.2-2,3.4-4.8,3.4-7.8v-10.7C394.7,132.7,389.9,127.9,384,127.9z"/>
	</g>
</g>
<g>
	<g>
		<path d="M293.9,289.3c-5-3.1-11.4-1.9-14.5,3.1c0,0.1-5.3,6.2-23.3,6.2c-17.1,0-22.7-5.5-23.3-6.1c-3.2-4.6-9.5-6-14.4-2.9
			c-5,3.1-6.5,9.7-3.4,14.7c1.6,2.6,11.3,15.7,41,15.7s39.4-13.1,41.1-15.7C300.2,299.3,298.9,292.4,293.9,289.3z"/>
	</g>
</g>
<g>
	<g>
		<path d="M418.6,354.6L358,335.4c9.2-5.6,18.2-11.6,24-20c10.3-14.7,12.2-54.8,12.5-74.2c5.9-5.7,10.7-19.1,10.7-49.2
			c0-5.4-2.1-10.2-6-13.9c-4.3-4-10.2-5.9-15.3-6.8V160c0-5.9-4.8-10.7-10.7-10.7c-5.9,0-10.7,4.8-10.7,10.7v21.3
			c0,2.9,1.2,5.7,3.3,7.7c2,1.9,4.6,2.9,7.4,2.9c0.7,0,1.4,0,2.2-0.1c3.8,0,8,0.6,8.4,0.1c0,15.5-1.9,28.2-3.8,32.7
			c-4,1.5-6.9,5.4-6.9,10c0,27.6-3.3,60.7-8.7,68.5c-4.1,5.8-12.8,11.1-21.3,16.2c-7.3,4.4-14.7,8.9-20.2,14.4
			c-2.9,3-29.9,28.9-67.1,28.9s-64.2-25.9-67.1-28.9c-5.5-5.5-12.9-10-20.2-14.4c-8.4-5.1-17.2-10.4-21.3-16.2
			c-5.5-7.8-8.7-41-8.7-68.5c0-4.5-2.9-8.4-6.9-10c-1.9-4.4-3.9-17-4.6-31c1.3-1.1,6.7-1.9,10.8-1.7c2.9,0.2,5.8-0.9,7.9-2.9
			c2.1-2,3.3-4.8,3.3-7.7V160c0-5.9-4.8-10.7-10.7-10.7c-5.9,0-10.3,4.8-10.3,10.7v11.3c-5.2,0.9-11.1,2.8-15.3,6.8
			c-3.9,3.7-6,8.5-6,13.9c0,30.2,4.8,43.5,10.7,49.2c0.3,19.4,2.2,59.5,12.5,74.2c5.9,8.4,14.9,14.4,24,20l-60.8,19.3
			C37.4,374,0,426.7,0,485.7v15.7c0,5.9,4.8,10.7,10.7,10.7h490.7c5.9,0,10.7-4.8,10.7-10.7v-15.7
			C512,426.7,474.6,374.1,418.6,354.6z"/>
	</g>
</g>
<g>
</g>
<g>
</g>
<g>
</g>
<g>
</g>
<g>
</g>
<g>
</g>
<g>
</g>
<g>
</g>
<g>
</g>
<g>
</g>
<g>
</g>
<g>
</g>
<g>
</g>
<g>
</g>
<g>
</g>
</svg>
