<?xml version="1.0" encoding="iso-8859-1"?>
<!-- Generator: Adobe Illustrator 19.0.0, SVG Export Plug-In . SVG Version: 6.00 Build 0)  -->
<svg version="1.1" id="Capa_1" xmlns="http://www.w3.org/2000/svg" xmlns:xlink="http://www.w3.org/1999/xlink" x="0px" y="0px"
	 viewBox="0 0 490.667 490.667" style="enable-background:new 0 0 490.667 490.667;" xml:space="preserve">
<g>
	<g>
		<path d="M336.32,364.309l-18.325-11.456l4.416-1.024c5.739-1.344,9.323-7.061,7.979-12.821c-1.344-5.717-6.976-9.28-12.821-7.979
			l-25.152,5.824L265.451,320l26.965-16.853l25.152,5.824c0.811,0.192,1.621,0.277,2.411,0.277c4.864,0,9.259-3.328,10.389-8.256
			c1.344-5.76-2.24-11.477-7.979-12.821l-4.416-1.024l18.325-11.456c4.992-3.115,6.528-9.707,3.392-14.699
			c-3.115-5.013-9.728-6.485-14.677-3.392l-18.219,11.371l0.981-4.224c1.344-5.739-2.24-11.477-7.979-12.8
			c-5.76-1.301-11.477,2.261-12.821,8l-5.803,25.045L256,300.757v-29.675l18.219-18.219c4.16-4.16,4.16-10.923,0-15.083
			c-4.16-4.16-10.923-4.16-15.083,0L256,240.917V224c0-5.888-4.779-10.667-10.667-10.667s-10.667,4.779-10.667,10.667v16.917
			l-3.115-3.115c-4.16-4.16-10.923-4.16-15.083,0s-4.16,10.923,0,15.083l18.197,18.197v29.675l-25.195-15.744l-5.803-25.024
			c-1.344-5.739-7.061-9.28-12.8-8c-5.739,1.344-9.323,7.061-8,12.8l0.981,4.203l-18.197-11.371
			c-4.992-3.115-11.584-1.621-14.699,3.392c-3.115,4.992-1.6,11.584,3.392,14.699l18.347,11.456l-4.395,1.024
			c-5.739,1.344-9.323,7.061-8,12.821c1.131,4.907,5.525,8.235,10.368,8.235c0.811,0,1.6-0.085,2.411-0.277l25.152-5.824
			L225.216,320l-26.965,16.853l-25.152-5.824c-5.739-1.301-11.477,2.24-12.8,7.979c-1.323,5.76,2.24,11.477,8,12.821l4.395,1.024
			l-18.347,11.456c-4.992,3.115-6.507,9.685-3.392,14.677c2.027,3.243,5.504,5.013,9.045,5.013c1.92,0,3.883-0.512,5.653-1.621
			l18.197-11.371l-0.981,4.181c-1.323,5.76,2.24,11.477,8,12.821c0.811,0.192,1.621,0.277,2.411,0.277
			c4.864,0,9.237-3.328,10.389-8.256l5.803-25.024l25.195-15.765v29.675l-18.219,18.219c-4.16,4.16-4.16,10.923,0,15.083
			c4.16,4.16,10.923,4.16,15.083,0l3.136-3.136V416c0,5.888,4.779,10.667,10.667,10.667S256,421.888,256,416v-16.917l3.115,3.115
			c2.091,2.091,4.821,3.136,7.552,3.136s5.461-1.045,7.552-3.115c4.16-4.16,4.16-10.923,0-15.083L256,368.917v-29.675l25.195,15.744
			l5.803,25.045c1.152,4.907,5.547,8.256,10.389,8.256c0.789,0,1.6-0.085,2.411-0.277c5.739-1.344,9.323-7.061,7.979-12.821
			l-0.981-4.181l18.197,11.371c1.771,1.109,3.733,1.621,5.675,1.621c3.541,0,7.019-1.771,9.045-5.013
			C342.827,374.016,341.312,367.424,336.32,364.309z"/>
	</g>
</g>
<g>
	<g>
		<path d="M117.333,0c-17.643,0-32,14.357-32,32v42.667c0,17.643,14.357,32,32,32c17.643,0,32-14.357,32-32V32
			C149.333,14.357,134.976,0,117.333,0z"/>
	</g>
</g>
<g>
	<g>
		<path d="M373.333,0c-17.643,0-32,14.357-32,32v42.667c0,17.643,14.357,32,32,32s32-14.357,32-32V32
			C405.333,14.357,390.976,0,373.333,0z"/>
	</g>
</g>
<g>
	<g>
		<path d="M426.667,43.755v30.912c0,29.397-23.915,53.333-53.333,53.333S320,104.064,320,74.667v-32H170.667v32
			c0,29.397-23.936,53.333-53.333,53.333S64,104.064,64,74.667V43.755C27.904,48.981,0,79.829,0,117.333V416
			c0,41.173,33.493,74.667,74.667,74.667H416c41.173,0,74.667-33.493,74.667-74.667V117.333
			C490.667,79.829,462.763,48.981,426.667,43.755z M469.333,416c0,29.419-23.915,53.333-53.333,53.333H74.667
			c-29.397,0-53.333-23.915-53.333-53.333V170.667h448V416z"/>
	</g>
</g>
<g>
</g>
<g>
</g>
<g>
</g>
<g>
</g>
<g>
</g>
<g>
</g>
<g>
</g>
<g>
</g>
<g>
</g>
<g>
</g>
<g>
</g>
<g>
</g>
<g>
</g>
<g>
</g>
<g>
</g>
</svg>
