<?xml version="1.0" encoding="iso-8859-1"?>
<!-- Generator: Adobe Illustrator 19.0.0, SVG Export Plug-In . SVG Version: 6.00 Build 0)  -->
<svg version="1.1" id="Capa_1" xmlns="http://www.w3.org/2000/svg" xmlns:xlink="http://www.w3.org/1999/xlink" x="0px" y="0px"
	 viewBox="0 0 512 512" style="enable-background:new 0 0 512 512;" xml:space="preserve">
<g>
	<g>
		<path d="M487.537,277.803l-108.629,33.6L278.151,256l100.736-55.403l108.629,33.6c1.045,0.32,2.112,0.469,3.157,0.469
			c4.565,0,8.768-2.944,10.197-7.509c1.749-5.632-1.408-11.605-7.04-13.333l-88.96-27.52l69.611-38.293
			c5.163-2.837,7.04-9.323,4.203-14.485c-2.88-5.205-9.323-7.019-14.507-4.203l-69.504,38.229l26.411-91.584
			c1.621-5.675-1.621-11.563-7.296-13.205c-5.781-1.643-11.584,1.643-13.205,7.296L368.284,182.08l-101.611,55.893V121.749
			l82.219-82.219c4.16-4.16,4.16-10.923,0-15.083c-4.16-4.16-10.923-4.16-15.083,0l-67.136,67.136V10.667
			C266.673,4.779,261.895,0,256.007,0c-5.888,0-10.667,4.779-10.667,10.667v80.917l-67.115-67.136c-4.16-4.16-10.923-4.16-15.083,0
			c-4.16,4.16-4.16,10.923,0,15.083l82.197,82.219v116.203L143.729,182.08L111.431,70.059c-1.643-5.632-7.509-8.917-13.205-7.296
			c-5.675,1.643-8.939,7.531-7.296,13.205l26.411,91.605l-69.547-38.251c-5.12-2.816-11.627-0.96-14.464,4.203
			c-2.837,5.163-0.96,11.648,4.203,14.485l69.611,38.293l-88.981,27.52c-5.632,1.749-8.768,7.701-7.04,13.333
			c1.451,4.565,5.653,7.509,10.219,7.509c1.045,0,2.112-0.149,3.157-0.469l108.629-33.6L233.863,256l-100.736,55.403l-108.629-33.6
			c-5.653-1.771-11.584,1.387-13.333,7.04c-1.749,5.632,1.408,11.605,7.04,13.333l88.939,27.52l-69.589,38.272
			c-5.163,2.859-7.061,9.344-4.203,14.507c1.92,3.52,5.568,5.525,9.323,5.525c1.749,0,3.499-0.427,5.12-1.323l69.547-38.251
			l-26.432,91.584c-1.643,5.675,1.643,11.584,7.296,13.205c0.981,0.299,1.984,0.427,2.965,0.427c4.629,0,8.896-3.051,10.24-7.701
			l32.32-112.021l101.611-55.872v116.203l-82.219,82.219c-4.16,4.16-4.16,10.923,0,15.083c4.16,4.16,10.923,4.16,15.083,0
			l67.115-67.115v80.896c0,5.888,4.779,10.667,10.667,10.667c5.888,0,10.667-4.779,10.667-10.667v-80.917l67.115,67.115
			c2.112,2.091,4.843,3.136,7.573,3.136c2.731,0,5.461-1.045,7.552-3.115c4.16-4.16,4.16-10.923,0-15.083l-82.219-82.219V274.048
			l101.611,55.893l32.299,112c1.344,4.672,5.611,7.701,10.24,7.701c0.981,0,1.963-0.128,2.965-0.427
			c5.675-1.621,8.917-7.552,7.296-13.205l-26.411-91.563l69.525,38.229c1.643,0.896,3.392,1.323,5.141,1.323
			c3.755,0,7.403-2.005,9.344-5.525c2.837-5.163,0.96-11.648-4.203-14.507l-69.589-38.272l88.917-27.52
			c5.632-1.728,8.789-7.701,7.04-13.333C499.121,279.232,493.169,276.053,487.537,277.803z"/>
	</g>
</g>
<g>
</g>
<g>
</g>
<g>
</g>
<g>
</g>
<g>
</g>
<g>
</g>
<g>
</g>
<g>
</g>
<g>
</g>
<g>
</g>
<g>
</g>
<g>
</g>
<g>
</g>
<g>
</g>
<g>
</g>
</svg>
