<?xml version="1.0" encoding="iso-8859-1"?>
<!-- Generator: Adobe Illustrator 19.0.0, SVG Export Plug-In . SVG Version: 6.00 Build 0)  -->
<svg version="1.1" id="Capa_1" xmlns="http://www.w3.org/2000/svg" xmlns:xlink="http://www.w3.org/1999/xlink" x="0px" y="0px"
	 viewBox="0 0 512 512" style="enable-background:new 0 0 512 512;" xml:space="preserve">
<g>
	<g>
		<path d="M256,341.333c-59.435,0-112.725,17.344-138.048,44.309C124.203,456.341,183.701,512,256,512
			c72.299,0,131.776-55.637,138.048-126.336C368.768,358.677,315.477,341.333,256,341.333z M215.765,396.48
			c-5.419,2.219-11.669-0.384-13.888-5.845c-1.067-2.624-3.115-4.693-5.739-5.781c-2.603-1.109-5.504-1.131-8.171-0.043
			c-5.44,2.219-8.064,8.469-5.824,13.909c2.219,5.461-0.384,11.691-5.845,13.909c-1.323,0.533-2.688,0.789-4.032,0.789
			c-4.203,0-8.192-2.496-9.877-6.635c-6.677-16.363,1.195-35.072,17.515-41.749c7.893-3.243,16.597-3.221,24.491,0.128
			c7.872,3.307,13.995,9.493,17.216,17.408C223.851,388.032,221.227,394.24,215.765,396.48z M349.632,406.784
			c-1.685,4.117-5.675,6.635-9.877,6.635c-1.344,0-2.709-0.256-4.032-0.789c-5.44-2.219-8.064-8.448-5.824-13.909
			c2.219-5.44-0.405-11.691-5.845-13.909c-2.624-1.109-5.525-1.067-8.149,0.043c-2.624,1.109-4.672,3.157-5.76,5.803
			c-2.219,5.44-8.448,8.064-13.909,5.824c-5.44-2.219-8.064-8.448-5.824-13.909c3.221-7.915,9.344-14.08,17.237-17.387
			c7.915-3.307,16.555-3.371,24.491-0.128C348.437,371.712,356.288,390.443,349.632,406.784z"/>
	</g>
</g>
<g>
	<g>
		<path d="M405.931,213.333c-1.365-0.085-31.957-1.493-56.299,10.688l-1.088-3.072c-2.389-9.045-6.229-17.365-10.88-25.088
			C410.56,163.712,458.667,90.987,458.667,10.667C458.667,4.779,453.888,0,448,0c-5.888,0-10.667,4.779-10.667,10.667
			c0,45.163-17.28,87.403-46.101,119.893C366.571,112.512,352,84.331,352,53.333c0-5.888-4.779-10.667-10.667-10.667
			s-10.667,4.779-10.667,10.667c0,36.139,17.024,70.379,45.163,92.437c-15.125,13.44-32.491,24.491-51.84,32.341
			c-17.536-17.856-41.728-28.779-67.989-28.779c-26.347,0-50.603,10.965-68.117,28.757c-19.307-7.872-36.629-18.901-51.733-32.32
			c28.139-22.059,45.184-56.299,45.184-92.437c0-5.888-4.779-10.667-10.667-10.667S160,47.445,160,53.333
			c0,30.997-14.592,59.179-39.232,77.227C91.947,98.069,74.667,55.829,74.667,10.667C74.667,4.779,69.888,0,64,0
			S53.333,4.779,53.333,10.667c0,80.277,48.064,153.003,120.917,185.173c-4.501,7.509-8.235,15.552-10.517,24.277l-1.408,3.968
			c-24.363-12.117-54.869-10.752-56.256-10.645c-3.2,0.171-6.165,1.771-8.043,4.395c-1.877,2.603-2.496,5.909-1.664,9.003
			c0.469,1.792,11.883,41.792,47.488,49.408l-22.165,62.592c-1.557,6.101-2.624,12.288-3.349,18.56
			C150.549,334.293,201.152,320,256,320c54.869,0,105.451,14.293,137.664,37.376c-0.725-6.272-1.792-12.48-3.349-18.581
			c-0.085-0.299-0.149-0.597-0.256-0.896l-21.931-61.76c35.627-7.595,47.04-47.616,47.531-49.408
			c0.811-3.115,0.213-6.421-1.685-9.003C412.096,215.125,409.131,213.525,405.931,213.333z M150.933,256.256
			c-0.085-0.021-0.149-0.064-0.235-0.085c-13.568-1.771-22.357-11.968-27.563-20.864c9.557,0.939,21.781,3.264,31.68,8.768
			c0.128,0.064,0.256,0.064,0.384,0.128L150.933,256.256z M213.333,277.333c-5.888,0-10.667-4.779-10.667-10.667
			S207.445,256,213.333,256S224,260.779,224,266.667S219.221,277.333,213.333,277.333z M298.667,277.333
			c-5.888,0-10.667-4.779-10.667-10.667S292.779,256,298.667,256s10.667,4.779,10.667,10.667S304.555,277.333,298.667,277.333z
			 M361.28,256.107c-0.085,0.021-0.171,0.085-0.256,0.085l-4.288-12.053c0.149-0.064,0.299-0.064,0.427-0.128
			c9.941-5.504,22.187-7.829,31.765-8.789C383.787,244.117,374.997,254.315,361.28,256.107z"/>
	</g>
</g>
<g>
</g>
<g>
</g>
<g>
</g>
<g>
</g>
<g>
</g>
<g>
</g>
<g>
</g>
<g>
</g>
<g>
</g>
<g>
</g>
<g>
</g>
<g>
</g>
<g>
</g>
<g>
</g>
<g>
</g>
</svg>
