<?xml version="1.0" encoding="iso-8859-1"?>
<!-- Generator: Adobe Illustrator 19.0.0, SVG Export Plug-In . SVG Version: 6.00 Build 0)  -->
<svg version="1.1" id="Capa_1" xmlns="http://www.w3.org/2000/svg" xmlns:xlink="http://www.w3.org/1999/xlink" x="0px" y="0px"
	 viewBox="0 0 490.652 490.652" style="enable-background:new 0 0 490.652 490.652;" xml:space="preserve">
<g>
	<g>
		<path d="M2.623,337.806l-2.347,16.832c-2.24,17.195,9.387,32.853,26.453,35.691l23.317,3.904
			c17.109,2.944,33.237-8.256,36.608-25.195l2.901-13.845L2.623,337.806z"/>
	</g>
</g>
<g>
	<g>
		<path d="M490.367,354.532l-2.347-16.747l-86.933,17.387l2.88,13.739c3.392,17.045,19.413,28.16,36.629,25.301l23.317-3.904
			C481.023,387.492,492.649,371.812,490.367,354.532z"/>
	</g>
</g>
<g>
	<g>
		<path d="M459.604,134.692c-7.381-58.56-57.408-102.699-116.437-102.699h-12.501c-5.888,0-10.667,4.779-10.667,10.667
			c0,15.104-31.936,32-74.667,32c-42.731,0-74.667-16.896-74.667-32c0-5.888-4.779-10.667-10.667-10.667h-12.501
			c-59.051,0-109.12,44.181-116.395,102.635L5.609,316.644l88.341,17.664l12.715-60.715v99.733h277.333v-99.755l12.715,60.736
			l88.341-17.664L459.604,134.692z M339.711,282.98c-2.027,3.243-5.504,5.013-9.045,5.013c-1.941,0-3.904-0.512-5.653-1.621
			l-18.197-11.371l0.981,4.181c1.344,5.76-2.24,11.477-7.979,12.821c-0.811,0.192-1.621,0.277-2.411,0.277
			c-4.864,0-9.259-3.328-10.389-8.256l-5.803-25.045l-25.216-15.744v29.675l18.219,18.219c4.16,4.16,4.16,10.923,0,15.083
			c-2.091,2.069-4.821,3.115-7.552,3.115s-5.461-1.045-7.552-3.115l-3.115-3.136v16.917c0,5.888-4.779,10.667-10.667,10.667
			s-10.667-4.779-10.667-10.667v-16.917l-3.115,3.115c-4.16,4.16-10.923,4.16-15.083,0c-4.16-4.16-4.16-10.923,0-15.083
			l18.197-18.197v-29.675l-25.195,15.744l-5.803,25.024c-1.152,4.907-5.525,8.256-10.389,8.256c-0.811,0-1.6-0.085-2.411-0.277
			c-5.739-1.344-9.323-7.061-8-12.821l0.981-4.181l-18.197,11.371c-1.749,1.131-3.712,1.643-5.653,1.643
			c-3.563,0-7.04-1.771-9.045-5.013c-3.115-4.971-1.6-11.563,3.392-14.677l18.347-11.456l-4.395-1.024
			c-5.739-1.344-9.323-7.061-8-12.8c1.344-5.739,7.061-9.259,12.8-8l25.152,5.824l26.965-16.853l-26.944-16.853l-25.173,5.824
			c-0.811,0.213-1.621,0.299-2.432,0.299c-4.864,0-9.237-3.328-10.389-8.256c-1.323-5.739,2.24-11.477,8-12.8l4.416-1.024
			l-18.347-11.477c-4.992-3.115-6.507-9.707-3.392-14.699c3.115-5.013,9.707-6.507,14.699-3.392l18.197,11.371l-0.981-4.203
			c-1.323-5.739,2.24-11.477,8-12.8c5.739-1.28,11.477,2.24,12.8,8l5.803,25.024l25.195,15.744v-29.675l-18.219-18.219
			c-4.16-4.16-4.16-10.923,0-15.083c4.16-4.16,10.923-4.16,15.083,0l3.136,3.136v-16.917c0-5.888,4.779-10.667,10.667-10.667
			s10.667,4.779,10.667,10.667v16.917l3.115-3.115c4.16-4.16,10.923-4.16,15.083,0c4.16,4.16,4.16,10.923,0,15.083l-18.197,18.197
			v29.675l25.195-15.744l5.803-25.024c1.344-5.717,7.061-9.344,12.821-8c5.739,1.344,9.323,7.061,7.979,12.8l-0.981,4.224
			l18.219-11.371c4.949-3.136,11.541-1.643,14.677,3.371c3.115,4.992,1.6,11.584-3.392,14.699l-18.347,11.456l4.416,1.024
			c5.739,1.344,9.323,7.061,7.979,12.8c-1.152,4.928-5.547,8.256-10.389,8.256c-0.789,0-1.6-0.085-2.411-0.277l-25.173-5.824
			l-26.944,16.853l26.965,16.853l25.152-5.824c5.824-1.344,11.477,2.261,12.821,8c1.344,5.739-2.24,11.477-7.979,12.8l-4.416,1.024
			l18.325,11.456C341.311,271.417,342.847,278.009,339.711,282.98z"/>
	</g>
</g>
<g>
	<g>
		<path d="M106.665,394.681v31.979c0,17.664,14.336,32,32,32h213.333c17.664,0,32-14.336,32-32v-31.979H106.665z"/>
	</g>
</g>
<g>
</g>
<g>
</g>
<g>
</g>
<g>
</g>
<g>
</g>
<g>
</g>
<g>
</g>
<g>
</g>
<g>
</g>
<g>
</g>
<g>
</g>
<g>
</g>
<g>
</g>
<g>
</g>
<g>
</g>
</svg>
