<?xml version="1.0" encoding="iso-8859-1"?>
<!-- Generator: Adobe Illustrator 19.0.0, SVG Export Plug-In . SVG Version: 6.00 Build 0)  -->
<svg version="1.1" id="Capa_1" xmlns="http://www.w3.org/2000/svg" xmlns:xlink="http://www.w3.org/1999/xlink" x="0px" y="0px"
	 viewBox="0 0 512 512" style="enable-background:new 0 0 512 512;" xml:space="preserve">
<g>
	<g>
		<path d="M123.477,455.381l-10.368,2.688L95.872,448l17.237-10.069l10.347,2.773c0.917,0.235,1.835,0.363,2.752,0.363
			c4.715,0,9.024-3.136,10.283-7.915c1.515-5.696-1.856-11.541-7.552-13.056l-4.309-1.152l1.131-4.224
			c1.515-5.696-1.856-11.541-7.552-13.056c-5.653-1.493-11.52,1.877-13.056,7.552l-2.731,10.261l-17.067,9.963v-19.669l7.573-7.552
			c4.16-4.16,4.181-10.923,0.021-15.083c-4.181-4.203-10.901-4.181-15.083-0.043l-3.136,3.136l-3.115-3.115
			c-4.16-4.203-10.923-4.181-15.083-0.043c-4.16,4.16-4.181,10.923-0.021,15.083l7.509,7.531v19.712l-16.853-9.835l-2.752-10.453
			c-1.515-5.696-7.36-9.173-13.035-7.573c-5.696,1.493-9.088,7.339-7.573,13.035l1.131,4.224l-4.309,1.152
			c-5.696,1.515-9.088,7.36-7.573,13.035c1.28,4.8,5.589,7.936,10.304,7.936c0.896,0,1.835-0.107,2.731-0.363l10.176-2.709
			L53.568,448l-17.173,10.027l-10.368-2.752c-5.675-1.557-11.52,1.899-13.035,7.595c-1.493,5.696,1.899,11.52,7.595,13.013
			l4.267,1.131l-1.131,4.288c-1.493,5.717,1.92,11.541,7.616,13.013c0.896,0.256,1.813,0.363,2.709,0.363
			c4.736,0,9.045-3.157,10.304-7.957l2.688-10.261l17.003-9.92v19.712l-7.509,7.552c-4.16,4.16-4.139,10.923,0.021,15.083
			c4.181,4.139,10.944,4.16,15.083-0.043l3.115-3.115l3.136,3.136c2.091,2.091,4.821,3.136,7.531,3.136
			c2.731,0,5.461-1.045,7.552-3.136c4.16-4.16,4.139-10.923-0.021-15.083l-7.573-7.552V466.56l17.024,9.941l2.688,10.304
			c1.259,4.8,5.568,7.979,10.304,7.979c0.896,0,1.792-0.107,2.688-0.341c5.696-1.493,9.109-7.317,7.637-13.013l-1.109-4.288
			l4.245-1.109c5.696-1.493,9.109-7.317,7.637-13.013C134.997,457.323,129.152,453.888,123.477,455.381z"/>
	</g>
</g>
<g>
	<g>
		<path d="M208.704,306.048l-10.368,2.688l-17.259-10.069l17.237-10.048l10.368,2.752c0.917,0.235,1.835,0.363,2.752,0.363
			c4.715,0,9.024-3.136,10.304-7.936c1.515-5.696-1.877-11.541-7.573-13.056l-4.288-1.131l1.131-4.245
			c1.515-5.696-1.877-11.541-7.573-13.056c-5.589-1.408-11.52,1.856-13.056,7.573l-2.731,10.283l-17.045,9.941v-19.669l7.573-7.552
			c4.16-4.16,4.181-10.901,0.021-15.083s-10.901-4.203-15.083-0.021l-3.136,3.136l-3.115-3.115
			c-4.16-4.181-10.901-4.203-15.083-0.021c-4.16,4.16-4.181,10.901-0.021,15.083l7.509,7.531v19.691l-16.875-9.856l-2.752-10.432
			c-1.493-5.717-7.403-9.045-13.035-7.595c-5.696,1.493-9.088,7.339-7.595,13.035l1.131,4.245l-4.331,1.152
			c-5.696,1.493-9.088,7.339-7.595,13.035c1.259,4.779,5.589,7.957,10.304,7.957c0.896,0,1.813-0.107,2.731-0.363l10.197-2.688
			l17.323,10.091L121.6,308.672l-10.368-2.731c-5.675-1.515-11.52,1.899-13.035,7.595c-1.493,5.696,1.899,11.52,7.595,13.013
			l4.267,1.131l-1.131,4.288c-1.493,5.717,1.899,11.52,7.595,13.013c0.896,0.256,1.813,0.363,2.709,0.363
			c4.736,0,9.045-3.157,10.304-7.957l2.688-10.261l17.024-9.92v19.712l-7.509,7.531c-4.16,4.16-4.139,10.923,0.021,15.083
			c4.203,4.139,10.944,4.16,15.083-0.043l3.115-3.115l3.136,3.136c2.091,2.112,4.821,3.157,7.552,3.157s5.461-1.045,7.552-3.136
			c4.16-4.16,4.139-10.923-0.021-15.083l-7.573-7.552v-19.669l17.024,9.941l2.688,10.304c1.259,4.8,5.568,7.979,10.304,7.979
			c0.896,0,1.792-0.107,2.688-0.341c5.696-1.493,9.109-7.317,7.637-13.013l-1.109-4.288l4.245-1.109
			c5.696-1.493,9.109-7.317,7.637-13.013S214.421,304.619,208.704,306.048z"/>
	</g>
</g>
<g>
	<g>
		<path d="M379.413,306.069l-10.325,2.688l-17.28-10.091l17.237-10.048l10.368,2.731c0.917,0.235,1.856,0.363,2.752,0.363
			c4.736,0,9.045-3.136,10.304-7.936c1.493-5.696-1.877-11.541-7.552-13.056l-4.288-1.131l1.131-4.245
			c1.515-5.696-1.877-11.541-7.552-13.056c-5.76-1.515-11.541,1.877-13.056,7.573l-2.731,10.283l-17.088,9.941v-19.691l7.552-7.531
			c4.181-4.16,4.181-10.901,0.043-15.083c-4.16-4.181-10.923-4.181-15.083-0.021l-3.157,3.136l-3.093-3.115
			c-4.16-4.181-10.923-4.181-15.083-0.021c-4.181,4.16-4.181,10.901-0.043,15.083l7.531,7.573v19.691l-16.875-9.835l-2.752-10.453
			c-1.472-5.696-7.424-9.088-13.013-7.595c-5.717,1.493-9.109,7.339-7.595,13.035l1.131,4.245l-4.309,1.131
			c-5.696,1.493-9.088,7.339-7.595,13.035c1.259,4.8,5.589,7.957,10.304,7.957c0.896,0,1.813-0.107,2.731-0.363l10.176-2.688
			l17.301,10.091l-17.173,10.027l-10.368-2.731c-5.632-1.6-11.52,1.899-13.013,7.595c-1.493,5.696,1.899,11.52,7.595,13.013
			l4.267,1.131l-1.131,4.288c-1.493,5.717,1.92,11.52,7.595,13.013c0.917,0.256,1.813,0.363,2.709,0.363
			c4.736,0,9.067-3.157,10.304-7.957l2.688-10.261l17.024-9.92v19.691l-7.531,7.552c-4.139,4.16-4.139,10.923,0.043,15.083
			c4.16,4.117,10.923,4.16,15.083-0.043l3.093-3.115l3.157,3.136c2.091,2.069,4.8,3.115,7.531,3.115
			c2.731,0,5.483-1.045,7.552-3.136c4.139-4.16,4.139-10.923-0.043-15.083l-7.552-7.531v-19.669l17.024,9.92l2.667,10.304
			c1.259,4.821,5.589,8,10.325,8c0.875,0,1.771-0.107,2.667-0.341c5.717-1.472,9.152-7.317,7.659-12.992l-1.131-4.309l4.245-1.131
			c5.717-1.472,9.131-7.296,7.616-12.992C390.933,308.011,385.173,304.405,379.413,306.069z"/>
	</g>
</g>
<g>
	<g>
		<path d="M394.667,85.333c-8.789,0-17.792,1.195-27.264,3.605C340.48,34.603,285.205,0,224,0
			C145.963,0,79.445,56.64,66.411,132.885C26.965,145.6,0,182.101,0,224c0,40.405,25.771,76.672,64.171,90.219
			c1.131,0.405,2.325,0.597,3.541,0.597l8.875,0.021c0.107-2.24,0.405-4.501,1.003-6.72c0.896-3.456,2.347-6.677,4.267-9.557
			c-1.877-2.837-3.328-6.037-4.224-9.472c-2.176-8.277-1.003-16.896,3.285-24.277c1.856-3.2,4.224-6.016,6.976-8.341
			c0.683-3.499,1.941-6.891,3.797-10.069c4.309-7.381,11.221-12.672,19.499-14.848c3.243-0.853,6.443-1.152,9.728-0.981
			c1.493-2.88,3.456-5.547,5.824-7.915c8.576-8.619,21.995-11.499,33.259-7.552c11.179-3.968,24.661-1.088,33.344,7.595
			c2.368,2.368,4.331,5.056,5.803,7.957c3.179-0.171,6.379,0.128,9.579,0.939c12.437,3.307,21.205,13.333,23.467,25.045
			c9.109,7.765,13.483,20.309,10.219,32.597c-0.917,3.435-2.368,6.635-4.267,9.472c1.899,2.859,3.371,6.08,4.288,9.557
			c0.597,2.325,0.683,4.629,0.768,6.933h4.203c0.085-2.389,0.363-4.779,0.981-7.125c0.896-3.392,2.347-6.635,4.288-9.536
			c-1.877-2.859-3.349-6.059-4.245-9.493c-2.176-8.256-1.003-16.875,3.307-24.256c1.856-3.2,4.224-6.016,6.976-8.341
			c0.683-3.52,1.941-6.912,3.797-10.091c4.309-7.381,11.243-12.651,19.52-14.827c3.2-0.853,6.507-1.259,9.728-1.024
			c1.472-2.859,3.413-5.525,5.824-7.915c5.973-5.973,13.995-9.323,22.549-9.323c0.021,0,0.043,0,0.043,0
			c3.691,0,7.275,0.619,10.624,1.813c3.371-1.195,6.976-1.813,10.667-1.813c0.021,0,0.043,0,0.043,0
			c8.555,0,16.597,3.371,22.656,9.429c2.368,2.389,4.288,5.056,5.76,7.915c3.2-0.085,6.528,0.149,9.792,1.003
			c8.341,2.219,15.253,7.509,19.52,14.891c1.856,3.2,3.115,6.635,3.797,10.155c9.067,7.744,13.419,20.267,10.197,32.512
			c-0.917,3.456-2.368,6.677-4.288,9.515c1.92,2.923,3.371,6.144,4.267,9.536c0.64,2.432,0.896,4.885,0.96,7.36l9.109,0.021h0.021
			c0.96,0,1.941-0.128,2.88-0.405C476.651,301.163,512,254.848,512,202.667C512,137.963,459.349,85.333,394.667,85.333z"/>
	</g>
</g>
<g>
	<g>
		<path d="M307.072,462.997c-1.472-5.675-7.275-9.131-13.013-7.637l-10.368,2.688L266.389,448l17.237-10.069l10.347,2.773
			c0.917,0.235,1.856,0.363,2.752,0.363c4.736,0,9.045-3.136,10.304-7.915c1.515-5.696-1.877-11.541-7.552-13.056l-4.288-1.152
			l1.131-4.224c1.515-5.696-1.877-11.541-7.552-13.056c-5.739-1.6-11.541,1.899-13.056,7.552l-2.731,10.261l-17.045,9.941v-19.648
			l7.573-7.552c4.16-4.16,4.181-10.923,0.021-15.083c-4.16-4.203-10.923-4.181-15.083-0.043l-3.136,3.136l-3.115-3.115
			c-4.16-4.203-10.923-4.181-15.083-0.043c-4.16,4.16-4.181,10.923-0.021,15.083l7.509,7.531v19.712l-16.875-9.835l-2.752-10.453
			c-1.493-5.696-7.36-9.173-13.035-7.573c-5.696,1.493-9.088,7.339-7.573,13.035l1.131,4.224l-4.309,1.152
			c-5.696,1.515-9.088,7.36-7.573,13.035c1.28,4.8,5.589,7.936,10.304,7.936c0.896,0,1.835-0.107,2.731-0.363l10.176-2.709
			l17.301,10.091l-17.173,10.027l-10.347-2.731c-5.696-1.557-11.52,1.899-13.035,7.595c-1.493,5.696,1.899,11.52,7.595,13.013
			l4.267,1.131l-1.131,4.288c-1.493,5.717,1.899,11.52,7.595,13.013c0.896,0.256,1.813,0.363,2.709,0.363
			c4.736,0,9.045-3.157,10.304-7.957l2.688-10.261l17.024-9.92v19.712l-7.509,7.531c-4.16,4.16-4.139,10.923,0.021,15.083
			c4.181,4.139,10.944,4.16,15.083-0.043l3.115-3.115l3.136,3.136c2.091,2.069,4.821,3.115,7.531,3.115
			c2.731,0,5.461-1.045,7.552-3.136c4.16-4.16,4.139-10.923-0.021-15.083l-7.573-7.552V466.56l17.024,9.92l2.688,10.304
			c1.259,4.8,5.568,7.979,10.325,7.979c0.875,0,1.792-0.107,2.688-0.363c5.717-1.472,9.131-7.317,7.616-12.992l-1.109-4.288
			l4.245-1.109C305.152,474.517,308.565,468.693,307.072,462.997z"/>
	</g>
</g>
<g>
</g>
<g>
</g>
<g>
</g>
<g>
</g>
<g>
</g>
<g>
</g>
<g>
</g>
<g>
</g>
<g>
</g>
<g>
</g>
<g>
</g>
<g>
</g>
<g>
</g>
<g>
</g>
<g>
</g>
</svg>
