<?xml version="1.0" encoding="iso-8859-1"?>
<!-- Generator: Adobe Illustrator 19.0.0, SVG Export Plug-In . SVG Version: 6.00 Build 0)  -->
<svg version="1.1" id="Capa_1" xmlns="http://www.w3.org/2000/svg" xmlns:xlink="http://www.w3.org/1999/xlink" x="0px" y="0px"
	 viewBox="0 0 512.009 512.009" style="enable-background:new 0 0 512.009 512.009;" xml:space="preserve">
<g>
	<g>
		<path d="M328.415,102.662c17.344-21.675,17.344-55.616,0-77.291c-3.691-4.608-10.432-5.333-14.997-1.664
			c-4.608,3.669-5.333,10.389-1.664,14.997c11.008,13.739,11.008,36.907-0.043,50.667c-17.365,21.675-17.365,55.616-0.021,77.291
			c2.133,2.645,5.205,4.011,8.341,4.011c2.347,0,4.715-0.768,6.677-2.347c4.608-3.669,5.333-10.389,1.664-14.997
			C317.364,139.611,317.364,116.443,328.415,102.662z"/>
	</g>
</g>
<g>
	<g>
		<path d="M264.308,102.662c17.344-21.675,17.344-55.616,0-77.291c-3.669-4.587-10.368-5.376-14.997-1.664
			c-4.587,3.669-5.333,10.389-1.664,14.997c10.987,13.739,10.987,36.907-0.043,50.667c-17.323,21.675-17.323,55.616,0.021,77.291
			c2.112,2.645,5.205,4.011,8.341,4.011c2.325,0,4.693-0.768,6.656-2.347c4.587-3.669,5.333-10.389,1.664-14.997
			C253.3,139.611,253.3,116.422,264.308,102.662z"/>
	</g>
</g>
<g>
	<g>
		<path d="M200.393,102.662c17.344-21.675,17.344-55.616,0-77.291c-3.669-4.608-10.389-5.355-14.997-1.685
			c-4.587,3.691-5.333,10.411-1.664,15.019c10.987,13.717,10.987,36.907-0.021,50.667c-17.365,21.675-17.365,55.616,0,77.291
			c2.112,2.624,5.205,3.989,8.341,3.989c2.325,0,4.693-0.768,6.656-2.347c4.608-3.669,5.333-10.389,1.664-14.997
			C189.364,139.59,189.364,116.422,200.393,102.662z"/>
	</g>
</g>
<g>
	<g>
		<path d="M448.009,341.318c35.285,0,64-28.715,64-64s-28.715-64-64-64c-16.448,0-31.317,6.421-42.667,16.64v-5.973
			c0-17.643-14.357-32-32-32h-256c-17.643,0-32,14.357-32,32v64c0,52.053,20.117,101.205,55.68,138.667H10.676
			c-4.309,0-8.213,2.603-9.856,6.592c-1.664,3.989-0.747,8.576,2.304,11.627l23.915,23.915
			c11.371,11.349,25.003,21.867,47.616,21.867h341.333c22.635,0,36.267-10.517,47.616-21.867l23.915-23.915
			c3.051-3.051,3.968-7.637,2.304-11.627c-1.664-3.989-5.547-6.592-9.856-6.592H349.62c27.733-29.205,45.824-65.536,52.501-104.832
			C413.812,333.809,430.025,341.318,448.009,341.318z M448.009,234.651c23.531,0,42.667,19.136,42.667,42.667
			c0,23.531-19.136,42.667-42.667,42.667c-23.531,0-42.667-19.136-42.667-42.667C405.343,253.787,424.479,234.651,448.009,234.651z"
			/>
	</g>
</g>
<g>
</g>
<g>
</g>
<g>
</g>
<g>
</g>
<g>
</g>
<g>
</g>
<g>
</g>
<g>
</g>
<g>
</g>
<g>
</g>
<g>
</g>
<g>
</g>
<g>
</g>
<g>
</g>
<g>
</g>
</svg>
